<svg width="12" height="24" viewBox="0 0 12 24" fill="none" xmlns="http://www.w3.org/2000/svg">
<path d="M10.0504 23.6674C9.80145 23.6683 9.55543 23.6133 9.33046 23.5066C9.1055 23.3999 8.9073 23.2441 8.75044 23.0508L0.700436 13.0508C0.455299 12.7526 0.321289 12.3785 0.321289 11.9925C0.321289 11.6064 0.455299 11.2323 0.700436 10.9341L9.03377 0.934118C9.31667 0.593757 9.72319 0.379717 10.1639 0.339084C10.6046 0.298451 11.0434 0.434554 11.3838 0.717452C11.7241 1.00035 11.9382 1.40687 11.9788 1.84758C12.0194 2.28829 11.8833 2.72709 11.6004 3.06745L4.15044 12.0008L11.3504 20.9341C11.5542 21.1788 11.6837 21.4767 11.7235 21.7926C11.7633 22.1085 11.7118 22.4292 11.575 22.7167C11.4383 23.0043 11.222 23.2466 10.9518 23.4151C10.6816 23.5836 10.3688 23.6712 10.0504 23.6674Z" fill="#9B804C"/>
</svg>
