<svg width="12" height="24" viewBox="0 0 12 24" fill="none" xmlns="http://www.w3.org/2000/svg">
<path d="M1.94956 23.6674C2.19855 23.6683 2.44457 23.6133 2.66954 23.5066C2.8945 23.3999 3.0927 23.2441 3.24956 23.0508L11.2996 13.0508C11.5447 12.7526 11.6787 12.3785 11.6787 11.9925C11.6787 11.6064 11.5447 11.2323 11.2996 10.9341L2.96623 0.934118C2.68333 0.593757 2.27681 0.379717 1.8361 0.339084C1.39539 0.298451 0.956591 0.434554 0.61623 0.717452C0.275868 1.00035 0.0618286 1.40687 0.0211954 1.84758C-0.0194368 2.28829 0.116665 2.72709 0.399563 3.06745L7.84956 12.0008L0.649564 20.9341C0.445759 21.1788 0.316297 21.4767 0.276498 21.7926C0.236698 22.1085 0.288226 22.4292 0.424986 22.7167C0.561746 23.0043 0.778013 23.2466 1.0482 23.4151C1.31838 23.5836 1.63117 23.6712 1.94956 23.6674Z" fill="#9B804C"/>
</svg>
