<svg width="206" height="94" viewBox="0 0 206 94" fill="none" xmlns="http://www.w3.org/2000/svg">
<path fill-rule="evenodd" clip-rule="evenodd" d="M183.45 83.339C183.45 83.339 185.633 85.6476 185.094 86.7531C184.555 87.8586 183.656 88.3597 183.656 88.3597C183.656 88.3597 182.166 90.6002 181.807 90.7694C181.449 90.9385 180.369 90.1672 180.369 90.1672L179.754 89.7654C179.754 89.7654 179.201 90.525 178.726 91.1712C178.252 91.8173 177.196 92.0423 176.467 91.9748C175.738 91.9066 175.645 91.573 175.645 91.573C175.645 91.573 177.481 90.525 177.7 90.1672C177.918 89.8089 177.604 88.1882 176.878 86.954C176.152 85.7192 175.528 83.8483 175.235 82.9371C174.941 82.0266 173.704 80.5774 172.77 80.1257C171.836 79.674 163.314 76.5853 161.267 75.1049C159.221 73.6246 156.749 71.289 156.749 71.289C156.749 71.289 154.698 73.2375 154.284 73.6992C153.87 74.1604 152.242 75.4668 151.819 75.908C151.397 76.3491 147.608 79.6992 144.22 81.3305C140.831 82.9618 133.195 85.1148 132.512 85.3474C131.828 85.5794 124.871 87.5085 123.474 88.1588C122.078 88.8091 117.875 90.0921 117.312 90.3676C116.749 90.6437 110.978 92.2902 109.713 92.5769C108.447 92.8635 97.5798 93.4945 96.1558 93.3805C94.7324 93.2659 91.7223 93.3787 90.1992 93.3805C88.6762 93.3822 75.5972 91.7833 72.3296 90.9703C69.0619 90.1573 59.5303 86.3519 55.4871 82.9371C51.4438 79.5224 43.613 71.1439 42.9574 70.0842C42.3024 69.0245 39.6711 65.867 39.6711 65.867C39.6711 65.867 36.9696 63.4462 35.7683 62.4529C34.5677 61.4595 30.3251 58.0084 29.1958 57.8339C28.0666 57.6589 24.4952 57.0802 23.6499 57.8339C22.8052 58.587 19.1396 60.458 18.9258 60.8462C18.7121 61.234 17.2707 63.3052 16.4608 64.4613C15.6516 65.6168 13.1668 68.7883 11.3261 70.0842C9.48551 71.3806 7.38312 72.0186 6.39677 72.2935C4.86951 72.5678 3.12432 73.0942 2.28865 72.8956C1.45298 72.6977 1.57785 71.7913 2.9046 71.289C4.23135 70.7867 5.95672 70.5923 6.60208 69.4815C7.24745 68.3712 7.43415 67.617 8.0399 67.2727C8.64504 66.9279 9.88474 66.4497 9.88834 65.4652C9.89194 64.4807 8.62463 64.4049 8.86116 63.055C9.09829 61.7057 10.712 60.6653 10.0937 60.2435C9.47591 59.8224 8.42351 59.9046 8.45053 58.6369C8.47754 57.3698 9.94177 56.1333 10.0937 55.4237C10.2461 54.7141 10.299 54.2189 10.299 54.2189L11.5315 52.8131C11.5315 52.8131 10.4911 52.1194 10.5043 51.4074C10.5175 50.6949 10.299 50.8047 10.299 50.8047C10.299 50.8047 8.90618 51.2147 8.65584 51.0056C8.4061 50.7965 7.83458 50.8047 7.83458 50.8047C7.83458 50.8047 7.22283 50.6032 7.01272 50.202C6.8026 49.8008 6.22507 49.2715 5.78022 49.5999C5.33597 49.9283 3.62981 51.0591 2.9046 51.2065C2.17939 51.354 1.06516 51.344 0.645525 51.2065C0.225288 51.0685 -0.193148 50.4857 0.440209 50.4029C1.07297 50.3201 2.07613 49.7256 3.93178 48.1942C5.78743 46.6622 9.69623 45.2717 11.7368 44.5791C13.7779 43.886 17.6939 43.9365 19.1312 44.1773C20.5684 44.4182 22.3087 45.8433 23.4446 46.1857C24.5804 46.5282 28.7144 48.156 29.1958 48.3945C29.6773 48.6336 35.3577 52.2104 35.3577 52.2104C35.3577 52.2104 43.9576 56.6714 44.8064 57.4321C45.6547 58.1928 48.3827 60.6424 49.1199 61.6493C49.8565 62.6567 52.8522 66.9596 53.4327 67.2727C54.0138 67.5853 55.0764 67.6745 55.0764 67.6745C55.0764 67.6745 56.121 68.2408 57.1302 68.4776C58.1394 68.7143 59.3917 67.8126 61.8542 68.6785C64.3168 69.5443 66.1983 70.4384 67.6055 70.486C69.0127 70.533 72.0708 69.0938 72.3296 69.0803C72.5889 69.0667 74.1258 67.4249 74.7945 67.4736C75.4633 67.5218 77.5213 67.7204 78.2861 67.4736C79.0509 67.2263 79.8008 66.2447 79.3133 65.6661C78.8258 65.0875 78.3774 64.5788 78.9027 63.8586C79.4274 63.1384 81.7543 62.7431 82.8049 63.055C83.8561 63.3669 86.1379 64.0284 87.5295 63.6577C88.9211 63.2876 90.042 62.0804 88.7614 61.0471C87.4809 60.0133 87.3788 56.2238 89.5833 56.0264C91.7871 55.829 90.7588 54.6829 89.7886 54.018C88.8185 53.353 86.6644 53.84 86.0917 54.018C85.5184 54.1959 83.8266 53.9363 83.4214 53.014C83.0156 52.0912 83.1236 51.0503 85.4752 51.2065C87.8267 51.3628 91.6863 50.7254 93.0749 49.8008C94.4641 48.8756 104.614 47.7195 108.069 48.1942C111.524 48.6682 114.18 49.849 115.669 50.202C117.157 50.5556 118.559 50.2854 118.545 49.399C118.53 48.512 120.964 48.6189 123.064 49.399C125.163 50.1791 131.126 53.3083 133.539 54.018C135.951 54.7276 137.639 54.3869 139.084 53.8171C140.53 53.2472 142.494 53.0651 142.987 52.6122C143.48 52.1593 143.426 50.7947 143.603 50.0011C143.78 49.2081 144.7 47.2666 144.63 46.5876C144.561 45.9079 145.445 41.5633 147.3 39.1566C149.156 36.7504 150.734 35.1103 153.257 34.9394C155.78 34.7685 157.979 35.2419 158.598 35.3412C159.215 35.4399 162.089 34.7385 162.089 34.7385L162.295 33.3328C162.295 33.3328 160.82 31.5241 160.651 30.1195C160.483 28.715 160.446 26.1027 160.446 26.1027C160.446 26.1027 160.342 27.2429 159.214 28.1111C158.085 28.9793 158.381 29.3065 158.598 29.5168C158.814 29.7277 158.819 30.6664 157.981 29.9186C157.143 29.1702 157.147 28.8871 157.16 28.312C157.172 27.7369 155.978 27.4544 155.722 27.9102C155.466 28.366 155.982 29.9991 156.133 30.5213C156.283 31.043 155.838 31.3326 154.9 31.5252C153.962 31.7179 151.833 30.8115 153.462 30.7216C155.092 30.6324 154.107 30.321 153.462 29.9186C152.818 29.5162 152.115 28.7361 152.025 28.1111C152.025 28.1111 151.9 29.3418 150.381 29.7177C148.863 30.0937 148.341 29.4193 147.916 29.3159C147.492 29.2131 148.259 28.7537 149.149 28.9147C150.039 29.0751 149.795 28.4201 148.738 28.312C147.682 28.2039 147.045 28.5059 146.684 27.9102C146.324 27.3145 147.908 28.1963 147.711 27.7093C147.514 27.2229 146.95 25.9881 147.3 25.7015C147.65 25.4142 146.433 25.1528 145.657 25.7015C144.882 26.2495 145.239 26.9991 144.63 27.3081C144.021 27.6165 142.726 28.6533 141.139 28.5129C139.551 28.3725 140.434 27.7675 139.29 27.5084C138.146 27.2493 138.177 26.5803 139.29 26.9063C140.403 27.2323 138.573 26.5667 138.058 26.1027C137.541 25.6392 137.289 23.9427 135.593 23.8939C133.896 23.8446 133.307 23.6537 132.306 23.4921C131.306 23.3306 131.661 23.2301 130.458 23.0903C129.254 22.9505 128.462 22.601 130.869 22.6885C133.275 22.7761 133.808 23.0357 135.387 22.6885C136.967 22.3419 134.517 21.3063 133.539 21.2828C132.56 21.2599 128.037 21.4455 126.555 21.0819C125.074 20.7183 123.621 20.4187 125.528 20.4798C127.435 20.5409 131.78 20.7635 133.128 20.4798C134.475 20.1955 133.695 19.3132 132.922 18.8732C132.15 18.4326 131.232 18.1265 130.047 18.2705C128.862 18.4144 127.506 17.7271 126.966 17.0656C126.425 16.4042 125.48 16.6762 124.295 16.6638C123.112 16.6515 122.217 16.8518 121.215 16.0611C120.212 15.271 119.394 14.5068 120.599 15.0572C121.803 15.6076 122.384 15.6494 123.885 15.6599C125.386 15.6699 122.722 14.5585 121.42 14.2542C120.118 13.9493 118.828 13.823 117.928 14.0533C117.028 14.283 114.258 14.0827 116.285 13.6515C118.312 13.2203 122.383 13.648 121.215 13.2497C120.046 12.8514 117.547 11.9826 115.875 11.844C114.201 11.7053 112.35 11.075 114.025 11.041C115.702 11.0063 116.172 11.5826 117.723 11.844C119.274 12.1054 121.874 11.5573 120.393 11.4422C118.913 11.3276 117.856 11.5403 116.901 10.8401C115.946 10.1398 115.693 9.31627 114.437 9.63465C113.181 9.95363 112.918 10.9194 111.972 11.041C111.026 11.162 110.548 11.3476 111.561 10.6392C112.573 9.93013 113.814 8.85279 115.258 9.03254C116.702 9.21171 116.733 10.0882 117.928 10.2374C119.124 10.3872 121.016 10.3284 121.831 10.0365C122.646 9.7445 124.295 10.2332 124.707 10.4383C125.118 10.6433 124.259 9.9084 123.269 9.03254C122.278 8.15668 121.267 5.88098 122.652 5.41749C124.037 4.95401 126.25 5.263 126.555 5.81929C126.86 6.37559 126.128 7.68497 125.528 7.42592C124.929 7.16627 124.707 6.62231 124.707 6.62231C124.707 6.62231 124.201 7.73549 125.323 8.02803C126.444 8.32057 129.32 8.4457 130.663 8.02803C132.006 7.61096 131.411 7.06347 133.334 7.22502C135.256 7.38656 136.415 7.82772 136.415 7.82772L138.263 8.02803C138.263 8.02803 137.063 7.61096 136.003 6.82321C134.944 6.03547 135.261 6.01843 136.003 6.2211C136.746 6.42317 137.989 6.78503 139.084 6.62231C140.18 6.45959 139.74 6.33917 138.468 5.81929C137.197 5.29942 137.618 5.07091 138.468 5.21659C139.318 5.36227 138.821 5.10909 140.522 4.21267C142.223 3.31625 143.595 3.1036 144.63 4.21267C145.665 5.32174 145.995 5.14845 146.89 4.81479C147.785 4.48172 151.419 2.17723 152.846 3.40907C154.273 4.6415 156.057 5.50561 157.16 6.0202C158.263 6.5342 157.343 4.4171 159.214 3.60997C161.084 2.80343 162.828 0.997667 165.375 1.60154C167.923 2.20601 168.933 2.83926 169.689 3.20817C170.445 3.57766 170.99 2.66538 169.484 1.80245C167.977 0.940098 168.169 1.31488 167.43 1.20033C166.69 1.08519 165.838 0.444894 167.019 0.597626C168.199 0.750358 168.856 0.644033 170.511 1.40123C172.165 2.15784 174.044 1.65911 176.056 2.20425C178.068 2.74938 180.76 2.66773 182.219 4.41357C183.676 6.15942 183.656 7.82772 183.656 7.82772C183.656 7.82772 186.439 6.1647 188.586 7.42592C190.733 8.68713 191.006 9.86904 191.667 10.6392C192.328 11.4087 192.862 12.1835 192.694 13.0488C192.526 13.9141 192.208 14.4915 191.256 14.6554C190.305 14.8199 189.181 15.0308 188.996 15.2581C188.812 15.4855 189.873 15.9008 191.256 16.0611C192.639 16.2221 194.198 17.7565 193.926 19.0741C193.654 20.3911 192.658 20.0216 193.104 20.881C193.551 21.741 194.397 23.0375 194.337 23.693C194.277 24.348 194.62 26.76 193.926 27.9102C193.232 29.061 192.281 29.3194 191.667 29.9186C191.052 30.5178 190.836 31.3208 190.845 31.5252C190.854 31.7291 192.173 30.6277 192.283 31.7261C192.393 32.8241 191.941 34.614 190.845 34.5376C189.749 34.4612 188.175 33.9349 188.175 33.9349L187.559 33.3328C187.559 33.3328 186.404 35.5209 185.71 35.9433C185.016 36.3663 184.272 35.7424 184.272 35.7424C184.272 35.7424 186.238 34.7679 184.888 34.9394C183.539 35.1109 183.686 36.0866 182.219 36.1442C180.751 36.2018 183.65 34.5758 182.219 34.9394C180.786 35.303 179.754 35.5415 179.754 35.5415C179.754 35.5415 178.965 35.1297 179.138 35.7424C179.309 36.3557 178.195 35.1879 178.11 34.9394C178.026 34.6903 178.101 35.2443 177.494 35.7424C176.887 36.2411 175.877 36.6835 175.851 37.1481C175.825 37.6134 178.675 38.3582 179.138 38.5544C179.6 38.7501 183.336 38.1656 186.737 40.3614C190.138 42.5578 189.782 43.4824 192.077 44.78C194.372 46.0777 200.596 47.3054 202.142 48.3945C203.688 49.4842 204.19 51.7939 205.018 52.8131C205.845 53.8323 205.678 55.2463 202.347 56.6285C199.017 58.0113 195.303 58.9859 193.104 58.8378C190.906 58.6898 188.996 57.633 188.996 57.633C188.996 57.633 187.957 58.036 187.969 58.2351C187.982 58.4348 187.836 60.9179 186.943 62.6538C186.049 64.389 184.396 64.8707 184.067 66.0679C183.738 67.2645 183.667 68.1233 183.45 68.2767C183.235 68.4306 181.816 67.6828 182.629 65.6661C183.442 63.6489 183.709 63.146 183.245 63.4568C182.782 63.7681 181.56 64.7262 181.397 66.2682C181.233 67.8102 180.698 68.4593 179.959 68.6785C179.22 68.8976 178.989 68.7196 178.932 67.6745C178.875 66.6289 177.469 65.3366 177.289 64.4613C177.108 63.5854 177.995 61.4337 179.343 60.2435C180.69 59.0534 180.949 57.6136 181.602 57.0303C182.255 56.4476 184.525 52.6545 185.299 52.2104C186.073 51.7663 182.495 51.7793 181.191 51.6077C179.887 51.4368 178.726 50.8047 178.726 50.8047H178.316C178.316 50.8047 176.869 55.3138 176.056 56.6285C175.244 57.9438 172.457 59.3213 171.743 59.6414C171.029 59.961 169.073 61.0471 169.073 61.0471L165.375 65.0634C165.375 65.0634 171.012 67.6393 172.154 69.0803C173.295 70.5206 176.166 74.2902 177.494 75.5068C178.822 76.7233 180.857 78.7088 181.397 79.9248C181.936 81.1408 183.45 83.339 183.45 83.339Z" fill="#265471"/>
</svg>
