<svg width="34" height="66" viewBox="0 0 34 66" fill="none" xmlns="http://www.w3.org/2000/svg">
<path d="M15.112 12.7936C15.4259 10.5959 15.9924 0 16.9172 0C17.842 0 18.4085 10.5959 18.7225 12.7936C18.7617 13.0683 18.8218 13.4718 18.8958 13.9689C19.4141 17.4489 20.616 25.5185 20.1353 26.1366C19.5858 26.843 19.1934 27.9418 19.1934 29.1977C19.1934 29.4222 19.1909 30.239 19.1872 31.4344C19.1703 36.9244 19.1289 50.4009 19.1934 51.1744C19.2719 52.1162 19.7428 55.2558 20.1353 55.2558C20.5277 55.2558 22.0975 55.0988 24.2166 53.9215C26.3358 52.7441 29.1614 49.2907 29.9463 46.4651C30.7312 43.6395 30.9666 20.3285 30.9666 16.4041C30.9666 12.4796 31.5161 13.5 31.673 14.7558C31.7197 15.1294 31.7875 15.8034 31.8678 16.6027C32.0576 18.4906 32.3177 21.0773 32.5364 22.0552C32.6118 22.3925 32.7324 22.7919 32.8602 23.2151C33.2257 24.426 33.6499 25.8311 33.2428 26.5291C32.6934 27.4709 32.5364 29.3546 32.5364 30.218C32.5364 30.4568 32.6567 31.363 32.8241 32.6236C33.2619 35.921 34.0217 41.6435 33.7922 44.1889C32.8254 54.9151 27.7407 57.5073 20.7686 61.0616L20.6691 61.1123C19.0556 61.9349 18.5393 64.5697 18.4085 65.9302H15.4259C15.2951 64.5697 14.7789 61.9349 13.1653 61.1123L13.0659 61.0616C6.09376 57.5073 1.00907 54.9151 0.0422384 44.1889C-0.187202 41.6435 0.572563 35.921 1.01037 32.6236C1.17774 31.363 1.29805 30.4568 1.29805 30.218C1.29805 29.3546 1.14107 27.4709 0.591656 26.5291C0.184534 25.8311 0.60873 24.426 0.974267 23.2151C1.10203 22.7919 1.22262 22.3925 1.29805 22.0552C1.51678 21.0773 1.77682 18.4906 1.96661 16.6027C2.04697 15.8034 2.11473 15.1294 2.16142 14.7558C2.3184 13.5 2.86782 12.4796 2.86782 16.4041C2.86782 20.3285 3.10328 43.6395 3.88816 46.4651C4.67305 49.2907 7.49863 52.7441 9.61781 53.9215C11.737 55.0988 13.3068 55.2558 13.6992 55.2558C14.0916 55.2558 14.5626 52.1162 14.6411 51.1744C14.7055 50.4009 14.6641 36.9244 14.6472 31.4344C14.6436 30.239 14.6411 29.4222 14.6411 29.1977C14.6411 27.9418 14.2486 26.843 13.6992 26.1366C13.2185 25.5185 14.4203 17.4489 14.9386 13.9689C15.0127 13.4718 15.0727 13.0683 15.112 12.7936Z" fill="#FDFFFF"/>
</svg>
