<svg width="34" height="46" viewBox="0 0 34 46" fill="none" xmlns="http://www.w3.org/2000/svg">
<path fill-rule="evenodd" clip-rule="evenodd" d="M2.46 6.745C2.825 6.1075 3.53 5.12 4.41 4.31C5.3175 3.47375 6.22 3 7 3H15.75V10.5H10.75C10.087 10.5 9.45108 10.7634 8.98223 11.2322C8.51339 11.7011 8.25 12.337 8.25 13V16.75H7C5.3424 16.75 3.75269 17.4085 2.58058 18.5806C1.40848 19.7527 0.750001 21.3424 0.750001 23V43C0.750001 43.663 1.01339 44.2989 1.48223 44.7678C1.95108 45.2366 2.58696 45.5 3.25 45.5H30.75C31.413 45.5 32.0489 45.2366 32.5178 44.7678C32.9866 44.2989 33.25 43.663 33.25 43V23C33.25 21.3424 32.5915 19.7527 31.4194 18.5806C30.2473 17.4085 28.6576 16.75 27 16.75H25.75V13C25.75 12.337 25.4866 11.7011 25.0178 11.2322C24.5489 10.7634 23.913 10.5 23.25 10.5H18.25V3H28.25V0.5H7C5.28 0.5 3.7875 1.48375 2.715 2.47125C1.615 3.48375 0.758751 4.68375 0.290001 5.505L2.46 6.745ZM9.5 29.25H15.75V23H18.25V29.25H24.5V31.75H18.25V38H15.75V31.75H9.5V29.25Z" fill="#74896F"/>
</svg>
