<svg width="461" height="461" viewBox="0 0 461 461" fill="none" xmlns="http://www.w3.org/2000/svg">
<path d="M436.573 248.186C436.594 248.91 437.253 249.208 437.975 249.229C438.548 249.25 438.952 249.016 438.888 248.356C438.803 247.632 438.294 247.525 437.678 247.525C437.253 247.632 436.552 247.547 436.573 248.186Z" fill="#F6EBFF"/>
<path d="M439.355 255.469C439.44 256.044 439.674 256.512 440.311 256.598C440.693 256.576 440.969 256.363 440.842 256.023C440.693 255.49 440.396 254.979 439.801 254.851C439.461 254.787 439.313 255.15 439.355 255.469Z" fill="#F6EBFF"/>
<path d="M29.5226 341.356C29.2253 342.123 29.9686 342.57 30.4784 342.847C31.8802 343.571 32.6873 344.572 32.9634 346.127C33.1758 347.192 33.6855 348.193 34.7475 348.725C34.9811 348.853 35.1935 348.959 35.4271 348.81C35.6608 348.64 35.6608 348.363 35.5546 348.129C34.8749 346.936 34.8749 345.488 33.8979 344.338C33.2183 343.571 32.4749 342.762 32.3899 341.548C32.3687 340.888 31.4979 340.526 30.8819 340.27C30.2023 340.377 29.735 340.824 29.5226 341.356Z" fill="#F6EBFF"/>
<path d="M45.3466 355.244C45.6652 356.905 46.2387 358.587 47.1307 359.929C47.9378 361.207 49.2759 362.037 47.9378 363.357C47.8529 364.337 48.1502 364.976 48.5538 365.423C50.0618 367.042 50.5715 369.001 50.8476 371.088C50.9963 372.195 51.5273 373.026 52.5468 373.558C52.9928 373.793 53.5238 374.027 53.5238 374.581C53.5238 376.093 54.4158 376.795 55.6902 377.413C56.8159 377.988 58.0053 378.244 59.1734 378.627C59.9168 378.861 60.7876 379.053 61.1274 379.841C61.4885 380.607 62.0832 381.097 62.7628 381.502C63.3575 381.864 63.7823 382.396 64.1646 382.993C64.9717 384.164 65.2691 385.782 66.9045 386.294C67.3293 386.443 67.2868 387.039 67.3718 387.486C67.7328 389.296 70.0054 390.766 71.6196 390.255C71.8957 390.169 72.278 390.191 72.3417 389.829C72.4267 389.382 72.0232 389.254 71.7258 389.105C71.0462 388.807 70.2178 388.679 70.0691 387.827C69.9417 387.06 69.347 386.719 68.901 386.208C67.393 384.483 65.1841 383.142 65.1204 380.437C65.1204 379.99 64.8231 379.33 64.462 379.159C62.8266 378.286 62.5292 376.476 61.4672 375.219C59.4708 372.962 58.5362 369.768 55.4353 368.49C55.1167 368.362 54.8406 368.021 54.8618 367.659C55.0955 366.083 54.0972 364.912 53.3963 363.698C52.2919 361.696 51.5273 359.524 49.5095 358.012C48.3414 357.139 47.2157 356.01 46.3024 354.796C46.09 354.498 46.1325 353.881 45.5803 354.051C45.0493 354.264 45.2617 354.818 45.3466 355.244Z" fill="#F6EBFF"/>
<path d="M127.053 416.023C127.032 416.449 127.329 416.64 127.711 416.598C128.242 416.534 128.837 416.427 128.879 415.725C128.943 415.256 128.731 414.851 128.072 414.766C127.584 415.022 127.117 415.363 127.053 416.023Z" fill="#F6EBFF"/>
<path d="M253.044 30.2385C252.832 29.4293 251.982 28.9182 251.196 28.7691C250.58 28.6413 250.623 29.4293 250.601 29.5357C250.474 30.8561 250.984 31.2607 251.876 31.2394C252.577 31.2607 253.235 30.8348 253.044 30.2385Z" fill="#F6EBFF"/>
<path d="M126.374 27.087C126.523 26.3416 126.353 25.6601 125.567 25.3833C125.057 25.2129 124.526 25.2129 124.165 25.149C123.57 25.1703 123.146 25.1703 122.763 25.2342C122.254 25.2981 121.744 25.362 121.574 25.9157C121.404 26.4481 121.871 26.6823 122.105 27.0444C122.87 28.0666 124.038 27.9175 125.078 28.024C125.801 28.0879 126.225 27.7258 126.374 27.087Z" fill="#F6EBFF"/>
<path d="M243.635 27.0888C243.614 26.7054 243.359 26.4073 242.977 26.4286C242.446 26.5138 242.169 26.9397 242.084 27.4508C242.148 27.8767 242.361 28.1323 242.764 28.0684C243.338 28.0045 243.656 27.6425 243.635 27.0888Z" fill="#F6EBFF"/>
<path d="M248.648 24.9583C248.712 24.4898 248.33 24.4472 247.905 24.4898C247.522 24.6602 246.8 24.4685 246.737 25.1074C246.673 25.5759 247.161 25.725 247.565 25.725C248.096 25.7463 248.606 25.5546 248.648 24.9583Z" fill="#F6EBFF"/>
<path d="M129.283 419.727C129.347 420.557 131.662 422.815 132.469 422.857C132.936 422.857 133.234 422.708 133.064 422.133C132.852 421.558 130.388 419.28 129.836 419.216C129.453 419.237 129.262 419.344 129.283 419.727Z" fill="#F6EBFF"/>
<path d="M134.296 424.647C134.083 425.222 134.444 425.712 134.805 426.117C135.485 426.841 136.292 427.394 136.887 428.182C137.503 428.992 138.31 428.949 139.138 429.077C139.584 429.141 140.094 428.864 139.797 428.417C138.777 426.862 137.715 425.35 136.377 424.03C136.292 423.902 136.016 423.944 135.782 423.902C135.294 424.136 134.572 423.966 134.296 424.647Z" fill="#F6EBFF"/>
<path d="M147.783 433.996C147.635 434.465 148.166 434.806 148.548 434.912C149.376 435.21 150.12 435.657 150.906 436.105C151.67 436.552 152.541 436.275 153.284 435.828C153.879 435.466 153.879 435.082 153.199 434.784C151.861 434.209 150.438 433.89 148.93 433.656C148.569 433.847 147.932 433.443 147.783 433.996Z" fill="#F6EBFF"/>
<path d="M161.397 442.174C161.695 442.259 161.971 442.387 162.268 442.408C163.585 442.536 164.371 443.728 165.539 444.026C167.344 444.474 169.256 444.388 171.061 444.9C171.38 444.985 171.804 445.027 171.953 444.601C172.123 444.133 171.783 443.792 171.422 443.707C170.445 443.473 169.574 442.962 168.81 442.344C166.558 440.555 164.201 439.597 161.333 440.725C160.76 440.96 160.229 440.555 159.698 440.257C158.636 439.639 157.68 438.702 156.045 438.383C158.318 441.237 158.318 441.237 161.397 442.174Z" fill="#F6EBFF"/>
<path d="M179.026 445.836C179.854 446.56 180.937 446.518 181.914 446.752C182.212 446.667 182.679 446.773 182.785 446.369C182.87 445.858 182.403 445.708 182.02 445.687C181.065 445.559 180.109 445.24 179.132 445.474C179.047 445.474 178.962 445.794 179.026 445.836Z" fill="#F6EBFF"/>
<path d="M425.614 165.237C425.677 165.599 425.826 165.961 426.23 165.854C426.697 165.726 426.739 165.322 426.654 164.896C426.591 164.576 426.442 164.278 425.975 164.236C425.571 164.47 425.55 164.853 425.614 165.237Z" fill="#F6EBFF"/>
<path d="M365.357 24.2567C365.655 25.1724 365.973 26.1095 366.377 27.0039C366.547 27.366 366.887 27.8771 367.396 27.5363C367.906 27.2169 367.821 26.6419 367.481 26.216C366.908 25.5345 366.419 24.8104 366.164 23.9586C366.101 23.7243 365.995 23.5113 365.655 23.5113C365.294 23.6178 365.272 23.9798 365.357 24.2567Z" fill="#F6EBFF"/>
<path d="M425.614 173.159C425.677 173.756 425.741 174.437 426.57 174.331C427.44 174.203 427.929 173.607 427.971 172.712C427.971 172.031 427.674 171.541 426.931 171.583C425.911 171.583 425.614 172.265 425.614 173.159Z" fill="#F6EBFF"/>
<path d="M272.925 32.3265C272.564 32.9015 272.564 33.4339 273.074 33.945C273.583 34.4562 274.093 34.52 274.645 34.0302C275.028 33.7108 275.389 33.3487 275.92 33.3062C276.578 33.3062 277.534 32.9441 277.619 33.9025C277.704 34.7117 276.791 34.6691 276.153 34.733C275.792 34.7543 275.474 34.7969 275.134 34.8821C274.773 34.9673 274.56 35.2654 274.518 35.6275C274.454 36.0747 274.667 36.3941 275.028 36.6071C275.452 36.8839 275.941 36.8839 276.429 36.8839C278.129 37.033 279.254 35.8191 280.529 35.0738C281.187 34.6904 280.953 33.8599 280.295 33.3061C279.573 32.7099 278.83 32.1136 278.129 31.5173C276.472 30.0904 274.051 30.4525 272.925 32.3265Z" fill="#F6EBFF"/>
<path d="M0 461L461 461L461 -3.06414e-05L-2.0151e-05 -1.04904e-05L0 461ZM3.49097 237.778C2.80983 236.668 3.81025 235.921 4.10824 235.025C4.3211 234.406 4.87452 234.043 5.61951 233.957C6.57735 234.128 6.81149 234.833 6.42836 235.601C6.0665 236.327 5.70465 237.01 5.38537 237.714C5.02352 238.589 4.00182 238.589 3.49097 237.778ZM36.1002 357.958C35.7384 357.937 35.3553 357.745 35.4404 357.339C35.5255 356.805 36.0151 356.891 36.3982 356.955C36.7175 357.04 37.0794 357.126 37.1219 357.574C36.9091 358.022 36.4834 358.022 36.1002 357.958ZM77.0321 409.5C77.9261 409.564 78.4583 409.97 78.437 410.781C78.3731 411.656 78.0113 412.574 76.9683 412.488C76.0104 412.403 74.7972 411.869 74.7972 410.845C74.8184 409.564 76.2659 409.863 77.0321 409.5ZM71.6044 412.531C70.7955 412.467 70.3911 411.997 70.1782 411.314C70.1995 410.866 70.4762 410.653 70.7742 410.781C71.4554 411.101 72.4132 411.208 72.5409 412.125C72.5835 412.595 71.9449 412.595 71.6044 412.531ZM81.0551 417.077C80.3101 416.714 79.5864 416.501 78.7988 416.458C78.4157 416.437 77.99 416.33 77.6281 416.223C76.947 415.946 76.2871 415.476 76.2871 414.751C76.3084 413.876 77.245 413.982 77.7984 413.982C79.2884 413.961 80.7358 414.068 82.2258 414.196C83.2049 414.26 83.2049 415.028 83.1836 415.754C83.1836 417.376 82.5451 417.824 81.0551 417.077ZM339.12 388.03C339.098 388.499 338.587 388.542 338.204 388.499C337.736 388.478 337.097 388.478 337.14 387.816C337.161 387.283 337.672 387.368 338.098 387.347C338.524 387.432 339.141 387.347 339.12 388.03ZM451.273 304.324C451.294 304.687 451.038 304.836 450.698 304.858C450.336 304.879 450.038 304.772 449.953 304.345C449.953 303.961 450.23 303.833 450.528 303.812C450.889 303.79 451.251 303.876 451.273 304.324ZM457.85 296.534C458.467 296.769 458.808 297.345 458.957 297.964C459.02 298.241 458.808 298.433 458.51 298.412C457.786 298.327 457.403 297.879 457.296 297.302C457.318 296.79 457.467 296.385 457.85 296.534ZM453.635 287.805C453.699 288.338 453.252 288.402 452.826 288.402C452.464 288.402 452.081 288.338 452.081 287.89C452.081 287.442 452.465 287.421 452.805 287.357C453.188 287.357 453.571 287.399 453.635 287.805ZM452.379 254.916C452.316 255.364 451.932 255.535 451.507 255.535C451.124 255.535 450.847 255.385 450.783 254.937C450.911 254.468 451.294 254.361 451.677 254.34C452.081 254.318 452.401 254.489 452.379 254.916ZM453.06 242.132C452.89 242.601 452.486 242.751 452.018 242.729C451.72 242.665 451.549 242.58 451.549 242.26C451.719 241.79 452.145 241.662 452.592 241.641C452.933 241.598 453.188 241.769 453.06 242.132ZM451.251 237.799C451.847 238.61 450.868 239.016 450.421 239.592C449.229 241.086 447.569 241.619 445.802 241.961C445.568 241.982 445.206 242.046 445.121 241.94C444.312 241.107 443.631 240.147 443.333 239.25C443.312 238.717 443.333 238.482 443.61 238.333C443.886 238.183 444.057 238.354 444.27 238.503C445.972 239.72 447.462 239.699 449.101 238.354C449.187 238.29 449.25 238.205 449.336 238.183C449.974 237.991 450.613 236.967 451.251 237.799ZM438.586 197.888C438.799 198.806 438.267 199.382 437.48 199.767C436.713 200.129 436.139 200.642 436.202 201.581C436.224 201.88 436.224 202.2 435.883 202.328C435.457 202.456 435.223 202.157 435.01 201.88C434.712 201.517 434.585 201.111 434.542 200.663C434.478 199.916 434.414 199.19 433.818 198.593C433.457 198.145 433.584 197.867 434.287 197.782C435.479 198.465 436.586 198.209 437.671 197.248C438.139 196.864 438.501 197.419 438.586 197.888ZM435.649 193.492C435.649 193.94 435.436 194.26 434.968 194.324C434.691 194.346 434.436 194.196 434.457 193.94C434.457 193.428 434.755 193.065 435.223 193.022C435.5 192.958 435.606 193.236 435.649 193.492ZM433.031 175.799C434.393 176.162 434.691 177.079 434.393 178.637C434.329 178.872 434.265 179.406 434.819 179.811C435.181 180.11 435.734 180.388 435.436 180.985C435.202 181.497 434.691 181.583 434.159 181.583C433.542 181.604 432.946 181.497 432.669 180.836C432.52 180.473 432.52 180.067 432.456 179.662C432.286 178.445 431.733 178.083 430.668 178.595C430.243 178.766 429.838 179.363 429.391 178.744C429.008 178.232 429.093 177.613 429.327 177.037C429.753 176.034 431.69 175.479 433.031 175.799ZM386.033 35.7488C386.352 36.1757 386.778 36.7092 386.182 37.1788C385.671 37.5629 385.139 37.3282 384.692 36.9653C384.394 36.7306 384.16 36.3464 383.819 36.1544C382.989 35.7275 382.201 35.8342 381.605 36.6666C381.371 36.9867 381.073 37.3495 380.647 36.9653C380.328 36.6879 380.435 36.3038 380.711 36.0476C381.371 35.4714 380.86 35.1299 380.541 34.6817C379.86 33.8493 380.243 33.4652 381.116 33.3585C383.18 33.3585 384.819 34.1695 386.033 35.7488ZM307.17 6.01859C307.617 4.67401 308.809 4.39657 310.15 5.03685C311.555 5.65578 312.917 6.70156 314.577 5.69846C315.003 5.421 315.45 5.78382 315.642 6.23202C316.11 7.14975 316.855 7.21376 317.643 6.70154C318.835 5.93321 319.75 6.10401 320.559 7.27785C320.729 7.51262 320.984 7.70467 321.176 7.89675C321.474 8.17421 321.772 8.47303 322.219 8.34498C322.751 8.19558 322.836 7.72604 322.815 7.27785C322.794 6.01864 323.241 5.91193 324.369 6.31744C325.412 6.7016 326.029 7.51255 326.817 8.19552C327.774 9.00654 328.285 8.92118 328.541 7.726C328.711 6.95766 329.201 6.76557 329.818 6.80825C330.499 6.82959 331.18 6.93631 331.883 7.02168C332.798 7.14973 333.585 7.0217 333.82 5.91188C333.883 5.59174 333.99 5.18627 334.437 5.18627C334.905 5.18627 335.118 5.57038 335.203 5.95455C335.373 6.70154 335.799 7.17114 336.544 7.38456C337.353 7.61933 337.353 8.30226 337.374 8.96388C337.459 10.095 338.055 10.6713 339.226 10.6286C340.035 10.6073 340.801 10.6499 341.61 10.6499C342.738 10.6499 343.611 9.88158 343.568 8.72908C343.547 7.91806 343.355 7.14973 342.227 7.66195C341.61 7.93941 341.014 8.02482 340.801 7.21381C340.631 6.48816 341.099 6.03992 341.759 5.95455C342.653 5.82649 343.398 5.5704 343.76 4.63133C343.845 4.39656 344.079 4.24716 344.356 4.31119C344.633 4.39656 344.654 4.63134 344.718 4.9088C345.101 6.57352 346.08 7.14978 347.804 6.68024C348.698 6.40279 349.379 6.50951 349.017 7.7047C348.804 8.43035 349.23 8.60102 349.741 8.72908C350.784 8.9425 351.806 8.94252 352.806 8.5797C353.125 8.45164 353.466 8.25956 353.785 8.5797C354.105 8.94252 353.913 9.3267 353.807 9.71087C353.658 10.2231 353.338 10.5859 352.849 10.8207C352.38 11.0554 351.827 11.2902 351.529 11.7811C351.231 12.2293 350.401 12.5495 350.848 13.2538C351.316 14.3636 351.976 13.9794 352.721 13.6806C352.636 14.5557 351.678 15.1105 352.487 15.7935C353.211 16.3911 354.041 16.7539 354.935 16.1136C355.509 15.7295 356.127 15.6868 356.787 15.6014C357.084 15.5801 357.404 15.452 357.446 15.0892C357.468 14.641 357.127 14.4916 356.765 14.4703C356.02 14.4062 355.275 14.3849 354.764 13.6592C354.445 13.211 354.083 12.7415 354.53 12.1866C354.913 11.7171 355.552 11.6104 356.02 11.9092C357.063 12.5921 358.021 13.1257 359.319 12.5281C359.766 12.3146 360.128 12.8055 360.426 13.1257C360.937 13.6592 361.384 14.2568 362.15 14.4916C362.576 14.6197 362.768 15.0038 362.661 15.452C362.534 15.9216 362.193 16.135 361.767 16.0496C361.022 15.9002 360.554 16.199 360.128 16.7966C359.809 17.2661 359.298 17.1594 358.787 17.1808C357.659 17.2448 356.489 17.2448 355.595 18.1412C355.062 18.6748 355.084 19.1656 355.68 19.6352C357.191 20.8944 359.256 20.9584 360.746 19.6565C361.171 19.2937 361.554 19.4218 362.001 19.3791C362.81 19.3577 363.193 19.0162 362.512 18.2693C362.15 17.8851 361.789 17.5223 362.193 16.9887C362.576 16.5192 363.002 16.8393 363.385 17.01C364.194 17.4369 365.024 17.3088 365.854 17.1594C367.514 16.9247 368.536 17.693 368.706 19.3791C368.983 21.6414 369.089 21.7694 371.346 22.0896C371.793 22.1536 372.261 22.0682 372.559 22.5164C372.644 22.6658 372.708 22.9006 372.644 23.05C372.431 23.6262 371.963 23.4768 371.516 23.4128C371.218 23.3915 370.856 23.3488 370.856 23.7756C370.856 24.0744 371.154 24.1598 371.388 24.2025C371.857 24.2879 372.367 24.4159 372.857 24.3519C374.049 24.2025 374.666 24.9495 375.305 25.7605C375.518 26.0593 375.603 26.4221 375.326 26.7209C374.964 27.0837 374.709 26.7209 374.432 26.5075C373.517 25.6751 372.431 25.7605 371.346 26.0379C370.92 26.1233 370.579 26.3368 370.665 26.849C370.728 27.2972 371.09 27.3612 371.473 27.3185C371.835 27.2972 372.304 27.2331 372.453 27.4893C373.261 29.154 375.071 29.4314 376.39 30.4132C376.752 30.6906 377.135 31.0108 376.837 31.523C376.539 31.9925 376.092 31.9499 375.645 31.7364C375.177 31.5017 374.73 31.3736 374.219 31.6084C373.24 32.0352 372.304 32.1846 371.665 31.0108C371.495 30.712 371.197 30.6479 370.899 30.84C370.303 31.2242 370.218 31.9072 369.983 32.5047C369.834 32.8889 370.111 33.2518 370.452 33.2731C371.622 33.4225 372.41 34.1908 373.219 34.9165C373.9 35.5141 374.241 35.3433 374.411 34.4896C374.688 33.2731 375.305 33.3798 376.071 34.0628C377.774 35.6208 377.433 37.4349 375.305 38.2032C374.411 38.5234 374.049 39.249 373.985 40.0173C373.9 40.7857 374.751 40.7643 375.305 40.9778C377.114 41.7034 378.838 41.7461 380.477 40.4442C381.435 39.6972 382.031 40.679 382.563 41.2125C383.01 41.6394 383.989 41.9808 383.457 42.8345C382.989 43.5815 382.116 43.3468 381.392 43.0053C380.115 42.429 379.221 42.4931 378.923 44.1365C378.796 44.8194 378.114 45.0969 377.519 45.353C377.093 45.5237 376.774 45.8225 377.072 46.2494C377.54 46.9324 377.838 47.8287 378.732 48.0635C379.264 48.2129 379.455 47.6366 379.626 47.2311C380.435 45.2249 381.031 44.8194 383.117 44.7554C383.415 44.7554 383.713 44.7341 384.011 44.6914C386.033 44.4139 386.756 45.1609 386.16 47.2311C385.735 48.7251 386.075 49.6002 387.225 50.774C388.715 52.2894 390.268 53.4845 392.142 54.4449C392.908 54.8291 393.781 55.5121 392.461 56.4085C391.844 56.8567 392.099 57.3262 392.482 57.8171C392.993 58.4147 393.312 59.0763 392.929 59.8446C392.716 60.2715 392.482 60.677 392.929 61.0612C393.397 61.488 393.951 61.7868 394.568 61.488C395.547 60.9758 396.782 61.3386 397.633 60.5063C397.718 60.4209 398.059 60.4209 398.165 60.5063C398.442 60.7197 398.251 60.9544 398.08 61.1252C397.484 61.8081 397.718 62.107 398.527 62.3844C399.698 62.7686 399.421 63.3661 398.676 63.9637C397.463 64.9455 395.483 64.9455 394.1 63.9637C393.227 63.3661 390.566 63.4942 389.843 64.1345C389.694 64.2839 389.524 64.4546 389.694 64.6467C389.843 64.7961 390.119 64.9455 390.311 64.9669C391.354 65.0309 392.397 65.0522 393.44 64.9882C394.653 64.9242 395.313 65.415 395.462 66.6315C395.547 67.5066 395.909 68.0615 396.931 67.7627C397.463 67.6133 397.889 67.8481 398.293 68.1469C398.655 68.4244 398.953 68.4243 399.357 68.1682C400.634 67.4426 401.422 67.7414 401.571 69.2354C401.72 70.5586 401.848 71.4763 403.487 71.8391C404.551 72.0739 405.041 73.2478 404.508 74.4643C403.827 74.3362 403.934 73.7813 403.7 73.4185C403.167 72.6502 401.337 72.4367 400.762 73.1197C400.379 73.5679 400.762 73.7813 401.124 73.8453C402.55 74.0161 402.401 75.1686 402.529 76.0863C402.614 77.0041 402.21 77.5803 401.316 77.8578C400.741 78.0285 400.4 78.5407 400.486 79.1383C400.613 79.8853 401.23 79.6506 401.677 79.5865C402.508 79.5012 403.316 79.864 404.189 79.5865C404.934 79.3731 404.913 80.0134 404.913 80.5042C404.934 82.361 405.126 82.5318 406.978 82.3611C407.339 82.3397 407.659 82.2757 407.999 82.5104C409.064 83.2574 409.723 86.6936 409.021 87.7394C408.723 88.1662 408.255 88.5504 408.638 89.0626C409 89.5748 409.447 88.9773 409.851 88.9346C410.596 88.9132 411.341 88.8065 412.086 88.9132C413.129 89.0626 413.725 89.5108 412.98 90.7274C412.214 91.9866 412.746 93.1177 414.193 93.5873C414.725 93.758 415.364 93.8647 415.449 94.4836C415.832 97.0021 418.216 97.7704 419.579 99.4351C419.791 99.6699 420.26 99.7126 420.175 100.182C420.089 100.609 419.728 100.694 419.366 100.758C418.94 100.822 418.621 100.972 418.323 101.292C417.301 102.402 416.301 102.402 415.258 101.313C414.938 100.993 414.534 100.63 414.129 101.078C413.768 101.463 414.108 101.847 414.406 102.103C415.896 103.277 417.258 104.856 419.536 104.045C420.409 103.746 420.643 104.216 420.558 104.963C420.43 105.688 420.558 106.179 421.154 106.67C422.622 107.801 422.665 108.292 421.579 109.829C420.856 110.853 419.962 111.75 419.791 113.052C419.472 115.314 419.855 115.762 422.26 115.976C423.963 116.125 424.559 116.723 424.772 118.345C424.836 118.878 424.836 119.39 424.261 119.604C423.346 119.988 423.367 120.628 423.644 121.418C424.07 122.677 423.772 124.214 425.432 124.94C425.964 125.174 425.517 125.815 425.304 126.263C425.091 126.711 424.879 127.223 425.326 127.629C425.687 127.992 426.049 127.65 426.39 127.479C427.518 126.967 427.752 128.162 428.327 128.653C428.795 129.08 429.157 129.699 428.838 130.382C428.625 130.83 428.22 130.766 427.795 130.702C427.369 130.638 426.837 130.425 426.603 130.979C426.369 131.577 426.965 131.812 427.326 132.153C427.71 132.516 428.157 132.879 428.497 133.327C428.944 133.925 428.923 134.693 428.263 135.035C427.05 135.654 426.305 136.998 424.772 137.212C423.899 137.34 423.431 137.809 424.41 138.556C424.942 138.983 424.921 139.474 424.687 140.05C424.453 140.648 424.389 141.224 424.921 141.693C425.389 142.12 425.836 141.864 426.283 141.608C426.73 141.331 427.156 141.331 427.454 141.779C427.816 142.312 428.327 142.803 427.922 143.55C427.688 143.998 427.454 144.425 427.241 144.874C427.007 145.407 427.071 145.983 427.667 146.069C428.774 146.218 429.242 147.2 430.136 147.648C430.434 147.797 430.753 148.032 430.583 148.459C430.434 148.843 430.051 148.886 429.689 148.843C428.433 148.758 427.433 148.182 426.56 147.285C426.283 146.986 426.049 146.624 425.73 146.453C424.985 146.09 424.07 145.877 423.495 146.538C422.878 147.285 423.793 147.712 424.24 148.182C424.602 148.544 424.921 148.907 425.198 149.313C425.581 149.889 426.709 150.38 426.092 151.106C425.475 151.831 425.028 153.347 423.452 152.6C423.176 152.471 422.835 152.6 422.729 152.962C422.644 153.282 422.878 153.539 423.154 153.688C423.538 153.923 423.963 154.606 424.41 154.115C425.73 152.706 427.114 153.837 428.455 153.837C428.838 153.837 429.221 154.158 429.263 154.584C429.327 155.161 428.753 155.097 428.433 155.203C428.348 155.225 428.263 155.267 428.135 155.267C427.092 155.395 426.113 155.651 426.177 156.996C426.198 157.892 427.518 158.405 428.923 158.063C429.54 157.914 430.115 157.764 430.541 158.362C431.009 159.024 430.839 159.707 430.455 160.304C430.221 160.688 429.923 161.03 429.625 161.35C429.008 162.033 429.157 162.695 429.625 163.378C430.157 164.125 430.839 164.253 431.562 163.804C432.371 163.335 433.222 163.185 434.116 163.143C434.861 163.143 435.074 163.42 434.585 164.039C434.265 164.487 433.989 164.914 433.818 165.469C433.457 166.643 433.222 167.625 434.947 167.774C435.67 167.838 435.862 168.542 435.777 169.14C435.649 169.866 435.159 169.46 434.734 169.417C433.967 169.289 432.18 170.741 431.967 171.722C431.754 172.683 431.243 173.366 430.413 173.793C429.817 174.092 429.285 174.39 429.051 175.073C428.902 175.5 428.54 175.692 428.093 175.607C426.837 175.308 426.773 176.034 426.667 177.015C426.454 178.659 426.73 179.811 428.433 180.601C429.54 181.113 429.306 182.757 428.05 183.504C426.73 184.272 425.517 185.232 424.006 185.659C423.495 185.809 422.963 186.043 423.091 186.641C423.176 187.26 423.772 187.004 424.197 187.004C424.41 187.004 424.644 186.982 424.772 187.089C426.134 188.412 427.667 188.519 429.476 188.007C430.221 187.793 430.817 187.793 431.243 186.982C431.839 185.787 433.031 185.851 434.138 185.958C434.734 186.022 434.904 186.534 434.5 186.918C433.542 187.815 433.691 188.626 434.563 189.437C434.627 189.501 434.691 189.608 434.691 189.714C434.84 190.376 432.605 193.257 431.924 193.3C430.817 193.364 429.327 192.937 429.838 195.029C429.923 195.349 429.54 195.69 429.221 195.797C427.071 196.416 428.008 198.486 427.305 199.788C427.156 200.065 427.475 200.322 427.773 200.407C428.22 200.535 428.689 200.492 429.029 200.129C429.391 199.767 429.647 199.361 429.987 198.998C430.498 198.465 431.051 198.465 431.541 199.02C432.009 199.596 431.477 199.916 431.094 200.215C429.136 201.794 429.093 201.858 430.945 203.566C431.392 203.992 431.179 204.227 430.924 204.547C430.349 205.273 429.817 205.956 428.987 206.34C428.561 206.554 428.263 206.938 428.412 207.45C428.54 207.92 428.987 207.984 429.37 207.984C431.243 207.984 432.499 209.606 434.351 209.798C435.117 209.883 435.33 210.758 434.925 211.505C434.521 212.252 434.01 211.953 433.435 211.569C432.414 210.843 430.051 211.249 429.242 212.188C429.008 212.465 428.965 212.722 429.242 212.999C429.561 213.319 430.008 213.383 430.306 213.063C431.264 212.039 431.924 212.487 432.52 213.426C432.818 213.874 433.244 213.81 433.712 213.703C435.223 213.319 436.5 213.917 437.692 214.813C438.161 215.176 438.416 215.496 437.82 215.987C437.096 216.563 437.373 217.011 438.054 217.31C438.97 217.737 439.012 218.335 438.501 219.103C438.267 219.423 438.139 219.85 438.267 220.234C438.65 221.515 438.203 222.475 437.224 223.243C436.947 223.457 436.649 223.82 436.905 224.14C437.267 224.588 437.629 224.225 437.927 223.99C438.948 223.094 440.076 223.372 441.162 223.628C441.928 223.798 442.205 224.247 441.524 224.887C440.949 225.42 440.928 225.847 441.524 226.36C442.205 226.936 442.269 227.725 441.886 228.387C441.29 229.454 441.588 230.265 442.311 231.098C443.078 231.994 442.737 232.442 441.779 232.869C440.715 233.317 439.523 233.765 440.651 235.323C440.949 235.75 440.651 236.092 440.204 236.22C439.587 236.391 439.14 236.198 438.991 235.494C438.906 235.11 439.119 234.427 438.395 234.598C437.863 234.726 437.969 235.323 438.076 235.772C438.225 236.519 438.459 237.18 439.055 237.735C439.949 238.567 440.97 239.314 441.056 240.744C441.077 241.321 441.737 241.342 442.226 241.513C443.333 241.897 444.482 242.238 444.993 243.519C445.27 244.138 445.76 244.287 446.207 243.604C446.419 243.284 446.526 242.793 447.079 242.943C447.526 243.092 447.526 243.562 447.611 243.924C447.739 244.437 447.782 245.034 447.186 245.205C446.207 245.504 445.93 246.229 445.717 247.083C445.589 247.595 445.27 248.001 444.695 248.044C443.525 248.065 443.12 248.94 442.673 249.772C442.354 250.37 442.354 250.946 442.993 251.33C443.354 251.544 443.652 251.779 443.823 252.141C444.121 252.803 444.653 252.974 445.313 252.76C445.972 252.547 446.143 251.949 446.143 251.33C446.143 250.968 446.015 250.605 446.079 250.285C446.207 249.474 446.803 249.004 447.42 249.602C448.548 250.669 449.889 250.477 451.209 250.498C451.783 250.519 452.613 250.413 452.613 251.224C452.613 252.12 451.805 252.269 451.102 252.248C450.357 252.227 449.634 252.035 448.889 252.013C448.165 251.992 447.569 252.333 447.377 253.038C447.101 253.87 447.973 253.763 448.399 254.02C448.633 254.169 448.931 254.297 449.165 254.468C449.527 254.745 449.974 254.98 449.825 255.514C449.676 256.026 449.208 256.175 448.761 256.132C447.654 256.047 446.76 256.517 445.845 257.05C445.121 257.477 444.972 258.117 445.015 258.843C445.036 259.355 445.44 259.59 445.909 259.718C446.675 259.889 447.101 259.505 447.42 258.822C447.782 258.053 448.442 257.904 449.187 258.075C449.953 258.245 450.144 258.843 450.166 259.569C450.187 259.953 450.23 260.38 450.315 260.764C450.613 262.535 450.549 262.578 448.825 262.471C448.016 262.407 447.356 262.898 447.207 263.517C447.037 264.349 447.952 264.285 448.463 264.392C449.719 264.627 450.996 264.862 452.294 264.563C452.656 264.477 453.167 264.477 453.359 264.862C453.635 265.374 453.082 265.523 452.826 265.758C452.677 265.886 452.464 265.993 452.401 266.185C452.188 266.654 451.443 266.996 451.783 267.593C452.06 268.063 452.699 267.807 453.188 267.871C453.72 267.935 454.295 267.935 454.806 268.042C455.849 268.255 456.53 268.639 455.253 269.557C454.891 269.834 454.785 270.155 454.934 270.603C455.508 272.246 454.465 273.399 453.678 274.636C453.295 275.234 452.635 275.319 451.911 275.149C451.549 275.063 450.847 275.085 451.145 275.576C451.656 276.323 451.741 277.432 452.784 277.795C454.572 278.414 453.912 280.399 454.806 281.53C455.019 281.829 454.444 282.298 453.976 282.405C453.55 282.491 453.082 282.469 452.635 282.491C452.039 282.512 451.358 282.362 451.017 283.003C450.698 283.6 451.23 284.027 451.592 284.433C452.486 285.479 451.975 286.225 451.124 286.951C450.591 287.399 449.336 286.951 449.357 287.933C449.378 288.808 450.57 288.317 451.081 288.744C451.741 289.32 452.337 290.024 453.444 290.088C452.933 290.857 452.528 291.561 452.103 292.244C451.677 292.927 451.23 293.375 450.293 292.97C449.463 292.586 449.187 293.205 449.336 293.93C449.506 294.955 450.017 295.787 450.996 296.235C451.273 296.363 451.613 296.449 451.464 296.833C451.315 297.153 450.953 297.132 450.698 297.068C449.804 296.897 448.931 296.705 448.058 296.918C447.59 297.003 447.186 297.238 447.186 297.793C447.186 298.369 447.633 298.562 448.08 298.604C448.846 298.668 449.655 298.626 450.464 298.668C451.932 298.69 452.869 299.351 452.869 300.333C452.869 301.806 452.209 302.403 450.506 302.36C449.995 302.36 449.697 302.51 449.378 302.894C447.952 304.815 447.356 304.772 446.398 302.574C445.887 301.379 444.908 300.482 444.482 299.223C444.312 298.711 443.823 298.711 443.354 298.775C442.737 298.839 442.077 298.903 441.417 298.903C440.14 298.882 439.331 298.433 439.097 296.961C438.65 294.485 437.16 292.714 434.904 291.518C433.201 290.622 432.307 288.915 431.371 287.378C430.753 286.354 429.604 285.671 429.412 284.305C429.285 283.536 428.369 283.771 427.752 284.006C426.688 284.39 425.9 285.03 425.943 286.247C425.943 286.972 426.39 287.442 427.071 287.421C429.008 287.335 429.987 287.869 429.668 290.11C429.54 291.006 429.945 291.988 429.583 293.012C429.306 293.759 429.498 294.506 430.264 294.955C431.477 295.702 432.329 296.897 433.648 297.58C435.01 298.263 435.585 300.674 434.755 302.232C434.138 303.406 434.244 304.303 435.138 305.178C435.649 305.69 436.032 306.288 436.181 306.97C436.351 307.739 436.777 308.294 437.394 308.742C438.608 309.638 439.651 313.074 439.055 314.44C438.672 315.358 437.692 315.572 436.905 315.059C435.692 314.291 434.436 313.864 433.01 313.736C431.903 313.608 431.371 312.37 430.221 312.157C429.774 312.071 430.008 311.58 430.455 311.495C431.967 311.196 431.264 310.535 430.732 309.916C430.519 309.702 430.306 309.468 430.072 309.318C429.647 309.105 429.263 308.486 428.795 308.955C428.369 309.382 428.923 309.724 429.157 310.087C429.327 310.364 429.434 310.663 429.178 310.919C428.902 311.218 428.561 311.196 428.199 311.132C427.156 310.962 425.985 309.34 425.453 308.379C423.814 305.455 423.729 301.742 421.068 299.309C420.387 298.69 419.962 297.793 419.344 297.068C418.238 295.851 417.088 294.805 415.236 294.891C414.662 294.912 409.872 290.323 409.638 289.747C409.362 289.064 409.404 288.402 409.66 287.719C410.468 285.713 410.128 283.92 408.446 282.555C407.531 281.808 406.935 280.89 406.339 279.908C405.658 278.798 405.573 277.795 406.573 276.813C407.148 276.237 407.318 275.533 406.701 274.957C405.424 273.825 405.36 272.118 404.764 270.688C404.466 269.962 404.168 269.493 403.402 269.322C401.188 268.789 399.592 267.295 398.102 265.673C397.442 264.947 396.675 264.84 395.803 264.798C394.462 264.776 393.546 264.221 392.674 263.154C391.567 261.81 390.141 260.742 388.885 259.547C388.587 259.27 388.225 259.035 388.076 258.672C386.373 255.236 383.542 252.59 381.733 249.217C381.456 248.748 381.137 248.449 380.605 248.342C380.179 248.257 379.711 247.958 379.328 248.342C378.902 248.727 379.306 249.175 379.392 249.602C379.455 249.9 379.519 250.221 379.668 250.434C380.498 251.651 380.328 252.803 379.604 254.02C379.03 255.044 378.987 256.132 379.179 257.328C379.392 258.523 379.264 259.803 379.243 261.02C379.243 261.489 378.966 261.895 378.476 262.002C378.029 262.13 377.71 261.831 377.519 261.425C377.199 260.764 376.71 260.316 375.943 260.209C375.262 260.081 375.326 259.611 375.518 259.078C375.88 258.181 375.496 257.648 374.837 256.901C373.325 255.236 371.537 253.678 371.112 251.224C371.09 251.053 371.048 250.839 371.048 250.626C371.197 247.787 370.963 247.339 368.366 246.272C367.685 245.973 367.408 245.696 367.557 244.949C367.642 244.522 367.493 244.138 367.174 243.882C365.471 242.516 365.982 240.808 366.493 239.101C366.642 238.653 367.152 238.183 366.663 237.735C365.301 236.391 365.258 234.534 364.705 232.933C364.556 232.506 364.471 232.015 364.024 231.823C362.534 231.204 362.534 229.945 362.512 228.6C362.448 225.997 361.554 225.378 359.021 225.89C356.318 226.466 356.467 226.466 356.254 229.39C356.105 231.567 355.956 233.723 357.17 235.58C358.234 237.202 358.894 239.016 360.022 240.574C360.554 241.299 360.171 241.94 360.043 242.729C359.83 244.458 359.128 245.867 358.468 247.425C357.957 248.62 358.319 250.263 359 251.608C359.766 253.08 359.234 255.898 358.021 257.093C357.148 257.925 356.233 258.651 355.254 259.334C353.892 260.252 353.828 261.66 354.956 262.855C357.574 265.566 361.065 266.676 364.492 267.721C365.471 268.02 366.259 268.298 366.557 269.344C366.982 270.709 367.876 271.435 369.324 271.67C371.324 271.99 372.453 273.527 373.368 275.106C373.985 276.173 374.794 276.877 375.965 277.176C377.284 277.496 378.37 278.371 379.711 278.542C381.563 278.777 383.436 279.054 385.011 277.624C385.245 277.411 385.628 277.304 385.969 277.304C387.97 277.304 389.928 277.304 391.929 277.368C392.461 277.368 392.972 277.667 393.099 278.137C393.568 279.844 394.717 281.381 394.462 283.28C394.44 283.643 394.334 284.091 394.675 284.262C395.803 284.924 396.314 286.332 397.378 286.887C399.464 287.997 401.018 289.448 402.21 291.518C402.933 292.735 404.232 293.589 405.424 294.357C406.552 295.125 406.935 296.064 406.339 297.281C405.892 298.199 405.977 298.924 406.509 299.799C407.233 300.973 406.786 302.638 407.872 303.641C409.894 305.562 409.958 307.696 409.127 310.236C408.468 312.242 410.405 314.803 412.341 314.974C413.682 315.102 414.342 314.376 413.619 313.331C412.81 312.135 413.257 310.705 412.49 309.532C412.192 309.062 412.554 308.507 413.023 308.315C413.619 308.016 413.746 308.614 413.938 308.998C414.385 309.916 414.853 310.812 414.917 311.922C415.002 313.245 415.364 314.44 416.492 315.444C417.684 316.489 418.195 318.09 419.387 319.285C420.6 320.48 420.217 322.572 420.664 324.237C420.792 324.685 420.345 325.112 419.94 325.005C418.663 324.642 417.684 327.033 416.513 325.539C415.705 324.493 414.747 323.981 413.725 323.511C412.001 322.764 410.149 322.294 408.255 322.252C407.68 322.252 407.127 322.252 406.892 322.913C406.68 323.49 407.041 323.874 407.467 324.173C407.935 324.535 408.361 324.984 408.51 325.581C408.787 326.627 408.531 327.374 407.339 327.523C406.147 327.673 404.955 327.737 403.806 327.908C402.082 328.142 401.507 328.825 401.507 330.554C401.507 332.283 401.443 334.054 401.379 335.783C401.358 336.765 401.06 337.512 399.89 337.64C399.017 337.725 398.761 338.451 398.549 339.219C398.038 341.161 397.782 343.253 395.952 344.597C395.632 344.832 395.59 345.323 395.59 345.707C395.569 349.314 393.972 352.046 390.95 353.946C388.395 355.589 385.671 357.019 383.01 358.449C381.201 359.409 379.37 360.114 377.412 360.54C377.242 360.562 376.986 360.668 376.88 360.775C375.411 362.632 373.155 362.931 371.133 363.678C370.558 363.891 370.175 364.147 369.813 364.724C369.153 365.791 367.876 365.748 366.769 365.983C366.344 366.068 365.726 365.983 365.492 366.26C364.747 367.178 364.066 367.925 362.959 366.708C362.874 366.623 362.534 366.644 362.385 366.73C360.064 368.053 357.361 368.224 354.977 369.376C353.487 370.102 352.21 371.169 350.55 371.681C349.677 371.959 348.592 373.047 347.953 374.136C347.336 375.181 347.357 375.203 346.442 374.2C346.016 375.032 345.676 375.907 345.867 376.761C346.293 378.618 345.271 379.685 344.015 380.666C342.994 381.435 341.716 381.862 341.163 383.185C341.078 383.356 340.737 383.569 340.567 383.548C338.864 383.42 338.098 384.444 337.523 385.853C337.246 386.536 336.565 386.813 335.905 387.112C335.331 387.347 335.012 387.774 335.884 388.072C336.565 388.307 336.927 388.798 337.097 389.438C337.268 390.121 337.821 390.484 338.375 390.847C338.822 391.146 339.332 391.423 339.694 391.807C340.077 392.234 340.652 392.682 340.312 393.365C340.014 393.963 339.396 394.048 338.758 394.091C337.864 394.091 336.97 394.091 336.076 394.155C335.629 394.176 335.054 394.091 334.735 394.838C336.076 394.923 336.842 395.585 336.991 396.951C337.076 397.634 338.013 397.57 338.694 398.125C337.204 398.274 335.948 398.552 334.756 398.893C334.309 399.042 333.926 399.213 333.883 399.768C333.862 400.302 334.181 400.686 334.607 400.793C336.48 401.113 337.693 402.436 339.013 403.631C339.226 403.845 339.609 403.951 339.588 404.25C339.503 405.531 338.758 406.64 337.949 407.473C337.289 408.134 336.225 407.985 335.352 407.323C333.99 406.342 331.904 406.406 330.499 407.345C328.86 408.476 327.498 409.714 327.732 412.04C327.817 412.915 327.881 413.449 328.839 413.619C329.456 413.747 329.903 414.132 329.946 414.836C330.031 415.86 329.477 416.33 328.477 415.967C327.413 415.583 326.327 415.156 325.284 414.708C324.475 414.345 323.645 414.345 322.815 414.388C322.347 414.388 321.644 414.153 321.495 414.687C321.41 415.007 321.857 415.583 322.113 415.946C322.581 416.565 323.156 417.141 323.666 417.76C324.39 418.656 324.56 419.702 323.943 420.662C323.347 421.58 322.517 421.943 321.261 421.836C319.09 421.623 317.132 420.428 314.854 420.727C313.811 420.876 313.066 421.025 312.768 422.349C312.406 423.971 311.512 424.419 309.724 424.141C308.66 423.992 308.171 424.205 308.171 425.401C308.171 427.876 307.426 428.709 304.893 428.922C303.467 429.05 302.36 429.157 302.445 431.035C302.509 431.91 301.679 432.081 300.934 432.059C299.976 432.038 299.06 431.931 298.103 431.974C297.294 431.974 296.464 432.145 295.995 432.87C295.378 433.831 294.527 434.3 293.441 434.386C292.185 434.514 291.589 435.666 290.546 436.157C289.929 436.456 289.205 437.118 288.694 436.99C286.098 436.413 284.459 438.099 282.884 439.487C281.777 440.468 280.649 441.301 279.371 440.853C275.881 439.657 273.624 441.77 271.155 443.542C270.942 443.691 270.73 443.862 270.495 443.862C267.792 443.99 265.621 445.441 263.407 446.764C261.853 447.725 260.215 447.042 258.639 447.277C257.831 447.405 257.022 447.277 256.851 448.344C256.83 448.557 256.553 448.877 256.426 448.877C254.191 448.728 252.339 450.798 249.998 449.923C249.274 449.646 248.061 449.262 247.699 450.201C247.337 451.118 248.38 451.695 249.125 452.207C249.295 452.335 249.508 452.442 249.721 452.57C249.508 452.932 249.21 452.932 249.04 452.804C247.763 451.929 246.294 452.207 244.932 451.908C242.399 451.374 239.993 452.271 237.524 452.143C235.609 452.079 233.842 452.762 232.054 453.423C231.394 453.658 230.777 453.85 230.564 454.704C230.394 455.472 229.755 455.302 229.244 455.024C228.372 454.555 227.52 454.64 226.647 455.003C226.371 455.131 226.073 455.28 225.775 455.237C223.157 454.96 220.709 456.155 218.155 456.219C217.41 456.241 216.643 456.305 215.941 456.049C215.047 455.686 214.174 455.366 213.387 456.219C213.323 456.283 213.174 456.347 213.11 456.305C211.343 455.344 210.045 456.433 208.683 457.265C208.448 457.414 208.065 457.436 207.81 457.35C204.809 456.326 201.701 457.436 198.678 457.03C198.615 457.03 198.593 457.03 198.529 457.03C197.912 456.966 196.954 457.116 196.912 456.347C196.89 455.387 197.87 455.28 198.614 455.387C201.233 455.814 203.829 455.173 206.405 455.216C207.874 455.237 209.172 454.192 210.726 454.384C210.854 454.405 211.109 454.17 211.109 454.021C211.173 453.701 210.939 453.445 210.641 453.338C207.576 452.079 204.617 450.414 201.105 450.926C200.658 450.99 200.19 451.097 199.785 450.948C197.252 450.051 194.549 449.987 191.952 449.454C190.547 449.176 189.185 449.283 187.823 449.454C186.759 449.603 186.248 450.499 186.12 451.481C185.992 452.442 185.822 453.509 186.865 454.17C187.291 454.448 187.844 454.597 187.759 455.216C187.631 455.835 187.014 455.792 186.588 455.963C183.991 457.094 181.607 455.814 179.202 455.237C177.946 454.939 176.691 454.725 175.413 454.619C172.668 454.405 169.986 453.936 168.049 451.631C167.474 450.948 166.793 450.67 165.941 451.161C165.516 451.396 165.069 451.31 164.622 451.14C162.089 450.115 159.471 449.368 157.257 447.704C156.98 447.49 156.682 447.319 156.363 447.191C153.021 446.082 149.956 444.438 147.019 442.603C146.508 442.283 145.976 441.941 145.38 441.984C144.401 442.005 143.677 441.685 143.123 440.853C142.655 440.106 141.953 440.084 141.186 440.49C140.271 440.959 139.462 440.874 139.079 439.721C138.951 439.401 138.781 439.038 138.419 438.996C137.057 438.868 136.631 437.737 136.269 436.776C135.354 434.364 133.481 432.892 131.353 431.675C130.693 431.312 130.075 430.907 129.543 430.395C128.649 429.562 127.84 428.922 126.606 429.968C126.01 430.48 125.414 429.882 124.839 429.37C122.817 427.556 121.476 424.974 118.815 423.843C118.198 423.565 117.772 423.181 117.389 422.626C116.772 421.666 115.835 420.961 114.792 420.449C114.026 420.065 113.473 419.553 113.132 418.678C112.451 417.184 111.217 416.138 109.535 415.903C109.088 415.839 108.62 415.818 108.343 416.266C108.066 416.778 108.194 417.312 108.641 417.611C111.153 419.318 112.877 421.751 114.75 423.992C116.474 426.084 119.028 427.129 120.582 429.306C120.88 429.733 121.263 430.075 121.412 430.523C121.859 431.654 122.583 432.444 123.711 432.913C124.158 433.084 124.882 433.34 124.371 434.087C124.009 434.663 123.775 435.41 122.796 435.005C122.264 434.77 121.668 434.621 121.221 434.194C119.646 432.7 118.028 431.248 116.453 429.754C116.091 429.434 115.708 429.306 115.282 429.136C114.856 428.986 114.388 428.837 114.175 428.41C112.621 425.401 109.407 424.013 107.3 421.58C106.044 420.086 104.171 419.19 103.32 417.333C103.085 416.864 102.639 416.65 102.128 416.501C99.6585 415.754 97.2959 415.775 94.9758 417.162C93.3368 418.144 91.5488 419.104 89.5267 418.059C89.0797 417.824 88.5475 417.675 88.6114 417.034C88.6753 416.522 89.1435 416.351 89.5692 416.223C89.8885 416.095 90.293 415.924 90.591 415.988C92.5279 416.458 94.252 415.412 96.1039 415.241C97.4661 415.113 97.8706 414.345 97.2746 413.086C96.5083 411.528 94.8693 411.357 93.4858 410.717C90.889 409.522 88.0154 408.86 85.9294 406.619C85.1632 405.787 84.0138 405.125 82.9495 404.741C80.3314 403.781 78.0113 402.201 75.308 401.518C75.159 401.497 74.9887 401.454 74.8823 401.369C73.1582 399.427 70.6891 398.573 68.6883 396.972C66.2404 395.051 64.3034 392.426 61.2809 391.295C60.8126 391.124 60.5998 390.719 60.5572 390.249C60.5359 388.926 59.8761 388.008 58.8331 387.304C58.3648 386.984 58.0668 386.493 57.9391 385.959C57.6411 384.786 57.4283 383.633 56.0234 383.249C55.8531 383.228 55.6403 382.822 55.6616 382.651C56.0234 381.179 54.9804 381.179 54.0226 380.987C52.5326 380.624 51.4683 379.663 50.9362 378.276C50.5743 377.358 50.0635 376.633 49.3185 376.014C47.7434 374.605 46.1257 373.218 46.1683 370.721C46.1895 369.44 45.5936 368.309 44.2313 367.797C43.7843 367.626 43.5076 367.221 43.465 366.751C43.1032 362.995 41.2513 359.729 39.5911 356.507C38.7822 354.927 38.2501 353.263 37.4838 351.662C37.2071 351.128 36.9517 350.531 36.2067 350.616C35.5255 350.68 35.185 351.214 34.9934 351.79C34.6954 352.473 35.1637 352.772 35.6745 353.049C36.5472 353.497 36.3344 354.159 36.0364 354.842C35.6745 355.674 35.0147 355.909 34.2271 355.717C33.397 355.504 33.0564 354.991 33.4609 354.159C33.5886 353.924 33.5886 353.647 33.3757 353.476C31.609 351.769 31.46 349.122 29.7146 347.436C29.5018 347.265 29.2889 346.902 29.3315 346.668C29.6508 344.726 28.6716 343.082 27.9266 341.481C27.3094 340.116 26.8837 338.622 26.0535 337.362C25.2872 336.189 24.2655 335.185 24.4145 333.67C24.4145 333.521 24.3507 333.35 24.2655 333.243C22.3073 331.173 22.4137 328.228 21.2856 325.901C20.2639 323.831 20.3703 321.569 19.3486 319.605C18.6888 318.282 19.2635 317.002 20.2639 316.084C21.3069 315.102 21.8816 313.821 22.6691 312.712C23.5844 311.431 23.2438 309.873 22.5201 308.742C21.4559 307.035 21.2004 305.071 20.7322 303.278C20.0723 300.717 18.9442 298.263 18.8165 295.51C18.7313 293.503 18.3056 291.518 18.1992 289.47C18.1353 288.552 17.3691 287.954 17.2201 287.015C16.7092 283.494 16.0068 279.972 15.8152 276.408C15.7514 274.914 15.3895 273.42 14.7084 272.289C13.5164 270.261 13.2823 267.892 12.0051 265.929C11.1963 264.712 11.8349 263.218 11.4943 261.831C11.175 260.422 11.4304 258.886 9.7276 258.011C9.00389 257.648 9.21675 256.837 9.81274 256.389C10.9196 255.514 11.0686 254.126 11.4304 252.952C11.7923 251.821 10.2597 251.586 9.66374 250.839C9.38703 250.519 8.91875 250.37 8.5569 250.092C7.45006 249.217 7.04563 248.278 8.13119 247.083C8.64204 246.55 8.74847 245.824 8.7059 245.12C8.53561 242.815 8.76975 240.552 8.91875 238.29C9.00389 237.244 8.59947 236.198 8.62076 235.217C8.64204 233.189 8.53561 231.247 7.87577 229.305C7.79062 229.006 8.04605 228.558 8.17376 228.174C8.32276 227.704 8.53561 227.107 8.17376 226.744C6.25807 224.887 7.00306 222.859 7.59905 220.81C7.62034 220.725 7.6842 220.597 7.66291 220.512C6.91792 217.887 8.23762 215.646 8.98261 213.319C9.55731 211.505 10.1533 209.712 12.2818 209.115C12.9417 208.944 12.8778 208.24 12.8778 207.706C12.8778 205.999 13.112 204.483 15.2405 204.206C15.8578 204.121 16.0707 203.544 16.0707 202.947C16.0919 202.029 16.4964 201.303 17.2626 200.834C18.6888 199.937 19.5189 198.507 20.349 197.163C21.2643 195.69 22.2221 194.388 23.6908 193.428C24.7551 192.702 25.5001 191.656 26.2238 190.568C28.5865 186.982 29.0548 182.842 30.2042 178.872C30.8853 176.567 31.4174 174.305 31.5239 171.979C31.5877 170.25 31.4387 168.521 32.0347 166.835C32.0986 166.707 32.0986 166.515 32.0347 166.387C30.9279 163.762 32.1837 161.222 32.4179 158.661C32.4391 158.298 32.4817 157.935 32.6307 157.636C34.3974 154.478 34.291 150.743 35.5681 147.456C36.526 145.002 36.5898 142.825 36.1002 140.328C35.4404 136.806 37.5902 133.967 38.9312 130.958C39.74 129.08 40.8469 127.309 41.1449 125.217C41.2087 124.833 41.23 124.385 41.4429 124.086C42.3156 122.912 42.3369 121.994 41.3152 120.799C40.5702 119.903 41.5493 118.772 41.7622 117.875C42.2304 115.912 42.5071 113.82 43.6778 111.985C44.7847 110.256 46.2108 108.783 47.4667 107.204C47.9988 106.521 48.3394 105.923 48.0839 105.048C47.6157 103.17 48.5948 101.313 48.2116 99.4351C47.7008 96.9167 48.5096 95.1666 51.0426 94.2916C51.6599 94.0782 51.7663 93.5446 51.5747 92.947C51.3619 92.1787 51.3619 91.3677 52.1707 91.0048C52.937 90.6847 53.086 91.5171 53.4266 91.9866C53.8523 92.5842 54.4696 92.6695 55.0443 92.4561C56.5555 91.9439 58.2371 91.6237 59.4291 90.3645C60.1102 89.6389 60.9191 89.084 61.8769 89.0413C63.154 89.02 63.8139 88.2303 64.5163 87.3979C65.389 86.4161 65.2826 85.4771 64.3673 84.6447C63.4946 83.8764 62.7922 83.0227 62.111 82.1049C61.2383 80.9951 60.0889 81.3366 59.0246 81.8915C58.6628 82.0623 58.4287 82.4251 58.0668 82.6172C57.1941 83.044 56.4491 82.9373 56.3427 81.8062C56.1724 80.0988 55.3636 78.9676 53.7033 78.434C52.5752 78.1139 51.9366 76.9614 50.9362 76.4705C49.2759 75.6595 47.4879 75.254 45.6574 74.8911C45.1465 74.8058 44.4441 74.9125 44.3377 74.2082C44.2526 73.5252 44.806 73.1624 45.3594 72.8849C46.9771 72.1166 48.5948 71.391 50.0848 70.4092C50.3189 70.2598 50.6595 70.1958 50.851 69.9824C53.9374 66.8237 57.705 64.3052 59.9612 60.3782C60.3231 59.7592 60.919 59.3111 61.6002 59.1617C62.7922 58.8842 63.5584 58.1372 64.2821 57.2195C66.0701 54.8504 68.1561 52.8229 70.3485 50.8808C71.7746 49.6215 73.1156 48.1916 74.5204 46.8897C75.8401 45.6945 77.1598 44.5633 78.5647 43.4962C80.5655 41.9382 82.8856 40.5509 84.035 38.0325C84.5033 36.9867 85.3122 36.4105 86.568 36.2611C88.1431 36.0903 88.952 34.5537 90.0162 33.5719C91.7829 31.9499 94.0605 31.3096 95.9123 29.9009C96.9766 29.1326 98.2324 28.535 99.1051 27.5106C100.169 26.2941 101.404 26.1873 102.745 26.6996C103.554 26.9984 104.235 27.0838 104.98 26.5288C105.491 26.1447 106.108 26.2087 106.704 26.166C107.385 26.1447 108.024 25.9526 108.364 25.355C109.088 24.0745 110.301 23.8823 111.557 23.8397C112.685 23.7756 113.813 23.861 114.984 23.6689C116.006 23.5195 116.836 23.1994 117.623 22.4951C118.688 21.5773 120.135 21.428 121.434 21.8762C122.987 22.3884 124.584 22.4951 126.138 22.2603C128.245 21.8975 130.31 22.4311 132.353 22.3457C134.737 22.2603 137.036 22.8579 139.377 22.8792C141.037 22.9006 142.527 22.1109 144.166 21.9188C146.486 21.6841 148.849 21.9402 151.105 21.7054C153.468 21.4279 155.575 21.1932 158.023 22.0255C160.045 22.7085 161.684 23.6903 163.323 24.8641C163.536 25.0135 163.792 25.2269 163.983 25.1629C165.558 24.5653 166.154 25.8245 166.771 26.7423C167.516 27.8094 168.432 28.3216 169.751 28.407C171.837 28.535 173.923 28.9192 175.499 26.9343C175.924 26.4221 176.669 26.4862 177.308 26.6356C178.415 26.8703 179.479 26.8063 180.522 26.4008C180.82 26.2727 181.203 26.166 181.544 26.23C186.397 27.2545 191.228 25.483 196.082 26.1447C197.55 26.3581 198.87 25.5257 200.253 25.1843C201.233 24.9495 202.063 24.9495 202.744 25.8672C203.425 26.8276 204.319 26.9984 205.277 26.1447C205.724 25.7605 206.256 25.419 206.639 25.0135C207.214 24.4159 207.682 24.3305 208.448 24.7787C209.938 25.6751 210.747 25.3763 211.599 23.8823C211.897 23.3488 212.429 23.3701 212.918 23.4342C214.408 23.6049 215.856 23.861 217.324 24.0531C217.899 24.1385 218.091 24.6294 218.346 25.0349C218.644 25.5684 219.091 26.0166 219.751 25.9312C220.368 25.8672 220.496 25.355 220.624 24.8641C220.836 23.9464 221.539 23.9037 222.263 24.0531C223.476 24.3305 224.349 24.1172 224.434 22.6445C224.498 21.7481 225.2 21.4493 225.924 21.5133C228.223 21.7481 230.096 20.2541 232.352 20.1901C233.225 20.1687 234.417 19.3791 234.459 18.0345C234.48 16.818 235.204 16.5618 236.162 16.9247C236.822 17.1594 237.205 17.1594 237.716 16.6259C238.589 15.7935 239.525 16.4552 240.313 16.8607C241.93 17.7357 243.591 18.44 245.315 19.123C245.634 19.251 246.038 19.3577 246.209 19.6352C246.954 20.681 247.677 21.4066 249.061 20.4462C249.657 20.0194 250.338 20.617 250.338 21.4066C250.317 22.7726 251.019 22.9646 252.147 22.7725C252.765 22.6872 253.424 22.7512 254.084 22.7939C254.978 22.8793 255.723 23.2207 255.787 24.3092C255.851 25.1202 256.383 25.419 257.128 25.3763C257.852 25.355 258.384 25.1629 258.469 24.3092C258.533 23.7756 258.533 23.0926 259.342 23.242C259.959 23.3701 259.874 23.9891 259.917 24.4586C259.98 26.4861 259.47 27.2118 257.554 27.8947C257.086 28.0655 256.298 28.2149 256.383 28.8551C256.511 29.5381 257.277 29.3034 257.788 29.3034C259.15 29.3247 260.555 28.9192 261.726 30.0717C262.109 30.4559 263.003 30.6053 262.492 31.3522C262.13 31.8858 261.364 31.9285 260.725 31.587C260.449 31.4376 260.278 31.1602 260.002 31.0534C259.278 30.6906 258.49 30.4772 258.043 31.3309C257.596 32.2273 258.171 32.8462 258.959 33.2091C259.704 33.5719 260.512 33.4438 261.321 33.4438C262.492 33.4225 263.492 33.5292 263.876 34.9165C264.088 35.6421 264.684 35.9409 265.429 35.5354C266.025 35.2153 266.685 35.2366 267.303 35.1726C267.899 35.1086 268.431 34.8951 268.367 34.1908C268.346 33.5719 267.92 33.2091 267.303 33.1664C266.877 33.1451 266.323 33.3158 266.132 32.7822C265.919 32.1846 266.515 32.0566 266.877 31.8645C267.537 31.4803 267.409 30.84 267.303 30.2425C267.132 29.4101 267.324 28.7484 268.069 28.3216C268.878 27.8734 269.325 28.3856 269.836 28.9192C270.431 29.5808 272.815 29.6021 273.922 29.0472C274.135 28.9192 274.348 28.6844 274.54 28.6844C276.796 28.6204 277.179 26.9557 277.605 25.1842C277.924 23.7756 279.116 22.922 280.649 23.114C281.692 23.2634 282.287 22.986 282.5 21.9829C282.82 20.3395 283.565 18.9309 284.82 17.7997C285.331 17.3515 285.267 16.7326 285.246 16.135C285.182 15.0892 285.246 14.0434 285.629 13.0616C286.076 11.9518 285.459 11.0982 284.799 10.3725C283.926 9.39076 284.352 8.79316 285.374 8.8145C287.077 8.83584 288.077 8.21691 288.907 6.78696C289.354 6.01862 290.525 5.71979 291.015 4.78071C291.164 4.48192 291.525 4.50329 291.823 4.69537C292.185 4.93014 292.398 5.29298 292.334 5.71983C292.207 6.68025 291.972 7.726 293.228 8.04614C294.718 8.4303 296.293 9.15594 297.762 7.98209C298.145 7.6833 298.486 7.53393 298.954 7.68333C300.018 8.00347 300.38 7.59798 300.274 6.46682C300.103 4.99418 301.742 4.97282 302.36 4.07643C302.722 3.54287 303.467 4.01243 303.914 4.43928C304.595 5.1009 304.829 5.7625 303.914 6.40278C303.616 6.6162 303.254 6.78696 303.403 7.21381C303.552 7.59797 303.913 7.66195 304.275 7.66195C305.382 7.66195 306.595 7.66197 307.17 6.01859ZM361.916 252.248C361.554 252.248 361.448 251.949 361.554 251.629C361.725 251.16 361.916 250.605 362.448 250.498C362.959 250.647 363.108 250.946 363.023 251.309C362.895 251.864 362.555 252.291 361.916 252.248ZM261.087 20.4675C261.555 20.4889 262.109 20.6383 261.96 21.2145C261.747 22.0255 261.045 22.4951 260.342 22.7725C259.895 22.9433 259.81 22.3244 259.768 21.9402C259.768 21.0652 260.215 20.5529 261.087 20.4675ZM265.451 24.8641C266.025 25.0135 266.962 24.7147 266.856 25.3336C266.728 26.1446 265.685 25.9953 265.004 26.0593C264.535 26.0806 263.79 26.0593 263.897 25.4403C264.088 24.5653 264.982 25.0562 265.451 24.8641Z" fill="#F6EBFF"/>
<path d="M387.765 57.6474C387.765 58.265 388.296 58.265 388.742 58.2224C389.166 58.1585 389.846 58.2224 389.846 57.7113C389.825 57.0511 389.103 57.2002 388.678 57.115C388.253 57.1576 387.765 57.115 387.765 57.6474Z" fill="#F6EBFF"/>
<path d="M345.223 14.5436C345.436 15.4168 345.669 16.2686 345.903 17.0992C345.988 17.4612 345.903 18.0149 346.476 17.9723C347.05 17.9084 347.071 17.376 347.092 16.9288C347.156 16.1834 346.965 15.3103 347.326 14.7566C348.218 13.3297 347.411 13.2658 346.434 13.2658C345.181 13.0529 344.968 13.6492 345.223 14.5436Z" fill="#F6EBFF"/>
<path d="M344.12 15.5226C344.098 14.9902 343.801 14.6921 343.249 14.7134C342.739 14.7772 342.293 14.9477 342.208 15.6078C342.335 16.119 342.718 16.4171 343.249 16.4384C343.886 16.5023 344.141 16.1189 344.12 15.5226Z" fill="#F6EBFF"/>
<path d="M282.822 25.8328C282.143 25.2365 281.463 25.0022 280.72 25.6624C279.53 26.7059 279.764 28.8143 281.187 29.5383C281.803 29.8365 282.249 30.2198 282.546 30.8161C282.78 31.242 282.929 31.8383 283.587 31.6467C284.267 31.4337 284.118 30.7735 284.203 30.092C283.714 28.7717 284.224 27.0254 282.822 25.8328Z" fill="#F6EBFF"/>
<path d="M419.794 172.179C419.772 172.796 420.303 172.988 420.834 172.924C421.45 172.86 422.024 172.541 422.087 171.88C422.151 171.22 421.514 171.263 421.047 171.199C420.41 171.263 419.815 171.476 419.794 172.179Z" fill="#F6EBFF"/>
<path d="M426.06 168.666C425.614 168.879 425.529 169.326 425.635 169.795C425.72 170.157 425.954 170.412 426.358 170.327C427.483 170.114 428.312 169.518 428.651 168.368C428.779 168.07 428.715 167.836 428.205 167.9C427.589 168.368 426.761 168.347 426.06 168.666Z" fill="#F6EBFF"/>
<path d="M385.323 57.3078C383.539 57.3717 384.643 58.6708 384.707 59.4162C384.389 60.1615 384.495 60.7578 385.302 60.7578C386.258 60.7365 386.279 59.8421 386.258 59.2032C386.215 58.4791 386.3 57.2865 385.323 57.3078Z" fill="#F6EBFF"/>
<path d="M416.099 107.311C416.247 108.057 416.842 108.632 417.585 108.738C418.201 108.866 418.393 108.27 418.35 107.759C418.329 106.886 417.607 106.864 416.885 106.843C416.63 106.949 415.993 106.758 416.099 107.311Z" fill="#F6EBFF"/>
<path d="M393.16 76.559C393.457 77.2405 394.179 77.1553 394.774 77.283C395.241 77.3682 395.942 77.4534 395.9 76.772C395.878 76.0053 395.071 75.8775 394.477 75.7284C393.882 75.5581 393.457 75.8988 393.16 76.559Z" fill="#F6EBFF"/>
<path d="M413.337 107.354C413.401 107.673 413.614 107.823 413.868 107.78C414.293 107.652 414.782 107.61 414.909 107.098C414.973 106.8 414.633 106.715 414.399 106.736C413.953 106.822 413.486 106.864 413.337 107.354Z" fill="#F6EBFF"/>
</svg>
