<svg width="24" height="24" viewBox="0 0 24 24" fill="none" xmlns="http://www.w3.org/2000/svg">
<g clip-path="url(#clip0_801_782)">
<path fill-rule="evenodd" clip-rule="evenodd" d="M20.1286 3.15961C19.566 2.5972 18.8031 2.28125 18.0076 2.28125C17.2121 2.28125 16.4492 2.5972 15.8866 3.15961L15.1796 3.86761L20.1296 8.81761L20.8356 8.11061C21.1142 7.83203 21.3352 7.50129 21.486 7.13728C21.6368 6.77327 21.7144 6.38312 21.7144 5.98911C21.7144 5.5951 21.6368 5.20495 21.486 4.84094C21.3352 4.47693 21.1142 4.14619 20.8356 3.86761L20.1286 3.15961ZM18.7146 10.2316L13.7646 5.28161L4.67458 14.3726C4.47567 14.5716 4.33671 14.8224 4.27358 15.0966L3.24458 19.5516C3.20624 19.717 3.21064 19.8894 3.25736 20.0526C3.30409 20.2159 3.39159 20.3645 3.51164 20.4846C3.63169 20.6046 3.78033 20.6921 3.94355 20.7388C4.10677 20.7856 4.2792 20.79 4.44458 20.7516L8.90058 19.7236C9.17439 19.6603 9.42491 19.5214 9.62358 19.3226L18.7146 10.2316Z" fill="#D7E2E8"/>
</g>
<defs>
<clipPath id="clip0_801_782">
<rect width="24" height="24" fill="white"/>
</clipPath>
</defs>
</svg>
