<svg width="25" height="24" viewBox="0 0 25 24" fill="none" xmlns="http://www.w3.org/2000/svg">
<path d="M16.4843 12C15.5206 12 14.5887 11.5697 13.8593 10.7887C13.1501 10.027 12.717 9.01125 12.6406 7.92937C12.559 6.77531 12.911 5.71406 13.6315 4.94062C14.352 4.16719 15.3593 3.75 16.4843 3.75C17.6014 3.75 18.6115 4.17469 19.3296 4.94625C20.0548 5.72531 20.4078 6.78469 20.3262 7.92891C20.2479 9.01219 19.8153 10.0275 19.1074 10.7883C18.3799 11.5697 17.4485 12 16.4843 12ZM22.6639 20.25H10.3053C10.1066 20.2511 9.91027 20.2065 9.73149 20.1198C9.5527 20.0331 9.3962 19.9065 9.27401 19.7498C9.1444 19.58 9.0549 19.383 9.0122 19.1736C8.9695 18.9643 8.97471 18.748 9.02745 18.5409C9.42213 16.9561 10.3999 15.6417 11.8549 14.7403C13.1464 13.9406 14.7903 13.5 16.4843 13.5C18.2117 13.5 19.8124 13.9219 21.1114 14.7211C22.5696 15.6178 23.5489 16.9397 23.9417 18.5437C23.9938 18.751 23.9984 18.9672 23.9552 19.1765C23.912 19.3857 23.8222 19.5825 23.6923 19.7522C23.5702 19.9082 23.4141 20.0341 23.2358 20.1204C23.0576 20.2067 22.8619 20.251 22.6639 20.25ZM7.62495 12.1875C5.97542 12.1875 4.5251 10.6537 4.39057 8.76891C4.32401 7.80328 4.62495 6.91031 5.23432 6.25547C5.83713 5.60719 6.68745 5.25 7.62495 5.25C8.56245 5.25 9.4062 5.60906 10.0123 6.26109C10.6264 6.92109 10.9264 7.81219 10.856 8.76984C10.7215 10.6542 9.27167 12.1875 7.62495 12.1875ZM10.7028 13.6617C9.87823 13.2586 8.80807 13.057 7.62542 13.057C6.24448 13.057 4.90338 13.417 3.8487 14.0705C2.65292 14.8125 1.84854 15.893 1.5237 17.1975C1.47616 17.3851 1.47166 17.5811 1.51054 17.7707C1.54943 17.9603 1.63068 18.1387 1.74823 18.2925C1.85977 18.4357 2.00266 18.5514 2.16592 18.6307C2.32917 18.71 2.50845 18.7508 2.68995 18.75H7.89307C7.98089 18.75 8.06592 18.7192 8.13334 18.6629C8.20075 18.6066 8.24628 18.5284 8.26198 18.442C8.26713 18.4125 8.2737 18.383 8.2812 18.3539C8.6787 16.7573 9.6101 15.4083 10.9864 14.4248C11.037 14.3884 11.0777 14.3398 11.1048 14.2836C11.1319 14.2274 11.1446 14.1653 11.1417 14.103C11.1387 14.0407 11.1203 13.9801 11.088 13.9267C11.0557 13.8733 11.0106 13.8288 10.9568 13.7972C10.8832 13.7541 10.7989 13.7086 10.7028 13.6617Z" fill="#D7E2E8"/>
</svg>
