<svg width="25" height="24" viewBox="0 0 25 24" fill="none" xmlns="http://www.w3.org/2000/svg">
<path d="M19.9654 15.2598L17.4254 14.9698C17.1267 14.9347 16.824 14.9678 16.54 15.0665C16.2559 15.1652 15.9979 15.327 15.7854 15.5398L13.9454 17.3798C11.1066 15.936 8.79917 13.6286 7.35539 10.7898L9.20539 8.93977C9.63539 8.50977 9.84539 7.90977 9.77539 7.29977L9.48539 4.77977C9.4287 4.29194 9.19459 3.842 8.82763 3.51561C8.46067 3.18923 7.9865 3.00918 7.49539 3.00977H5.76539C4.63539 3.00977 3.69539 3.94977 3.76539 5.07977C4.29539 13.6198 11.1254 20.4398 19.6554 20.9698C20.7854 21.0398 21.7254 20.0998 21.7254 18.9698V17.2398C21.7354 16.2298 20.9754 15.3798 19.9654 15.2598Z" fill="#D7E2E8"/>
</svg>
