<svg width="120" height="49" viewBox="0 0 120 49" fill="none" xmlns="http://www.w3.org/2000/svg">
<path d="M117.882 39.4135C117.882 43.5323 114.564 46.87 110.47 46.87H34.2348C30.1407 46.87 26.8231 43.5323 26.8231 39.4135C26.8231 35.2946 30.1407 31.9569 34.2348 31.9569H48.3525C52.4466 31.9569 55.7642 28.6193 55.7642 24.5004C55.7642 20.3816 52.4466 17.0439 48.3525 17.0439H9.52895C5.43483 17.0439 2.11719 13.7062 2.11719 9.58738C2.11719 5.46854 5.43483 2.13086 9.52895 2.13086H91.4113C95.5054 2.13086 98.8231 5.46854 98.8231 9.58738C98.8231 13.7062 95.5054 17.0439 91.4113 17.0439H81.5289C77.4348 17.0439 74.1172 20.3816 74.1172 24.5004C74.1172 28.6193 77.4348 31.9569 81.5289 31.9569H110.47C114.564 31.9569 117.882 35.2946 117.882 39.4135Z" stroke="#FDEEC9" stroke-width="4" stroke-miterlimit="10"/>
</svg>
