<svg width="161" height="87" viewBox="0 0 161 87" fill="none" xmlns="http://www.w3.org/2000/svg">
<path d="M116.126 27.0408C116.126 31.5867 119.826 35.2705 124.393 35.2705H135.415C139.981 35.2705 143.681 38.9543 143.681 43.5002C143.681 48.0462 139.981 51.7299 135.415 51.7299H69.2826C64.7163 51.7299 61.0161 55.4137 61.0161 59.9597C61.0161 64.5056 64.7163 68.1894 69.2826 68.1894H77.1555C81.7217 68.1894 85.422 71.8732 85.422 76.4191C85.422 80.9651 81.7217 84.6489 77.1555 84.6489H26.7691C22.2029 84.6489 18.5026 80.9651 18.5026 76.4191C18.5026 71.8732 22.2029 68.1894 26.7691 68.1894H32.2802C36.8464 68.1894 40.5467 64.5056 40.5467 59.9597C40.5467 55.4137 36.8464 51.7299 32.2802 51.7299H10.6298C6.06353 51.7299 2.36328 48.0462 2.36328 43.5002C2.36328 38.9543 6.06353 35.2705 10.6298 35.2705H87.3902C91.9564 35.2705 95.6567 31.5867 95.6567 27.0408C95.6567 22.4948 91.9564 18.811 87.3902 18.811H44.0894C39.5232 18.811 35.8229 15.1272 35.8229 10.5813C35.8229 6.03535 39.5232 2.35156 44.0894 2.35156H150.373C154.939 2.35156 158.64 6.03535 158.64 10.5813C158.64 15.1272 154.939 18.811 150.373 18.811H124.393C119.826 18.811 116.126 22.4948 116.126 27.0408Z" stroke="#FDEEC9" stroke-width="4" stroke-miterlimit="10"/>
</svg>
