<svg width="75" height="129" viewBox="0 0 75 129" fill="none" xmlns="http://www.w3.org/2000/svg">
<g id="Lampion" clip-path="url(#clip0_1356_5745)">
<path id="Vector" d="M37.3333 90.5618C56.5713 90.5618 72.1667 79.3382 72.1667 65.4933C72.1667 51.6484 56.5713 40.4248 37.3333 40.4248C18.0954 40.4248 2.5 51.6484 2.5 65.4933C2.5 79.3382 18.0954 90.5618 37.3333 90.5618Z" stroke="#FDEEC9" stroke-width="4" stroke-miterlimit="10"/>
<path id="Vector_2" d="M36.5833 90.5618C26.75 90.5618 18.75 79.3645 18.75 65.4933C18.75 51.6221 26.75 40.4248 36.5833 40.4248" stroke="#FDEEC9" stroke-width="4" stroke-miterlimit="10"/>
<path id="Vector_3" d="M37.5859 90.5618C47.4193 90.5618 55.4193 79.3645 55.4193 65.4933C55.4193 51.6221 47.4193 40.4248 37.5859 40.4248" stroke="#FDEEC9" stroke-width="4" stroke-miterlimit="10"/>
<path id="Vector_4" d="M47.3359 31.2324H27.3359V40.4242H47.3359V31.2324Z" stroke="#FDEEC9" stroke-width="4" stroke-miterlimit="10"/>
<path id="Vector_5" d="M47.3359 90.5615H27.3359V99.7533H47.3359V90.5615Z" stroke="#FDEEC9" stroke-width="4" stroke-miterlimit="10"/>
<path id="Vector_6" d="M37.082 39.5889V91.3971" stroke="#FDEEC9" stroke-width="4" stroke-miterlimit="10"/>
<path id="Vector_7" d="M37.082 -55.2539V31.2324" stroke="#FDEEC9" stroke-width="4" stroke-miterlimit="10"/>
<path id="Vector_8" d="M37.082 99.7539V111.453" stroke="#FDEEC9" stroke-width="4" stroke-miterlimit="10"/>
<path id="Vector_9" d="M41.2513 126.494H32.918L33.5846 113.124C33.668 111.285 35.2513 109.781 37.0846 109.781C38.918 109.781 40.5013 111.285 40.5846 113.124L41.2513 126.494Z" stroke="#FDEEC9" stroke-width="4" stroke-miterlimit="10"/>
</g>
<defs>
<clipPath id="clip0_1356_5745">
<rect width="75" height="129" fill="white"/>
</clipPath>
</defs>
</svg>
