<svg width="81" height="67" viewBox="0 0 81 67" fill="none" xmlns="http://www.w3.org/2000/svg">
<g id="arrow" filter="url(#filter0_d_264_5)">
<path d="M74.3753 60.1688C73.5469 60.1688 72.8753 60.8403 72.8753 61.6688C72.8753 62.4972 73.5469 63.1688 74.3753 63.1688V60.1688ZM74.3753 40.8765L73.0748 41.6239L74.3753 40.8765ZM40.2292 37.8167L41.2662 36.7329L40.2292 37.8167ZM47.5354 16.993L48.4696 15.8194L47.5354 16.993ZM1.76164 12.396C1.32823 13.102 1.54921 14.0256 2.25522 14.4591L13.7603 21.5219C14.4663 21.9553 15.39 21.7343 15.8234 21.0283C16.2568 20.3223 16.0358 19.3986 15.3298 18.9652L5.10308 12.6871L11.3811 2.46041C11.8145 1.7544 11.5936 0.830716 10.8876 0.397306C10.1815 -0.0361032 9.25787 0.184882 8.82446 0.89089L1.76164 12.396ZM74.3753 63.1688C74.8135 63.1688 75.1752 63.0155 75.4132 62.8847C75.667 62.745 75.8958 62.5666 76.0956 62.3822C76.4963 62.0126 76.8877 61.5199 77.2476 60.9458C77.9722 59.7894 78.6541 58.167 79.0383 56.1669C79.8127 52.1362 79.3797 46.5741 75.6759 40.1291L73.0748 41.6239C76.4376 47.4755 76.7245 52.3096 76.0922 55.6009C75.7731 57.2618 75.22 58.5318 74.7055 59.3526C74.4458 59.7671 74.2166 60.0342 74.0615 60.1772C73.9835 60.2491 73.9506 60.2652 73.9673 60.2561C73.9681 60.2556 74.1172 60.1688 74.3753 60.1688V63.1688ZM75.6759 40.1291C73.1439 35.7232 68.8 32.6359 64.0621 30.6365C59.3141 28.6329 54.0401 27.664 49.4421 27.5809C47.1404 27.5392 44.9744 27.7188 43.1037 28.1189C41.256 28.5141 39.5862 29.1477 38.3732 30.0922C37.1168 31.0705 36.2744 32.463 36.4427 34.1971C36.5996 35.8137 37.6111 37.3875 39.1921 38.9005L41.2662 36.7329C39.9033 35.4287 39.4845 34.4819 39.4287 33.9073C39.3843 33.4501 39.5466 32.9807 40.2163 32.4593C40.9293 31.904 42.1067 31.4 43.7312 31.0526C45.3327 30.71 47.2638 30.5419 49.3879 30.5804C53.6414 30.6573 58.5334 31.5596 62.8957 33.4005C67.268 35.2456 70.9785 37.9761 73.0748 41.6239L75.6759 40.1291ZM39.1921 38.9005C42.0168 41.6034 45.0805 42.4019 47.8661 41.4543C50.5409 40.5443 52.5647 38.1514 53.727 35.314C56.0598 29.6196 55.295 21.2517 48.4696 15.8194L46.6013 18.1667C52.2259 22.6432 52.8586 29.52 50.951 34.1767C49.9932 36.5148 48.4873 38.0741 46.8999 38.6141C45.4233 39.1165 43.4922 38.8629 41.2662 36.7329L39.1921 38.9005ZM48.4696 15.8194C33.8905 4.216 19.6199 7.67174 2.69096 11.7219L3.38899 14.6395C20.5069 10.5442 33.3099 7.58813 46.6013 18.1667L48.4696 15.8194Z" fill="#FDFFFF"/>
</g>
<defs>
<filter id="filter0_d_264_5" x="0.539764" y="0.175537" width="79.8215" height="65.9932" filterUnits="userSpaceOnUse" color-interpolation-filters="sRGB">
<feFlood flood-opacity="0" result="BackgroundImageFix"/>
<feColorMatrix in="SourceAlpha" type="matrix" values="0 0 0 0 0 0 0 0 0 0 0 0 0 0 0 0 0 0 127 0" result="hardAlpha"/>
<feOffset dy="2"/>
<feGaussianBlur stdDeviation="0.5"/>
<feComposite in2="hardAlpha" operator="out"/>
<feColorMatrix type="matrix" values="0 0 0 0 0 0 0 0 0 0 0 0 0 0 0 0 0 0 0.25 0"/>
<feBlend mode="normal" in2="BackgroundImageFix" result="effect1_dropShadow_264_5"/>
<feBlend mode="normal" in="SourceGraphic" in2="effect1_dropShadow_264_5" result="shape"/>
</filter>
</defs>
</svg>
