<svg width="311" height="26" viewBox="0 0 311 26" fill="none" xmlns="http://www.w3.org/2000/svg">
<path d="M9.7354 0.252441H12.7025V21.0546H20.0833V25.0679H0.819425V21.0546H8.84971V6.57886L2.87128 12.7981L0.361816 10.148L9.7354 0.252441Z" fill="#224624"/>
<path d="M31.4053 14.6669L49.4882 0.252441H52.4553V14.6669H55.0976V18.6802H52.4553V21.0546H55.009V25.0679H46.0487V21.0546H48.5877V18.6802H31.4053V14.6669ZM48.5877 6.16527L37.3985 14.6669H48.5877V6.16527Z" fill="#224624"/>
<path d="M69.0767 22.4633C69.0767 22.065 69.1505 21.682 69.3128 21.345C69.4752 20.9927 69.6819 20.7017 69.9624 20.4413C70.2281 20.1808 70.5381 19.9817 70.8776 19.8438C71.2171 19.706 71.5714 19.6294 71.9404 19.6294C72.3242 19.6294 72.6932 19.706 73.0328 19.8438C73.3723 19.9817 73.6823 20.1962 73.9627 20.4413C74.2432 20.7017 74.4646 20.9927 74.627 21.345C74.7894 21.6974 74.8632 22.065 74.8632 22.4633C74.8632 22.8615 74.7894 23.2445 74.627 23.5815C74.4646 23.9185 74.2432 24.2249 73.9627 24.4853C73.6823 24.7457 73.3723 24.9448 73.0328 25.0827C72.6932 25.2205 72.3242 25.2971 71.9404 25.2971C71.5714 25.2971 71.2171 25.2205 70.8776 25.0827C70.5381 24.9448 70.2281 24.7304 69.9624 24.4853C69.6966 24.2249 69.4752 23.9338 69.3128 23.5815C69.1505 23.2292 69.0767 22.8615 69.0767 22.4633Z" fill="#224624"/>
<path d="M86.0679 12.7059C86.0679 10.7146 86.4074 8.93766 87.0717 7.3752C87.7359 5.81274 88.6364 4.48006 89.773 3.39247C90.9097 2.30487 92.253 1.47769 93.7882 0.895598C95.3234 0.313507 96.9471 0.0224609 98.6742 0.0224609C100.475 0.0224609 102.143 0.313507 103.693 0.895598C105.228 1.47769 106.557 2.30487 107.694 3.39247C108.815 4.48006 109.701 5.79742 110.336 7.3752C110.971 8.95297 111.281 10.7299 111.281 12.7059C111.281 14.682 110.956 16.367 110.336 17.9294C109.701 19.4919 108.815 20.8246 107.694 21.9275C106.572 23.0304 105.228 23.8882 103.693 24.4856C102.158 25.083 100.49 25.3894 98.6742 25.3894C96.8586 25.3894 95.3234 25.0984 93.7882 24.5009C92.253 23.9035 90.9097 23.061 89.773 21.9581C88.6364 20.8552 87.7359 19.5225 87.0717 17.9601C86.4074 16.3976 86.0679 14.6513 86.0679 12.7059ZM98.6742 4.03583C97.3457 4.03583 96.15 4.25028 95.0872 4.67919C94.0243 5.1081 93.1239 5.6902 92.3858 6.45611C91.6477 7.22202 91.072 8.12579 90.6587 9.19806C90.2454 10.2703 90.0387 11.4345 90.0387 12.7059C90.0387 13.9773 90.2454 15.1415 90.6587 16.2138C91.072 17.2861 91.6477 18.1898 92.3858 18.9558C93.1239 19.7217 94.0243 20.3038 95.0872 20.7327C96.15 21.1616 97.3457 21.376 98.6742 21.376C100.091 21.376 101.331 21.1616 102.409 20.7327C103.486 20.3038 104.372 19.7217 105.096 18.9558C105.819 18.1898 106.365 17.2861 106.734 16.2138C107.103 15.1415 107.295 13.9773 107.295 12.7059C107.295 11.4345 107.103 10.2703 106.734 9.19806C106.365 8.12579 105.804 7.2067 105.096 6.45611C104.372 5.70551 103.472 5.1081 102.409 4.67919C101.331 4.25028 100.091 4.03583 98.6742 4.03583Z" fill="#224624"/>
<path d="M135.769 0.129395C137.747 0.129395 139.533 0.42044 141.113 1.01785C142.692 1.61526 144.05 2.45776 145.158 3.54535C146.265 4.63295 147.121 5.96563 147.726 7.51277C148.331 9.05991 148.626 10.8062 148.626 12.7516C148.626 14.697 148.287 16.5046 147.593 18.067C146.899 19.6295 145.969 20.9468 144.803 22.0191C143.637 23.0914 142.264 23.9032 140.714 24.47C139.15 25.0368 137.511 25.3278 135.799 25.3278C134.721 25.3278 133.747 25.2819 132.861 25.1747C131.975 25.0674 131.134 24.8989 130.307 24.6538C129.496 24.4087 128.654 24.0871 127.813 23.6888C126.957 23.2905 126.027 22.785 125.023 22.1876L127.178 19.1393C128.019 19.6295 128.772 20.0277 129.436 20.3341C130.101 20.6405 130.765 20.8702 131.4 21.0387C132.035 21.2072 132.714 21.3298 133.393 21.3911C134.072 21.4523 134.869 21.4983 135.74 21.4983C138.19 21.483 140.153 20.8243 141.644 19.5222C143.12 18.2355 144.065 16.5352 144.449 14.4366C144.124 14.6357 143.711 14.8808 143.194 15.1872C142.678 15.4936 142.058 15.7846 141.32 16.0603C140.581 16.3361 139.755 16.5811 138.84 16.7803C137.924 16.9794 136.876 17.0866 135.71 17.0866C134.116 17.0866 132.595 16.9181 131.149 16.5965C129.702 16.2748 128.433 15.7846 127.326 15.1106C126.233 14.4366 125.362 13.5941 124.698 12.5831C124.049 11.5721 123.709 10.3773 123.709 8.98331C123.709 7.49745 124.049 6.18008 124.713 5.07717C125.377 3.95895 126.263 3.03985 127.37 2.3199C128.477 1.59994 129.761 1.04849 131.208 0.696168C132.654 0.343849 134.16 0.160031 135.74 0.160031L135.769 0.129395ZM135.769 4.14276C134.78 4.14276 133.806 4.23467 132.846 4.40317C131.887 4.58699 131.045 4.8474 130.293 5.23036C129.555 5.59799 128.949 6.05754 128.506 6.62431C128.049 7.17577 127.827 7.84977 127.827 8.631C127.827 9.22841 128.005 9.79518 128.344 10.3313C128.684 10.8675 129.186 11.3423 129.865 11.7406C130.529 12.1389 131.355 12.4605 132.345 12.6903C133.334 12.9201 134.47 13.0426 135.754 13.0426C136.832 13.0426 137.806 12.9354 138.707 12.721C139.592 12.5065 140.404 12.2614 141.128 11.9704C141.851 11.6793 142.471 11.373 143.002 11.0513C143.534 10.7296 143.962 10.4539 144.301 10.2241C144.05 9.28968 143.696 8.44718 143.253 7.69659C142.81 6.94599 142.25 6.30263 141.556 5.76649C140.862 5.23036 140.05 4.83208 139.091 4.54104C138.131 4.26531 137.024 4.12745 135.754 4.12745L135.769 4.14276Z" fill="#224624"/>
<path d="M159.89 22.4633C159.89 22.065 159.964 21.682 160.126 21.345C160.289 20.9927 160.495 20.7017 160.776 20.4413C161.042 20.1808 161.352 19.9817 161.691 19.8438C162.031 19.706 162.385 19.6294 162.754 19.6294C163.138 19.6294 163.507 19.706 163.846 19.8438C164.186 19.9817 164.496 20.1962 164.776 20.4413C165.057 20.7017 165.278 20.9927 165.44 21.345C165.603 21.6974 165.677 22.065 165.677 22.4633C165.677 22.8615 165.603 23.2445 165.44 23.5815C165.278 23.9185 165.057 24.2249 164.776 24.4853C164.496 24.7457 164.186 24.9448 163.846 25.0827C163.507 25.2205 163.138 25.2971 162.754 25.2971C162.385 25.2971 162.031 25.2205 161.691 25.0827C161.352 24.9448 161.042 24.7304 160.776 24.4853C160.51 24.2249 160.289 23.9338 160.126 23.5815C159.964 23.2292 159.89 22.8615 159.89 22.4633Z" fill="#224624"/>
<path d="M201.533 25.0828H179.449V21.0694C179.449 19.9359 179.656 18.8789 180.069 17.9139C180.483 16.9489 181.132 16.0298 182.018 15.1873C182.903 14.3448 184.04 13.5482 185.413 12.7976C186.786 12.047 188.439 11.3424 190.373 10.6684C191.893 10.1322 193.089 9.71866 193.945 9.4123C194.801 9.10593 195.436 8.84552 195.864 8.58511C196.277 8.34002 196.543 8.09493 196.617 7.84984C196.706 7.60475 196.75 7.28306 196.75 6.88479C196.75 6.33334 196.587 5.87379 196.277 5.50615C195.967 5.15383 195.539 4.87811 194.993 4.70961C194.447 4.54111 193.812 4.40324 193.089 4.34197C192.366 4.2807 191.583 4.23474 190.757 4.23474C189.871 4.23474 189 4.32665 188.129 4.52579C187.258 4.70961 186.431 4.97002 185.649 5.30702C184.867 5.64402 184.158 6.04229 183.523 6.50184C182.889 6.96138 182.372 7.45156 181.988 7.9877L179.125 5.27638C179.73 4.49515 180.468 3.79051 181.368 3.16247C182.254 2.53442 183.228 2.0136 184.247 1.56937C185.28 1.14047 186.358 0.803465 187.465 0.558373C188.587 0.3286 189.679 0.206055 190.757 0.206055C192.233 0.206055 193.62 0.313282 194.875 0.527737C196.145 0.742192 197.237 1.10983 198.167 1.63065C199.097 2.15147 199.805 2.84079 200.322 3.69861C200.839 4.55642 201.09 5.6287 201.09 6.88479C201.09 7.92643 200.868 8.81489 200.411 9.5042C199.953 10.2088 199.333 10.8216 198.536 11.3577C197.739 11.8938 196.779 12.384 195.672 12.8129C194.55 13.2418 193.34 13.7014 192.026 14.1609C190.329 14.789 188.911 15.417 187.79 16.0298C186.668 16.6578 185.767 17.2552 185.103 17.8526C184.439 18.45 183.966 19.0168 183.701 19.5529C183.435 20.1044 183.302 20.5793 183.302 21.0082H197.65L197.975 18.0364H201.518V25.0215L201.533 25.0828Z" fill="#224624"/>
<path d="M214.331 12.7059C214.331 10.7146 214.671 8.93766 215.335 7.3752C215.999 5.81274 216.9 4.48006 218.036 3.39247C219.173 2.30487 220.516 1.47769 222.051 0.895598C223.587 0.313507 225.21 0.0224609 226.937 0.0224609C228.738 0.0224609 230.406 0.313507 231.956 0.895598C233.492 1.47769 234.82 2.30487 235.957 3.39247C237.079 4.48006 237.964 5.79742 238.599 7.3752C239.234 8.95297 239.544 10.7299 239.544 12.7059C239.544 14.682 239.219 16.367 238.599 17.9294C237.964 19.4919 237.079 20.8246 235.957 21.9275C234.835 23.0304 233.492 23.8882 231.956 24.4856C230.421 25.083 228.753 25.3894 226.937 25.3894C225.122 25.3894 223.587 25.0984 222.051 24.5009C220.516 23.9035 219.173 23.061 218.036 21.9581C216.9 20.8552 215.999 19.5225 215.335 17.9601C214.671 16.3976 214.331 14.6513 214.331 12.7059ZM226.937 4.03583C225.609 4.03583 224.413 4.25028 223.35 4.67919C222.288 5.1081 221.387 5.6902 220.649 6.45611C219.911 7.22202 219.335 8.12579 218.922 9.19806C218.509 10.2703 218.302 11.4345 218.302 12.7059C218.302 13.9773 218.509 15.1415 218.922 16.2138C219.335 17.2861 219.911 18.1898 220.649 18.9558C221.387 19.7217 222.288 20.3038 223.35 20.7327C224.413 21.1616 225.609 21.376 226.937 21.376C228.355 21.376 229.595 21.1616 230.672 20.7327C231.75 20.3038 232.635 19.7217 233.359 18.9558C234.082 18.1898 234.628 17.2861 234.997 16.2138C235.366 15.1415 235.558 13.9773 235.558 12.7059C235.558 11.4345 235.366 10.2703 234.997 9.19806C234.628 8.12579 234.067 7.2067 233.359 6.45611C232.635 5.70551 231.735 5.1081 230.672 4.67919C229.595 4.25028 228.355 4.03583 226.937 4.03583Z" fill="#224624"/>
<path d="M274.188 25.0828H252.105V21.0694C252.105 19.9359 252.312 18.8789 252.725 17.9139C253.138 16.9489 253.788 16.0298 254.674 15.1873C255.559 14.3448 256.696 13.5482 258.069 12.7976C259.442 12.047 261.095 11.3424 263.029 10.6684C264.549 10.1322 265.745 9.71866 266.601 9.4123C267.457 9.10593 268.092 8.84552 268.52 8.58511C268.933 8.34002 269.199 8.09493 269.273 7.84984C269.361 7.60475 269.406 7.28306 269.406 6.88479C269.406 6.33334 269.243 5.87379 268.933 5.50615C268.623 5.15383 268.195 4.87811 267.649 4.70961C267.103 4.54111 266.468 4.40324 265.745 4.34197C265.021 4.2807 264.239 4.23474 263.412 4.23474C262.527 4.23474 261.656 4.32665 260.785 4.52579C259.914 4.70961 259.087 4.97002 258.305 5.30702C257.523 5.64402 256.814 6.04229 256.179 6.50184C255.544 6.96138 255.028 7.45156 254.644 7.9877L251.78 5.27638C252.385 4.49515 253.124 3.79051 254.024 3.16247C254.91 2.53442 255.884 2.0136 256.903 1.56937C257.936 1.14047 259.013 0.803465 260.121 0.558373C261.242 0.3286 262.335 0.206055 263.412 0.206055C264.889 0.206055 266.276 0.313282 267.531 0.527737C268.8 0.742192 269.893 1.10983 270.823 1.63065C271.753 2.15147 272.461 2.84079 272.978 3.69861C273.494 4.55642 273.745 5.6287 273.745 6.88479C273.745 7.92643 273.524 8.81489 273.066 9.5042C272.609 10.2088 271.989 10.8216 271.192 11.3577C270.395 11.8938 269.435 12.384 268.328 12.8129C267.206 13.2418 265.996 13.7014 264.682 14.1609C262.984 14.789 261.567 15.417 260.445 16.0298C259.323 16.6578 258.423 17.2552 257.759 17.8526C257.094 18.45 256.622 19.0168 256.356 19.5529C256.091 20.1044 255.958 20.5793 255.958 21.0082H270.306L270.631 18.0364H274.174V25.0215L274.188 25.0828Z" fill="#224624"/>
<path d="M286.854 14.6669L304.937 0.252441H307.904V14.6669H310.547V18.6802H307.904V21.0546H310.458V25.0679H301.498V21.0546H304.037V18.6802H286.854V14.6669ZM304.037 6.16527L292.848 14.6669H304.037V6.16527Z" fill="#224624"/>
</svg>
