<svg width="53" height="119" viewBox="0 0 53 119" fill="none" xmlns="http://www.w3.org/2000/svg">
<g clip-path="url(#clip0_1136_784)">
<path d="M30.3675 0.909943C30.2247 0.796331 30.0819 0.600092 29.9085 0.558779C29.1436 0.378033 28.4041 0.150809 27.5678 0.207615C26.0175 0.321227 24.9007 1.09069 24.0338 2.27845C23.5952 2.87233 23.3096 3.57983 22.9577 4.23568C22.5957 4.90702 22.5345 5.68165 22.2693 6.38914C22.1265 6.76096 22.0296 7.23607 22.0398 7.66986C22.05 8.11398 21.8256 8.28956 21.484 8.41866C21.4228 8.38251 21.3718 8.32054 21.3208 8.32054C20.6323 8.32054 19.9337 8.18111 19.2503 8.32571C18.414 8.50129 17.8479 9.00738 17.5827 9.83881C17.3023 10.7219 17.4298 11.6101 17.6439 12.4674C17.8632 13.3298 18.1896 14.1664 18.4956 15.003C18.8424 15.948 19.2146 16.8776 19.5767 17.8123C19.9031 18.6489 20.2294 19.4803 20.566 20.3118C20.872 21.0657 21.1831 21.8197 21.4992 22.5634C21.795 23.2554 22.1469 23.9267 22.407 24.6342C22.8047 25.7083 23.126 26.8083 23.5136 27.8876C23.6717 28.3266 23.5034 28.8378 23.8247 29.2303C23.8247 30.0101 23.84 30.7899 23.8145 31.5645C23.7992 31.9725 23.687 32.3753 23.6717 32.7833C23.6513 33.5217 23.2688 34.1208 22.9832 34.787C22.8812 34.5597 22.8353 34.3377 22.8149 34.1105C22.7895 33.8781 22.8149 33.6354 22.7691 33.403C22.6518 32.7316 22.5243 32.0603 22.3815 31.3941C22.3305 31.1617 22.2591 30.9138 22.1316 30.7176C21.7083 30.0721 21.2596 29.4472 20.8057 28.8223C20.6425 28.5951 20.4691 28.3576 20.2498 28.1871C19.0973 27.2783 18.2355 26.1215 17.4706 24.8872C17.0014 24.1333 16.5424 23.3793 16.1039 22.615C15.6551 21.8404 15.1553 21.0812 14.8239 20.255C14.268 18.8761 14.0334 17.4198 14.1558 15.9171C14.1966 15.4265 14.5995 15.0288 15.0839 15.003C15.3287 14.9927 15.5888 15.0288 15.8081 14.9565C16.0019 14.8894 16.0988 14.9462 16.2314 15.0546C16.6699 15.4161 17.1136 15.7725 17.5674 16.1133C17.6796 16.2011 17.8683 16.3147 17.9652 16.2785C18.1794 16.1856 18.1182 15.9532 18.0315 15.7983C17.7969 15.3748 17.5114 14.9772 17.2921 14.5434C16.9657 13.903 16.4863 13.588 15.7622 13.6448C15.1757 13.6913 14.5842 13.6603 14.0232 13.9185C13.2889 14.2542 12.9319 14.8016 12.937 15.6588C12.937 15.7363 12.8707 15.8086 12.8656 15.8861C12.8554 16.2062 12.835 16.5264 12.8554 16.8414C12.8707 17.1203 12.9931 17.4095 12.9523 17.6729C12.9115 17.9259 13.0798 18.1015 13.0696 18.3339C13.0594 18.5766 13.0849 18.8193 13.1206 19.062C13.192 19.5681 13.4419 20.0174 13.5898 20.4874C13.7937 21.138 14.1354 21.6854 14.4822 22.2483C15.1094 23.276 15.7214 24.314 16.3384 25.3468C16.6189 25.8116 16.879 26.2971 17.2054 26.7309C17.5573 27.1956 17.9652 27.6191 18.3732 28.0374C18.4752 28.1407 18.5517 28.244 18.6129 28.3524C18.6129 28.3524 20.1784 29.7571 20.8159 31.0533C21.4585 32.3495 22.1826 34.1518 22.0398 34.7973C21.8919 35.448 21.489 36.2743 20.8771 37.0076C20.2651 37.746 19.8878 38.216 19.6838 38.8047C19.4798 39.3934 19.3931 39.8066 19.6838 40.0131C19.9745 40.2197 21.9378 41.2835 21.9378 41.2835H22.0908C22.1163 41.2938 22.1418 41.2938 22.1673 41.2938L24.4876 41.4023C24.6202 41.3558 24.7069 41.2577 24.6457 41.0201C24.6202 40.922 24.7069 40.7516 24.7936 40.6741C25.018 40.4676 25.273 40.2972 25.5126 40.1112C25.9206 39.7911 26.3439 39.5019 26.7366 39.1559C27.1445 38.7944 27.6392 38.5362 28.2052 38.5207C28.6897 38.5052 29.1793 38.5258 29.6688 38.4949C30.7856 38.4226 31.8158 38.1075 32.647 37.2968C33.0703 36.8836 33.1825 36.3724 32.902 35.7475C33.1519 35.7372 33.3762 35.7372 33.5955 35.7165C33.9372 35.6855 34.2942 35.6855 34.6206 35.5874C35.3039 35.386 35.9719 35.1278 36.5329 34.9316C36.793 34.9832 36.9664 35.0607 37.1296 35.0452C37.6701 34.9832 38.2056 34.8799 38.7461 34.8128C39.3887 34.7302 40.0516 34.7457 40.6687 34.5752C41.2551 34.4151 41.8467 34.3222 42.4383 34.3119C44.2027 34.2757 45.9672 34.286 47.7317 34.3015C48.7669 34.3119 49.5879 33.8523 50.3019 33.1551C50.4854 32.9795 50.6639 32.7471 50.7251 32.5096C50.8118 32.1636 50.8373 31.7814 50.7965 31.4303C50.7251 30.8364 50.9342 30.3716 51.3269 29.9688C51.536 29.7519 51.7756 29.566 51.9949 29.3594C52.6375 28.7604 52.7701 28.0219 52.5763 27.1905C52.5457 27.0562 52.5712 26.9168 52.5457 26.7773C52.4437 26.1886 52.3417 25.6464 51.694 25.3468C51.1535 25.099 50.6384 24.8666 50.0316 24.9079C49.6746 24.9337 49.3176 24.8717 48.9607 24.8872C48.2773 24.9182 47.5889 24.9699 47.0483 25.5431C47.084 25.8374 47.1248 26.137 47.1605 26.4262C47.6654 26.5088 47.6654 26.5036 48.0376 26.2919C48.1396 26.2351 48.262 26.1783 48.3742 26.1731C49.1442 26.1628 49.9092 26.1576 50.6792 26.1731C51.0158 26.1783 51.332 26.4365 51.3524 26.6999C51.3881 27.1853 51.4391 27.7379 51.0668 28.1458C50.7251 28.5177 50.4497 28.9463 50.0112 29.2406C49.848 29.3491 49.7154 29.6228 49.6083 29.8603C49.3737 30.3561 49.4349 30.8622 49.4298 31.358C49.4298 32.1326 48.8281 32.8607 47.9815 32.8866C46.7627 32.9227 45.5439 32.964 44.3251 32.9589C43.1012 32.9537 41.8824 32.9175 40.6687 33.1603C40.3219 33.2274 39.9598 33.2016 39.6029 33.2171C40.1077 32.7936 40.6177 32.4837 41.1328 32.1687C41.9436 31.673 42.7442 31.1617 43.5704 30.6866C44.4067 30.2063 45.0136 29.473 45.498 28.6829C45.906 28.0219 45.8346 27.175 45.9417 26.3642C45.5184 26.8651 45.1258 27.3144 44.7433 27.774C44.4067 28.1768 44.0803 28.5848 43.7489 28.9979C43.2542 29.6176 42.4536 29.7932 41.8977 30.3148C41.3316 30.3509 41.0563 30.8725 40.6075 31.1101C39.8171 31.5232 39.1031 32.0809 38.3076 32.4786C37.5171 32.8762 36.8134 33.4081 36.0229 33.8109C35.0489 34.3067 34.08 34.6527 32.9989 34.7353C32.5756 34.7663 32.086 34.7508 31.8056 35.2466C32.086 35.4325 32.3818 35.6287 32.698 35.8353C32.4022 36.1503 32.1676 36.4705 31.8668 36.708C31.5761 36.9353 31.2395 37.1418 30.8927 37.2348C30.3369 37.3794 29.73 37.4723 29.1793 37.3691C28.552 37.2555 28.0013 37.4827 27.4148 37.5292C26.9099 37.5653 26.5632 37.8803 26.196 38.1953C25.3852 38.8925 24.406 39.3831 23.7584 40.2817C23.6819 40.3901 23.4422 40.4366 23.2841 40.4159C22.9475 40.3798 22.6212 40.2817 22.305 40.2094C22.101 39.5793 22.101 39.4657 21.3361 39.8427C21.1321 39.7394 20.923 39.631 20.7088 39.5225C21.0811 38.8718 21.4279 38.2831 21.7542 37.6841C21.9225 37.3742 22.0398 37.0282 22.2132 36.7235C22.2693 36.6254 22.4274 36.5893 22.5447 36.5221C22.5906 36.6409 22.6977 36.7803 22.6671 36.8785C22.5753 37.1677 22.7436 37.2451 23.0036 37.3587C23.2586 37.0695 23.4779 36.6926 23.7992 36.4912C24.1153 36.2949 24.5437 36.2743 24.9211 36.1761C25.2373 36.0883 25.584 35.856 25.8492 35.9334C26.5275 36.1245 27.2057 36.0883 27.884 36.1193C28.093 36.1297 28.3174 36.0677 28.5214 35.9954C28.8835 35.8715 29.2303 35.7114 29.5872 35.5823C29.8881 35.4686 30.2145 35.4067 30.5052 35.2724C31.265 34.9109 31.9688 34.4513 32.6878 34.0123C33.1774 33.7128 33.6822 33.4288 34.1412 33.088C34.5951 32.7471 35.2376 32.7316 35.5742 32.2049C35.5946 32.1739 35.6354 32.1377 35.6711 32.1377C36.3799 32.1068 36.8134 31.4819 37.4508 31.2857C37.6599 31.2185 37.8129 30.9758 38.0016 30.8209C38.073 30.7641 38.1546 30.7228 38.2362 30.6763C38.5371 30.5007 38.8634 30.3561 39.1388 30.1444C39.7049 29.7003 40.2505 29.22 40.8217 28.7397C40.8064 28.6106 40.7911 28.4402 40.7656 28.2026C40.5361 28.2801 40.3423 28.3214 40.174 28.4092C38.7665 29.1735 37.3641 29.943 35.9617 30.7124C35.3141 31.0636 34.6613 31.4096 34.0188 31.7659C33.7536 31.9105 33.5037 32.0809 33.2488 32.241C32.6215 32.6232 31.9942 33.0105 31.367 33.3926C31.112 33.5476 30.8672 33.7128 30.6021 33.8368C29.9187 34.1621 29.2303 34.472 28.4602 34.8231C28.5112 34.6579 28.5112 34.5133 28.5826 34.4668C28.6897 34.3945 28.8886 34.4306 28.9651 34.3429C29.526 33.7335 30.1482 33.1551 30.597 32.4683C31.0865 31.7298 31.3874 30.8622 31.8158 30.0772C32.2237 29.3284 32.3869 28.5022 32.5348 27.6914C32.6725 26.9374 32.7694 26.1834 33.0244 25.4553C33.1264 25.1661 33.2437 24.8769 33.3354 24.6032C33.4527 24.252 33.519 23.8751 33.6924 23.5342C34.0494 22.8267 34.437 22.1451 34.9775 21.5563C35.2988 21.2052 35.7017 21.0348 36.1045 21.1019C36.4513 21.1587 36.7675 21.4479 37.0786 21.6545C37.3692 21.8507 37.6395 22.0779 37.8996 22.2742C38.5014 21.8817 38.7155 21.324 38.7971 20.7146C38.8685 20.193 38.8838 19.6611 38.9297 19.1292C38.9348 19.0465 38.9603 18.9691 38.996 18.8916C39.2153 18.3959 39.4244 17.8949 39.6743 17.4147C39.8731 17.0377 40.0924 16.6607 40.3525 16.3302C40.8064 15.757 41.3214 15.2302 41.7855 14.6622C42.4893 13.7946 43.4123 13.1749 44.1976 12.3951C44.2333 12.3589 44.3098 12.3125 44.3404 12.3279C44.6464 12.4622 44.6413 12.0439 44.8759 12.0284C45.0951 12.0129 45.3093 11.9406 45.5235 11.8838C45.8295 11.8012 46.1304 11.6773 46.4415 11.6308C47.4614 11.4655 47.9611 11.7289 48.3436 12.6688C48.8995 14.0425 48.6496 15.411 48.16 16.7227C47.8081 17.6625 47.4563 18.6179 46.9412 19.4958C46.7474 19.8212 46.676 20.2137 46.523 20.57C46.3395 21.0089 46.1253 21.4324 45.9366 21.8662C45.7581 22.2742 45.5898 22.6873 45.4368 23.1108C45.3195 23.4258 45.2328 23.7511 45.141 24.0765C45.0748 24.3088 45.1767 24.5671 45.3603 24.5826C45.5643 24.6032 45.8652 24.7581 46.0335 24.4431C46.1202 24.283 46.263 24.1488 46.3344 23.9835C46.8392 22.8422 47.3339 21.6906 47.8336 20.5442C48.16 19.7954 48.5221 19.0569 48.8026 18.2926C49.1187 17.4198 49.5777 16.6091 49.7664 15.6743C49.9245 14.8842 49.8786 14.1199 49.8429 13.3505C49.8072 12.5862 49.5471 11.9045 49.0779 11.2641C48.823 10.913 48.6394 10.6289 48.211 10.4224C47.7571 10.2003 47.3492 10.1745 46.8851 10.221C45.2277 10.3965 43.8151 11.1299 42.5555 12.173C41.3061 13.2059 40.2403 14.4298 39.3122 15.7673C38.8328 16.4593 38.4606 17.2236 38.0628 17.9672C37.7976 18.463 37.614 18.9846 37.6446 19.5681C37.6497 19.6972 37.5018 19.8367 37.4151 19.9813C37.2927 19.94 37.2214 19.9141 37.1449 19.8883C36.2779 19.6404 35.4263 19.6456 34.6817 20.2033C33.8046 20.854 33.2131 21.7577 32.7337 22.7338C32.5195 23.1779 32.3665 23.653 32.188 24.1126C31.9535 24.7168 31.6679 25.3055 31.6832 25.9769C31.6832 26.0543 31.6679 26.1473 31.6322 26.2093C31.3925 26.5759 31.3976 26.9942 31.3415 27.4125C31.2803 27.8773 31.1732 28.3369 31.0355 28.7862C30.9029 29.2045 30.7295 29.6125 30.5358 30.0049C30.3522 30.3768 30.2196 30.7744 30.036 31.1462C29.6688 31.895 29.164 32.5044 28.5775 33.0518C27.8432 33.7335 26.9303 34.1518 26.043 34.5907C25.89 34.6682 25.7115 34.6837 25.4565 34.7508C25.7523 34.2396 25.9512 33.8006 26.2317 33.4288C26.8232 32.649 27.1649 31.7504 27.5168 30.8519C28.0726 29.4369 28.4806 27.9806 28.6744 26.4726C28.8478 25.1506 29.0059 23.8183 29.0926 22.4911C29.1793 21.1484 29.1589 19.8005 29.2099 18.4527C29.2762 16.671 29.3374 14.8945 29.2354 13.1129C29.2201 12.8547 29.1538 12.6017 29.113 12.3589C28.6081 12.5035 28.5061 12.865 28.5367 13.3091C28.5469 13.4951 28.5316 13.681 28.5061 13.8617C28.4347 14.404 28.2919 14.9462 28.3021 15.4833C28.3123 16.0203 28.1083 16.5161 28.2001 17.0842C28.297 17.6677 28.1236 18.2977 28.1185 18.9174C28.1185 20.0897 28.037 21.2568 28.0268 22.4291C28.0217 23.4103 27.8687 24.3708 27.7718 25.3417C27.7157 25.8839 27.6698 26.4313 27.5423 26.9529C27.1802 28.404 26.8283 29.8552 26.2062 31.234C25.6452 32.4837 24.967 33.6509 24.1714 34.756C24.1154 34.8335 24.0083 34.8748 23.9216 34.9264C23.9726 34.5236 24.1255 34.1983 24.2326 33.8574C24.5131 32.995 24.6763 32.1119 24.7273 31.203C24.7528 30.7383 24.9313 30.2735 24.8956 29.819C24.8038 28.559 24.5845 27.3144 24.1153 26.1266C23.9522 25.7135 23.8604 25.2642 23.7125 24.8459C23.4932 24.2159 23.2688 23.5859 23.0189 22.9662C22.8557 22.5634 22.6314 22.1864 22.4631 21.7836C22.0602 20.823 21.6879 19.847 21.2851 18.8865C20.9842 18.1686 20.6272 17.4766 20.362 16.7537C19.8419 15.3438 19.388 13.9082 18.8678 12.4984C18.6282 11.8477 18.5874 11.197 18.6486 10.5257C18.7047 9.91628 18.9596 9.6684 19.5767 9.66323C20.26 9.6529 20.9434 9.59093 21.6114 9.88529C22.0296 10.0712 22.5753 9.73037 22.7028 9.27075C22.9424 8.40317 23.1668 7.53042 23.4065 6.66284C23.5748 6.03281 23.7023 5.38212 23.942 4.78308C24.202 4.12723 24.5947 3.54884 25.0537 3.00144C25.7217 2.20615 26.4357 1.66908 27.5474 1.70006C28.5316 1.73105 29.424 1.93762 30.1839 2.56248C30.7754 3.04791 31.3262 3.57983 31.8719 4.1169C32.1115 4.35445 32.3512 4.63848 32.4889 4.94317C33.0193 6.13093 33.5088 7.33419 34.0137 8.53228C34.3758 9.38953 34.7021 10.2623 34.6256 11.2228C34.6205 11.3054 34.6256 11.3881 34.6256 11.4604C34.6715 11.481 34.7123 11.4914 34.7378 11.512C34.8398 11.5998 34.9316 11.6876 35.0285 11.7805C35.207 11.9458 35.5589 11.8735 35.7578 11.7082C36.0841 11.4345 36.3289 10.9749 36.9613 11.135C37.0225 11.3106 37.1602 11.543 37.1755 11.7805C37.2061 12.2505 37.1704 12.7204 37.1602 13.1955C37.1551 13.5674 37.2672 13.872 37.6293 14.0373C37.7976 13.996 37.971 13.9495 38.175 13.8979C38.3637 12.8599 38.6084 11.8167 38.3841 10.7374C38.2872 10.2674 38.2566 10.2984 37.7568 9.81299C37.5273 9.58577 37.3131 9.54445 37.0378 9.56511C36.6247 9.5961 36.2116 9.62192 35.8751 9.64258C35.615 8.9041 35.3957 8.2121 35.1356 7.54075C34.8959 6.92621 34.6256 6.32201 34.3503 5.72296C34.08 5.12908 33.723 4.56618 33.5343 3.95165C33.3252 3.25965 32.5246 3.09956 32.3563 2.41788C32.0146 2.4592 31.9943 2.13385 31.8209 1.97376C31.7036 1.86532 31.6475 1.77236 31.6373 1.67941L30.3828 0.925436L30.3675 0.909943Z" fill="#004722"/>
<path d="M1.0242 52.738C1.30978 52.645 1.58516 52.6915 1.77384 52.9652C1.87074 53.1046 1.93703 53.2699 2.05942 53.3783C2.73767 53.9671 3.17114 54.7572 3.6658 55.4853C4.22166 56.3064 4.63982 57.2257 5.26708 58.0158C5.50676 58.3153 5.63935 58.7801 5.94023 58.9453C6.50628 59.2552 6.65417 59.8542 7.01624 60.288C7.44971 60.8044 7.69449 61.4809 8.01577 62.0903C8.16876 62.3795 8.35234 62.6584 8.45433 62.9682C8.73481 63.7997 9.14278 64.5743 9.58645 65.3179C9.87203 65.793 10.0556 66.294 10.127 66.8362C10.1831 67.2493 10.1933 67.6676 10.2494 68.0808C10.3004 68.4836 10.3208 68.907 10.4585 69.2789C10.6115 69.6868 10.8614 70.069 11.1265 70.415C11.4376 70.823 11.7742 71.2309 12.1669 71.5511C12.6717 71.9539 13.2684 72.2328 13.7885 72.6149C14.0894 72.837 14.3954 73.1262 14.5586 73.4567C14.7473 73.844 15.0838 74.097 15.2776 74.4276C15.6448 75.0576 15.8743 75.7754 16.1343 76.4622C16.3842 77.1181 16.6086 77.7791 16.8483 78.435C16.8585 78.466 16.9554 78.4711 17.0013 78.4814C16.9605 78.1974 16.8687 77.9185 16.8993 77.6552C16.9605 77.1078 17.0778 76.5759 16.935 76.0181C16.8687 75.7496 16.8228 75.4036 16.935 75.1815C17.1033 74.851 16.8483 74.5515 16.986 74.2571C16.68 74.0041 16.9503 73.6839 16.9452 73.4205C16.935 72.806 16.9962 72.6149 16.833 72.0933C16.8075 72.0004 16.8585 71.8816 16.884 71.7783C16.9095 71.675 16.986 71.5769 16.986 71.4788C16.986 70.8591 16.9758 70.2342 16.9452 69.6145C16.9299 69.3357 17.1288 69.0465 16.9095 68.7831C17.1696 68.6075 17.0931 68.4268 16.9248 68.2409C16.9044 68.215 16.9248 68.1582 16.9248 68.1118C16.9809 67.3888 16.935 66.6658 16.9299 65.9428C16.9299 64.9306 17.0115 63.9184 17.0523 62.9063C17.0625 62.6067 17.0523 62.3021 17.0421 62.0025C17.0319 61.6514 16.9248 61.2692 17.0319 60.9645C17.139 60.6702 17.1492 60.4326 17.1339 60.1279C17.0829 59.1261 17.0982 58.1191 17.1033 57.1121C17.1033 56.8332 17.2155 56.544 17.1798 56.2755C17.0625 55.3459 17.3175 54.4525 17.5418 53.5952C17.8274 52.5056 17.9498 51.3953 18.1385 50.2902C18.2558 49.6033 18.3374 48.9113 18.5057 48.24C18.7301 47.3208 19.0054 46.4119 19.291 45.503C19.5409 44.7129 19.801 43.9331 20.1783 43.1843C20.4537 42.6317 20.6016 42.0171 20.8107 41.4336L21.9071 41.8829C21.8 42.0481 21.7337 42.2289 21.8867 42.4613C21.9122 42.5026 21.8765 42.5904 21.851 42.6523C21.7286 42.9983 21.6521 43.3753 21.4583 43.6749C21.2799 43.9537 21.5348 44.4185 21.0657 44.5528C21.0402 44.5579 21.0147 44.6922 21.0402 44.7232C21.3258 45.0847 21.0198 45.3274 20.877 45.6063C20.7495 45.8541 20.5863 46.0917 20.5149 46.3551C20.4792 46.4893 20.6934 46.7424 20.6373 46.8198C20.3874 47.1658 20.5914 47.6461 20.2752 47.956C20.2395 47.9921 20.2497 48.0799 20.2497 48.1419C20.2599 48.5343 20.1783 48.8855 19.8265 49.1127C19.9795 49.216 20.2191 49.309 19.8928 49.4949C20.2089 50.0784 19.5562 50.6103 19.801 51.1939C19.8112 51.2197 19.7806 51.292 19.7551 51.3023C19.2961 51.4883 19.5919 51.7775 19.6072 52.1235C19.6888 51.9789 19.7245 51.9221 19.7551 51.8704C19.7755 52.0202 19.7551 52.1544 19.699 52.268C19.4338 52.7845 19.3573 53.3319 19.4185 53.9051C19.4287 54.0135 19.4644 54.1426 19.4185 54.2304C19.3522 54.3595 19.2247 54.4577 19.1227 54.5713C19.3879 54.8966 19.3522 55.3821 19.0207 55.7332C19.3879 56.3942 19.3879 56.4769 18.9595 56.9933C19.0819 57.0656 19.2043 57.1379 19.3471 57.2205C19.2247 57.2721 19.1329 57.3135 19.0921 57.3341C19.1533 57.5717 19.2655 57.7886 19.2502 57.9951C19.2349 58.2069 19.1023 58.4083 19.0003 58.6561C19.1431 58.7904 19.4542 58.9195 19.2757 59.2604C19.1686 59.25 19.0666 59.2345 18.8881 59.2139C18.9697 59.3895 18.9901 59.5082 19.0615 59.5702C19.4032 59.8904 19.3369 60.3087 19.2298 60.6598C19.1584 60.9026 19.1788 61.0627 19.2604 61.2744C19.3369 61.4655 19.3624 61.6772 19.3981 61.8218C19.2298 61.9199 19.1023 61.9922 18.9544 62.08C19.2026 62.3107 19.325 62.5448 19.3216 62.7823C19.2502 62.6894 19.189 62.6067 19.1227 62.5241C19.0921 62.5396 19.0666 62.5499 19.036 62.5654C19.1584 62.9011 19.2757 63.2419 19.3981 63.5776C18.9544 63.8152 19.6939 64.2283 19.2808 64.4762C19.1839 64.3987 19.0972 64.3264 19.0105 64.2541C19.0003 64.533 19.0258 64.786 19.1482 64.9719C19.2808 65.163 19.0105 65.4264 19.3267 65.5813C19.4491 65.6433 19.5817 65.9686 19.2502 66.0977C19.1992 66.1184 19.1482 66.1442 19.0156 66.2113C19.1635 66.3198 19.2655 66.3973 19.3216 66.4437C19.2604 66.8052 19.138 67.1461 19.1584 67.4714C19.1788 67.7709 19.0666 68.1789 19.495 68.3338C19.5358 68.1066 19.5766 67.8845 19.6174 67.6676C19.5205 67.6057 19.4389 67.554 19.3471 67.4972C19.4746 67.4043 19.6684 67.3371 19.6786 67.2442C19.7602 66.4747 20.3211 65.8912 20.4435 65.132C20.5149 64.7086 20.7597 64.3161 20.9076 63.903C21.1269 63.2781 21.2697 62.6119 21.5603 62.0232C22.1621 60.7993 22.9423 59.7406 24.2223 59.1003C24.7986 58.8111 25.2933 58.2998 25.7471 57.8144C26.3132 57.2102 26.7976 56.5233 27.3229 55.8778C27.8329 55.2529 28.4448 54.6901 28.8375 53.998C29.6687 52.5314 30.5459 51.1423 32.0553 50.2953C32.8917 49.8254 33.7637 49.4897 34.702 49.2728C35.3701 49.1179 36.0687 48.9681 36.6756 48.5343C37.6445 47.8372 38.7511 47.5428 39.9495 47.6874C40.2198 47.7184 40.5003 47.8217 40.7502 47.7649C41.6018 47.5738 42.4381 47.3414 43.3306 47.3931C43.764 47.4189 44.2077 47.3208 44.6463 47.2743C44.8554 47.2536 45.0644 47.2226 45.2531 47.1968C45.2837 47.3827 45.3245 47.5325 45.3245 47.6823C45.3143 48.0076 45.2837 48.3278 44.9879 48.5498C44.3505 49.0353 43.6824 49.4897 43.096 50.032C42.0659 50.9873 40.9185 51.8343 40.1433 53.053C39.9852 53.306 39.7456 53.5075 39.5569 53.745C39.1183 54.2872 38.6491 54.814 38.2514 55.3872C37.8128 56.0224 37.4456 56.6989 37.0479 57.3599C36.5991 58.1139 36.1452 58.8627 35.7016 59.6167C35.4007 60.1383 35.0233 60.634 34.8397 61.1969C34.5235 62.173 33.8708 62.8959 33.1569 63.5105C32.1726 64.3626 31.1323 65.1578 30.0002 65.824C29.3372 66.2165 28.6743 66.6296 28.0674 67.1047C27.4453 67.5902 26.8843 68.1582 26.2928 68.685C26.2112 68.7573 26.0888 68.8864 26.0327 68.8606C25.6808 68.7211 25.6043 69.0723 25.4105 69.1962C25.2729 69.284 25.1658 69.4286 25.0281 69.5216C24.513 69.8624 23.9674 70.1671 23.4727 70.5441C22.978 70.9211 22.565 71.4117 22.0703 71.7887C21.4277 72.2741 20.9331 72.9403 20.214 73.3224C20.0712 73.3999 19.9387 73.5083 19.8214 73.6219C19.6939 73.7407 19.5001 73.8802 19.495 74.0196C19.4848 74.3036 19.2043 74.1693 19.1737 74.2778C19.1278 74.4276 19.1941 74.6135 19.1839 74.7787C19.1788 74.8562 19.1074 74.9336 19.0819 74.975C19.2247 75.0679 19.3216 75.1299 19.3471 75.1402C19.2502 75.3726 19.1533 75.5327 19.1227 75.7134C19.0819 75.9458 19.1023 76.1885 19.0921 76.4261C19.4644 76.4468 19.2655 76.6533 19.2094 76.8082C19.1533 76.9683 19.0819 77.1284 19.0207 77.2782C19.1686 77.366 19.2757 77.4331 19.3318 77.4641C19.2349 77.7016 19.1482 77.9134 19.0462 78.1561C19.7041 78.5951 19.393 79.2044 19.4083 79.7931C19.2757 79.7312 19.189 79.6899 18.985 79.5917C19.1176 79.8086 19.189 79.9326 19.2655 80.0462C19.3012 80.103 19.393 80.1495 19.3879 80.1959C19.342 80.5936 19.1941 80.9602 19.2451 81.3992C19.3012 81.9208 19.2196 81.9208 19.3726 82.2668C19.4287 82.3959 19.3828 82.5715 19.3828 82.778C19.2451 82.6902 19.1839 82.6438 19.0615 82.5663C19.1125 82.778 18.8932 83.0362 19.3216 83.0311C19.495 83.0311 19.5358 83.2067 19.3981 83.3668C19.3165 83.4597 19.1839 83.5682 19.189 83.6663C19.2145 83.9761 19.3063 84.286 19.342 84.5958C19.3624 84.7714 19.3216 84.9573 19.3114 85.1639C19.3318 85.1897 19.4695 85.2775 19.4644 85.3601C19.4542 85.5254 19.3879 85.701 19.3012 85.8404C19.1482 86.0934 19.0411 86.3103 19.2604 86.5995C19.3573 86.7286 19.3828 86.9972 19.3216 87.1418C19.0207 87.8183 19.0054 87.8183 19.3318 88.2417C19.2859 88.3502 19.189 88.4638 19.2145 88.5258C19.3165 88.7891 19.4032 89.0009 19.0666 89.1765C18.9799 89.2229 18.9289 89.4553 18.9595 89.5844C19.0258 89.8788 18.8218 90.2041 19.0717 90.4675C18.6842 90.8755 18.9493 91.268 19.0972 91.6656C19.1176 91.7276 19.1635 91.8205 19.138 91.8515C18.8371 92.1923 18.9493 92.6261 18.8524 93.0083C18.7606 93.3749 18.7504 93.6745 18.883 94.0205C18.9289 94.1444 18.8269 94.3303 18.7963 94.4749C18.8983 94.542 19.0054 94.6143 19.1788 94.728C18.7301 94.8777 18.9544 95.1979 18.9136 95.4561C18.8422 95.9622 18.781 96.4683 18.9391 96.9744C18.9646 97.057 18.9391 97.1655 18.9187 97.2584C18.883 97.4392 18.7759 97.6302 18.8065 97.7955C18.8983 98.2706 19.0411 98.7302 19.1329 99.071C18.9952 99.3912 18.7657 99.6701 18.832 99.8147C18.9799 100.15 18.8575 100.45 18.8167 100.842C18.985 100.734 19.0768 100.672 19.1737 100.61C19.1125 101.028 19.0768 101.452 18.9748 101.855C18.9442 101.978 19.2706 102.293 18.8218 102.252C18.8218 102.355 18.7708 102.49 18.8218 102.557C18.9187 102.691 19.0615 102.789 19.2043 102.913C19.1176 103.094 18.9544 103.187 18.9799 103.466C19.0105 103.781 18.8881 104.101 19.1074 104.4C19.1329 104.437 19.1074 104.561 19.0819 104.576C18.674 104.746 19.0564 105.03 19.0207 105.139C18.8218 105.418 18.6893 105.609 18.5312 105.836C18.6128 105.903 18.7097 105.945 18.725 106.001C18.7912 106.275 18.8983 106.564 18.8575 106.833C18.8218 107.091 18.6995 107.329 18.8371 107.592C18.8575 107.628 18.7606 107.768 18.6995 107.788C18.4241 107.876 18.4649 108.062 18.4343 108.299C18.4037 108.547 18.5873 108.837 18.5261 108.909C18.2711 109.203 18.6791 109.343 18.5975 109.611C18.521 109.683 18.4088 109.792 18.3731 109.823V110.789C18.266 110.639 18.2201 110.567 18.0977 110.396C18.1181 110.597 18.113 110.665 18.1283 110.727C18.1844 110.928 18.3731 111.145 18.0518 111.3C18.0161 111.315 17.9957 111.434 18.0161 111.486C18.2099 111.956 17.9906 112.42 18.0008 112.89C18.0008 113.04 17.9651 113.185 17.9447 113.335C18.0263 113.345 18.1232 113.36 18.2048 113.376C18.2558 113.851 17.7713 114.238 18.113 114.693C18.1232 114.708 18.0875 114.786 18.062 114.796C17.7356 114.915 17.9651 115.173 17.9396 115.359C17.909 115.591 18.0467 115.875 17.9651 116.077C17.7254 116.65 17.8784 117.285 17.6132 117.894C17.3838 117.941 17.1186 117.993 16.8789 118.039C16.7871 117.326 16.7004 116.681 16.6188 116.03C16.5219 115.245 16.3791 114.46 16.3536 113.675C16.3179 112.565 16.1547 111.455 16.2924 110.339C16.3944 109.503 16.629 108.682 16.4556 107.814C16.374 107.416 16.4454 106.988 16.4352 106.58C16.4199 106.058 16.6953 105.537 16.4454 105.015C16.4403 105 16.4505 104.969 16.4658 104.953C16.7514 104.586 16.5372 104.153 16.6188 103.75C16.6953 103.378 16.9962 102.955 16.6188 102.562C16.6086 102.552 16.6392 102.479 16.6698 102.454C16.9503 102.18 16.8177 101.891 16.6698 101.638C16.5474 101.421 16.4658 101.255 16.731 101.101C16.7565 101.085 16.7616 100.997 16.7412 100.956C16.4454 100.269 16.7769 99.5668 16.6902 98.8748C16.6647 98.6527 16.4964 98.3635 16.7871 98.1415C16.8483 98.095 16.8279 97.8781 16.7871 97.7593C16.6698 97.4082 16.7106 97.0415 16.6647 96.6852C16.5984 96.1533 16.8126 95.6369 16.5984 95.074C16.4301 94.6298 16.527 94.0566 16.6035 93.5608C16.6647 93.1787 16.5372 92.8275 16.5831 92.4557C16.6647 91.8205 16.7412 91.1853 16.8126 90.5553C16.8177 90.4933 16.782 90.4314 16.7769 90.3694C16.7565 89.8478 16.7616 89.3314 16.9503 88.8305C16.9962 88.7065 17.0676 88.5619 17.037 88.4483C16.8585 87.7925 17.0166 87.1314 17.0013 86.4756C16.986 85.8765 16.9707 85.3085 16.5984 84.8282C16.1292 84.2188 15.6499 83.6198 15.1297 83.0569C14.2985 82.1532 13.4622 81.2546 12.5748 80.4077C12.0088 79.8654 11.3968 79.3439 10.7237 78.9565C9.89242 78.4763 9.05099 78.0373 8.36254 77.3453C7.99027 76.9735 7.5874 76.6327 7.23553 76.2453C6.3278 75.2383 5.46596 74.2003 4.9203 72.9248C4.79791 72.6408 4.65002 72.3825 4.64492 72.0624C4.64492 71.9591 4.61943 71.8455 4.56843 71.7577C4.15026 71.0089 4.23186 70.1619 4.11966 69.3512C4.02787 68.7005 3.99727 68.0395 3.95648 67.3836C3.91568 66.7432 3.89528 66.1029 3.86468 65.4625C3.85448 65.225 3.83409 64.9926 3.82899 64.755C3.81369 64.2386 3.6454 63.779 3.44142 63.2987C3.23233 62.8185 3.27823 62.2452 3.09464 61.7288C2.94165 61.3105 2.90596 60.8458 2.77847 60.412C2.67647 60.0556 2.3348 59.658 2.42149 59.3895C2.57448 58.8989 2.21241 58.651 2.14611 58.2843C2.07472 57.8609 1.95233 57.4322 1.78914 57.0346C1.48316 56.2703 1.11089 55.537 0.804917 54.7727C0.651928 54.3905 0.560135 53.9722 0.483641 53.5643C0.422446 53.2286 0.662127 52.8981 1.0344 52.7741L1.0242 52.738ZM21.3003 69.4648C22.0958 68.024 22.8913 66.578 23.7838 65.1992C24.1764 64.5898 24.7476 64.063 25.3289 63.6344C26.2928 62.9166 27.1189 62.0593 27.9858 61.2434C28.5111 60.7528 29.0619 60.288 29.5361 59.7509C30.2858 58.904 31.0864 58.0881 31.5811 57.0398C31.7188 56.7506 31.9839 56.5285 32.1624 56.2548C32.4123 55.8726 32.8815 55.7281 33.0804 55.2788C33.167 55.0877 33.4475 54.9844 33.6668 54.8243C33.8606 54.9379 34.0442 55.0464 34.2176 55.1497C34.1972 55.3562 34.1972 55.5215 34.1615 55.6816C34.1309 55.8158 34.0799 55.9553 34.0034 56.0637C33.2639 57.0914 32.3256 57.959 31.7545 59.1261C31.4944 59.6477 30.964 60.0298 30.5866 60.4998C29.9696 61.2641 29.0823 61.7547 28.5672 62.6171C28.5468 62.6532 28.5162 62.6997 28.4805 62.7152C27.8431 62.9941 27.4147 63.5518 26.9353 64.0114C26.2163 64.7034 25.3748 65.2405 24.6813 65.9738C24.0693 66.6193 23.641 67.3475 23.2126 68.0963C22.9984 68.4681 22.7434 68.8141 22.5191 69.1756C22.4324 69.315 22.3814 69.4751 22.2845 69.6765C22.6772 69.6765 22.8097 69.377 23.0392 69.253C24.3447 68.5507 25.5278 67.6418 26.6344 66.6761C27.7003 65.7466 28.9395 65.1062 30.0461 64.2593C30.4796 63.9288 30.913 63.6086 31.3465 63.2833C31.678 63.0302 32.0094 62.7823 32.3409 62.5293C32.7795 62.1988 33.1059 61.8011 33.3659 61.2847C33.7586 60.5101 34.1003 59.7045 34.7224 59.0383C35.0998 58.6355 35.2732 58.0313 35.5384 57.52C35.6506 57.3031 35.7424 57.0707 35.8902 56.8797C36.186 56.5027 36.4206 56.0895 36.645 55.6661C36.8745 55.2271 37.1702 54.8192 37.4711 54.4267C37.7312 54.0858 38.0423 53.7812 38.333 53.4558C38.6899 53.0582 39.1336 52.7018 39.3733 52.2422C39.6691 51.6742 40.077 51.2352 40.5258 50.8221C41.1479 50.254 41.7854 49.7015 42.4126 49.1386C42.4687 49.0869 42.4891 48.9991 42.5707 48.8287C41.8058 48.9113 41.1632 48.9991 40.5207 49.0404C39.9954 49.0766 39.4651 49.0714 38.9449 49.0456C38.3381 49.0146 37.8485 49.309 37.3589 49.593C36.6348 50.0061 35.8647 50.2798 35.059 50.4812C34.1564 50.7136 33.2435 50.9563 32.4531 51.4831C31.5199 52.1028 30.7141 52.8568 30.1583 53.8689C29.7656 54.5816 29.3627 55.3098 28.8375 55.9191C28.1439 56.7196 27.4708 57.5355 26.7619 58.3205C26.4713 58.6407 26.1806 58.966 25.9307 59.3172C25.6808 59.6735 25.3238 59.8801 24.9567 60.0298C23.4625 60.6237 22.5701 61.765 22.0193 63.2368C21.7592 63.9391 21.5297 64.6569 21.2187 65.3334C20.6424 66.5832 20.2956 67.8845 20.1426 69.253C20.0865 69.7436 19.8979 70.2136 19.801 70.699C19.7347 71.0089 19.7245 71.329 19.6735 71.7473C20.4078 71.0295 20.8566 70.2652 21.2901 69.4751L21.3003 69.4648ZM19.1635 69.4493C19.5256 69.1704 19.2706 68.9948 19.2604 68.8038C19.1992 68.8089 19.138 68.8193 19.0768 68.8244C19.1023 69.0103 19.1278 69.2014 19.1584 69.4441L19.1635 69.4493ZM3.43632 58.1501C3.80859 59.4566 4.18596 60.7631 4.56843 62.0697C5.08859 63.8461 5.33337 65.6639 5.33337 67.5076C5.33337 69.1653 5.60875 70.7662 6.11871 72.3257C6.19521 72.5633 6.3227 72.806 6.48078 72.9971C6.95505 73.5806 7.30182 74.2675 7.85258 74.789C7.99537 74.9233 8.04636 75.1609 8.16366 75.4088C8.29625 75.4346 8.48493 75.4759 8.69401 75.5224C8.74501 75.636 8.77051 75.8167 8.8776 75.9148C9.17848 76.204 9.48956 76.4932 9.83123 76.7308C10.1933 76.9838 10.5452 77.2472 10.9939 77.3918C11.3815 77.5157 11.815 77.6758 12.0955 78.1251C12.2484 78.373 12.6513 78.5382 12.9012 78.7913C13.1868 79.0805 13.4775 79.3645 13.7579 79.6537C14.2271 80.1288 14.6963 80.5988 15.1552 81.0842C15.2419 81.172 15.2623 81.3217 15.349 81.4095C15.4357 81.4922 15.5683 81.5283 15.6856 81.5851C15.7111 81.549 15.7417 81.518 15.7672 81.4818C15.6601 81.2908 15.5683 81.0945 15.4459 80.9138C15.0838 80.3973 14.7269 79.8706 14.3291 79.3852C13.8446 78.8016 13.3041 78.2645 12.8094 77.6913C12.5136 77.3453 12.2484 76.9683 11.9731 76.6068C11.7283 76.2815 11.509 75.951 11.1826 75.6825C10.4687 75.0937 9.79553 74.4482 9.14278 73.7924C8.77051 73.4205 8.54613 72.9351 8.36254 72.3102C9.05609 72.3412 9.54565 72.6201 9.96892 72.9816C10.6166 73.529 11.2336 74.1125 11.8456 74.7013C12.1057 74.9543 12.3504 75.2383 12.5442 75.543C13.0236 76.2918 13.5692 76.9787 14.1455 77.6552C14.7575 78.373 15.3541 79.1115 15.9457 79.8448C16.1191 80.0565 16.2669 80.2941 16.527 80.4748C16.3638 80.0617 16.1853 79.6589 16.0426 79.2406C15.8335 78.6209 15.6601 77.9857 15.451 77.3608C15.349 77.051 15.2113 76.7514 15.0838 76.4519C14.5841 75.2745 13.9925 74.19 12.8808 73.4464C12.0343 72.8783 11.1979 72.2896 10.5197 71.4995C9.81593 70.6784 9.25497 69.8108 9.18358 68.685C9.15808 68.277 9.04079 67.8742 8.99999 67.4662C8.9031 66.4902 8.38804 65.6949 7.94947 64.8635C7.75059 64.4917 7.6078 64.0889 7.44461 63.6964C6.88365 62.3382 6.08811 61.1195 5.25178 59.9214C5.07839 59.6683 4.84381 59.4618 4.65512 59.219C4.24205 58.6871 3.83918 58.1449 3.34962 57.4942C3.38532 57.7886 3.38532 57.9796 3.43632 58.1501Z" fill="#004722"/>
</g>
<defs>
<clipPath id="clip0_1136_784">
<rect width="52.1945" height="117.81" fill="white" transform="translate(0.463379 0.202637)"/>
</clipPath>
</defs>
</svg>
