<?xml version="1.0" encoding="UTF-8"?><svg id="Layer_2" xmlns="http://www.w3.org/2000/svg" viewBox="0 0 501.54 349.51"><defs><style>.cls-1{fill:var(--color-primary);}</style></defs><g id="Layer_1-2"><path class="cls-1" d="m244.57,290.35c-.37-1.08,1.28-1.86.23-3.23-.98-1.28,2.47-1.02,1.48-3.11-.37-.79.91-2.36,1.65-4.08-.05-.3-.58-1.43-.33-2.36.78-2.93,1.81-5.8,2.8-8.67.85-2.45,1.81-4.56.72-7.56-.79-2.16.77-5.17,1.28-7.8.22-1.15.66-2.06.08-3.5-.47-1.15,1.01-3.08,1.55-4.48-.27-1.46-1.21-3.25-.72-4.45,1.88-4.64.33-9.15.23-13.73-.12-5.6-.84-11.15-2.28-16.45-.96-3.52-.6-7.44-2.82-10.62-.14-.2-.22-.51-.18-.75.59-3.68-1.83-6.5-2.93-9.66-1.07-3.09-3.12-5.83-4.66-8.76-.66-1.25-.94-2.73-1.73-3.88-1.06-1.56-2.32-3.03-3.73-4.28-.8-.71-2.65-.13-2.6-2.04-1.56-.1-3.11-.21-4.56-.3-1.51,3.56-1.26,7.52-4.27,10.41.25.61.85,1.4.81,2.16-.24,4.88-.19,9.83-1.13,14.58-.49,2.49-.74,4.8-.53,7.26.06.73-.07,2.02-.43,2.14-3.24,1.13-1.77,4.1-1.47,5.56.55,2.76-.79,4.99-.81,7.49,0,.12-.04.3-.12.36-2.53,1.9-1.73,4.71-1.98,7.24-.32,3.17-2.03,5.62-4.53,8.08.89.42,1.48.7,2.24,1.07-1.11,2.19-2.24,4.41-3.47,6.83,1.12.69,1.68,1.57.39,3.06-1.06,1.22-2,2.55-1.05,4.67.39.88-1.29,2.7-2.24,4.47.92,1.27.63,3.05-.26,4.9-1.64,3.39-2.2,7.27-4.83,10.23-.34.38-.18,1.42.06,2.04.77,2.03.77,3.91-.41,5.82-.8,1.3-1.62,2.68-1.97,4.14-.48,2.04-1.62,3.38-3.22,4.59-3.08,2.35-6.04,4.85-9.08,7.25-1.88,1.49-3.94,2.77-5.68,4.39-2.91,2.72-6.2,5.06-8.24,8.7-.81,1.44-2.46,2.74-4.02,3.36-2.89,1.14-4.49,3.6-6.74,5.38-1.67,1.32-2.82,3.92-5.72,3.31-.35-.07-1.12.37-1.17.67-.44,2.55-2.96,3.03-4.57,3.78-1.34.62-1.9,1.36-2.56,2.49-1.35-.09-2.74-.25-4.13-.27-1.17-.02-2.34.11-3.68.18-.16-.75-.41-1.93-.67-3.17,1-2.31,3.06-3.04,5.36-3.42.34-3.09,4.31-.99,5.01-3.59-2.26-4.97-4.87-9.78-8.02-14.37-2.13-3.1-2.48-7-.14-10.57.33-.5.52-1.2.5-1.79-.1-3.52-2.4-6.7-1.58-10.37-2.34-2.43-2.68-5.72-3.75-8.7-1.61-4.44-3.63-8.81-4.53-13.39-.43-2.19-2.28-4.47-.88-7,.07-.13-.62-.62-.85-1-1.11-1.77-1.96-3.58-.39-5.53-1.37-2.09-2.73-4.16-4.2-6.4-3.65.51-7.43.2-10.85-2.53-1.77-1.41-3.79-2.36-3.8-5.06,0-.33-1.01-.55-1.29-.99-.84-1.35-3.03-1.92-2.26-4.27.2-.61-.45-1.94-1.08-2.29-2.52-1.4-2.49-3.37-1.65-5.63-5.55-3.17-1.56-8.53-3.28-12.83-.37.15-.9.37-1.4.57-5.02-8.61-10.63-16.83-16.26-25.03-3.09-4.51-6.79-8.46-10.47-12.46-1.01-1.09-1.39-3.21-2.52-3.63-1.65-.62-2.3-1.66-3.21-2.91-2.2-2.99-4.55-5.89-7.06-8.63-2.08-2.26-4.75-4.02-6.66-6.39-3.19-3.97-6.03-8.22-8.92-12.42-.81-1.18-1.77-1.99-2.89-2.87-2.25-1.78-4.13-4.05-6-6.26-2.65-3.13-5.49-6.13-7.13-9.99-.32-.75-.9-1.38-1.84-2.77-1.72,15.06-.2,29.43-1.71,43.8-1.67-1.19-3.16-2.25-4.95-3.52.13-2.26-.17-5,.57-7.42.51-1.66-.99-3.06-.32-3.94,1.74-2.28-.14-4.35.09-6.5.23-2.13-.11-4.31-.06-6.47.02-1.01.18-2.1.6-2.99,1.3-2.74,1.52-5.69,1.27-8.56-.16-1.83.24-2.98,2.13-4.16-2.19-1.78-4.07-3.45-6.1-4.91-1.77-1.27-3.61-2.41-5.82-3.01-1.38-.37-2.51-1.64-3.79-2.43-1.27-.79-2.51-1.84-3.9-2.16-5.51-1.26-7.02-2.89-7.39-8.38-.1-1.53-1.8-2.95-.31-4.59-2.03-3.42.1-6.27,1.09-9.37.81-2.53.94-5.26,1.53-7.87.38-1.7,1.03-2.8,3.41-2.77,1.78.02,3.67-.53,5.94-.47-.48,1.82-1.29,3.8,1.59,4.45-1.95.48-3.91.96-6.03,1.49-.49,1.73-1.09,3.81-1.66,5.91-.13.5-.34,1.1-.18,1.53.87,2.31,1.29,4.59.64,7.06-.48,1.82,1.03,3.69,2.01,4.03,2.83.98,4.74,3,6.96,4.7.3.23.6.64.92.66,3.5.18,5.17,3.83,8.51,4.41,1.41.25,1.81,2.02,3.06,2.89,1.05.73,2.64.6,3.3,1.87.65,1.24,1.03,2.74,1.99,3.66,3.53,3.4,5.22,8.1,8.42,11.67,2.98,3.32,6.26,6.37,9.39,9.56,1.17,1.19,2.26,2.47,3.41,3.68,3.26,3.46,6.7,6.76,9.73,10.41,2.05,2.48,5.01,4.17,6.18,7.49.39,1.11,2.25,1.63,3.17,2.66,4.25,4.79,8.49,9.6,12.55,14.55,3.18,3.88,6.15,7.94,9.09,12.01,1.32,1.83,2.25,3.93,3.51,5.8,1.45,2.16,3.05,4.21,4.64,6.27.16.21.73.09,1.28.14.47-1.65,1.32-3.01.17-4.99-.59-1.01.22-2.98.68-4.43.8-2.56,1.49-5.24,2.82-7.53,1.89-3.24,2.68-7.29,6.62-9.33-1.14-2-2.37-3.39-4.25-4.67-2.71-1.84-6.01-2.78-8.19-5.52-.98-1.23-2.72-1.83-4.07-2.79-3.37-2.39-6.78-4.74-10.04-7.28-1.07-.84-1.73-2.21-2.57-3.35-.3-.41-.5-1.17-.84-1.23-3.16-.51-3.83-4.04-6.33-5.16-1.6-.72-.79-3.51-3.16-3.2-1.34-3.01-5.01-3.47-6.6-6.77-1.53-3.19-5.05-5.58-8.04-7.87-2.46-1.88-4.73-3.77-6.27-6.48-.19-.33-.43-.7-.75-.86-5.48-2.69-7.21-8.29-10.19-12.94-.72-1.12-1.78-2.2-2.94-2.82-1.54-.82-2.86-1.39-1.46-3.35-.9-3.77.31-7.89-2.02-11.46-.69-1.05-.9-2.4-1.42-3.86-2.7.58-4.18-2.97-7.45-1.7.58-3.39-1.91-4.72-3.29-6.82-1.68-2.56-4.47-1.79-6.15-3.73-.51,1.62-.93,2.96-1.52,4.86-1.58-1.15-2.95-1.74-3.68-2.78-.73-1.04-.99-2.51-1.16-3.83-.17-1.33,2.79-4.16,4.29-4.2,2.4-.05,4.81.05,7.21.05.35,0,.71-.21,1.24-.39-.64-3.4-1.87-6.77-1.74-10.09.13-3.14-2.37-6.32.08-9.39-5.15-2.62-8.47-6.72-9.78-12.36-.2-.84-.09-1.75-.1-2.63-.02-1.12.06-2.24-.04-3.35-.2-2.34.68-4.43,2.23-5.89.7-.66,2.54-.11,4.56-.11.34-.58.99-1.77,1.71-2.92,1.29-2.07,2.5-2.21,4.77-1.03,1.76.91,3.68,1.51,5.93,2.41-.87-4.21,2.61-7.11,3.59-11.5,2.21-.36,4.7-.82,7.21-1.16.59-.08,1.55,0,1.81.36,1.24,1.8,3.41,2.01,5.02,3.16.78.56,1.78.91,2.73,1.11,4.22.87,6.56,4.1,5.95,8.37q-.63,4.4,3.83,6.14c1.9.74,2.92,2.73,2.53,4.9-.31,1.78-.53,3.57-.9,5.34-.3,1.44-1.92,2.41-1.43,4.22.11.42-.51,1.29-1.01,1.57-1.67.93-3.38,1.84-5.18,2.47-1.67.58-2.93,2.57-5.29,1.21-.94-.54-2.63.23-3.98.37-1.09.12-2.18.2-3.14.29-2.03,7.08-4.08,14.25-6.27,21.88,4.48-2.29,7.77-6.83,13.65-5.61-.17-.65-.57-1.6-.43-1.69,2.2-1.36,1.44-3.72,1.96-5.61,1.18-4.32,4.2-5.79,8.36-5.48v-2.02c1.12.53,2.12.96,3.09,1.46,2.82,1.45,4.63,3.66,5.29,6.82.17.8.65,1.93,1.27,2.17,1.72.66,2.04,3.45,4.63,2.88.38-.09,1.32,1.64,1.75,2.64.37.86.43,1.87.51,2.82.06.73.08,1.52-.12,2.21-.38,1.29-.93,2.53-1.55,4.18-2.13,1.06-4.62,2.31-7.36,3.67-.18,1.97-.3,4.34-3.21,5.07-.48.12-1.1,1.27-1.18,1.22-2.11-1.39-4.68,1.32-6.58-.68-1.01-1.07-2.91-.72-3.42-2.75-.39-1.57,1.53-3.73-1.09-4.74.16-.33.35-.64.46-.98.91-2.89-.55-5.36-3.44-5.41-1.93-.03-4.04-.04-5.31,2.02-.39.65-1.04,1.14-1.57,1.7-.19-.84-.35-1.97-1.56-1.18-1,.65-.47,1.47.27,2.08-1.53,1.3-3.07,2.6-4.79,4.06-.12,1.57.58,2.8,2.14,3.89,1.05.74,2.16,2.07,2.33,3.27.46,3.21,2.66,6.08,1.88,9.54-.08.35.49.82.7,1.27,1.02,2.17.92,2.59-1.11,4.7,1.62,1.36,3.28,2.67,4.84,4.09.52.48.78,1.23,1.19,1.84.56.81,1.06,1.69,1.74,2.39,2.81,2.89,5.58,5.82,8.56,8.53,2.02,1.85,4.28,3.47,6.57,4.98,1.11.72,1.13,1.66,1.53,2.65.28.69,1.99.7,2.51,1.42.63.86.68,2.14.84,2.72,1.66,1.21,3.06,2.14,4.34,3.21,1.25,1.05,2.36,2.26,3.57,3.37,2.79,2.58,5.41,5.41,8.19,7.89,2.76,2.46,4.7,5.9,8.5,7.44,2.74,1.12,4.86,3.69,7.46,5.26,4.87,2.93,9.01,6.84,13.8,9.86.62.39,1.44.47,2.28.72,1.06-2.31,2.06-4.48,3.08-6.69,1.42.2,2.77.4,4.16.6.92-3.18,1.81-6.29,2.71-9.4.45-1.54-.33-2.57-1.94-2.46-.49.03-.95.39-1.45.53-.36.1-.76.1-1.54.2-.58-1.85-1.18-3.73-1.75-5.62-.07-.24-.14-.63-.02-.75,2.24-2.14,2.06-5.01,2.38-7.73.08-.69.52-1.36.53-2.05.04-2.12.39-4.04,1.87-5.75.71-.82,1.21-2.12,1.21-3.21,0-4.3,2.47-7.45,4.83-10.56,3.51-4.61,7.46-8.84,12.08-12.39.2-.15.52-.16.69-.34,3.04-3.29,3.78-3.37,8.06-4.47,3.56-.91,7.47-.93,10.54-3.42.59-.48,1.41-.72,1.93-1.26,2.28-2.41,4.5-2.58,7.94-1.83,3.27.72,6.17,2.23,9.37,2.9,1.64.34,3.08,1.06,3.37,2.76.33,2.02,1.85,2.25,3.12,2,2.34-.46,3.89.81,4.91,2.27,1.49,2.13,3.2,4.02,4.93,5.92.25.28.51.61.61.97,1.13,3.9,3.29,7.55,3.03,11.81-.1,1.65.1,3.45-.48,4.93-1.47,3.7-.96,7.24-.05,10.92,1.32,5.32,2.62,10.66,3.55,16.06.98,5.67,1.27,11.44.81,17.2-.1,1.28-.54,2.85-2.59,2.07-.3-.12-.77-.02-1.08.14-4.01,2-4.32,2.04-8.3,1.62-.6-.06-1.26.35-1.86.27-1.06-.14-2.35-.19-3.08-.82-1.68-1.47-3.5-1.95-5.59-1.89q-.5,5.22,1.11,7.18c2.34,0,4.32-.03,6.3,0,4.3.08,8.61.44,12.89.22,4.62-.25,8.26,1.26,11.4,4.89.32-.59.67-1.08.87-1.62.77-2.11.7-4.66,3.11-5.9-.17-2.5,1.53-3.77,3.1-5.37,1.95-1.99,3.24-4.6,5.04-6.76,2.58-3.08,5.07-6.35,8.18-8.8,1.39-1.1,2.11-2.63,3.52-3.59,1.49-1.01,2.81-2.27,4.33-3.23,1.15-.73,2.48-1.17,3.74-1.73.44-.2,1.06-.24,1.32-.57,3.11-3.9,7.8-5.44,11.31-7.61,1.18-3.67,2.21-6.89,3.07-9.56-.84-1.16-1.9-1.96-1.91-2.76-.02-2.11-1.04-3.83-1.56-5.74-.58-2.13-1.78-2.26-3.48-1.8.14-.72.28-1.44.51-2.65q-1.59,1.95-.4,2.55c-2.74.5-5.46,2.11-8.43-.09.08-.35.22-.94.4-1.73-3.43.41-2.37-2.7-3.46-4.62-2.65.24-5.36.48-8.2.74-.84-4.68-2.89-8.5-6.12-11.68-2.59,1.76-3.11,1.75-4.57-.53-.64-1-1.02-1.72-2.52-1.81-1.45-.09-2.21-2.38-1.87-4.04.14-.67.45-1.53.18-2.01-1.13-2.01-1.96-3.97-1.42-6.4.16-.71-.99-1.7-.84-2.41.59-2.79,1.04-5.74,2.31-8.24,1.95-3.84,4.21-7.62,6.93-10.93,2.98-3.63,6.65-6.68,11.11-8.79-1.62-1.68-.58-3.41.16-4.56,2.9-4.51,6.03-9.19,10.78-11.65,3.1-1.61,6.44-4.36,10.64-2.86.53.19,1.36.03,1.88-.27,3.02-1.75,6.59-1.46,9.73-2.73.23-.09.52-.12.77-.08,1.61.22,3.24.77,4.8.61,1.46-.16,2.81-1.44,4.26-1.56,2.27-.19,4.56-.11,6.72,1.25,1.27.8,1.31,3.85,3.92,2.33,1.32,1.08,2.74,1.69,4.53,1.47.49-.06,1.17.49,1.6.92,2.05,2.02,4.04,4.09,6.04,6.16.81.84,1.48,1.86,2.41,2.52,2.01,1.41,4.29,2.52,3.3,5.68-.08.24.62.68.88,1.07,1.92,2.94,3.13,6.08,2.38,9.67-.3,1.43-.73,2.84-1.05,4.27-.69,3.09-3.53,4.22-5.43,5.84,1.38,5.14,2.8,10,3.93,14.92.35,1.51-.12,3.21-.2,4.82-.02.48-.07,1,.06,1.45.46,1.59,2.19,2.64,1.21,4.91-.59,1.37.18,3.36.45,5.06.4,2.6-.64,4.77-1.88,6.91-.06.11-.22.17-.27.28-.87,2.22-1.54,4.26-4.63,4.72-2.26.34-4.33,1.36-6.72.53-.7-.24-1.73.03-2.47.37-2.73,1.23-5.41,2.6-8.11,3.89-1.04.5-2.09.98-3.16,1.43-2.95,1.25-5.83,2.74-8.88,3.64-3.4,1-6.08,3.03-8.81,5.08-.12.09-.02.48-.02,1.31,3.28-.64,5.87-2.23,8.13-4.22,1.67.37,3.23.72,4.69,1.05.72,3.9-2.73,4.62-4.51,6.38-1.19,1.17-3.22,1.48-4.86,2.22-.43.2-.85.5-1.18.85-2.47,2.65-3.29,3.06-7.14,3.53-.22.03-.55.04-.64.19-2.97,4.59-8.76,5.39-12.34,9.16-.51.54-1.37.84-1.72,1.45-1.21,2.11-2.96,3.12-5.31,2.83-.82,4.2-3.14,7.02-6.4,9.21-.62.42-.97,1.24-1.47,1.87-1.68,2.1-3.27,4.29-5.1,6.24-.56.6-1.81.56-3.53,1.02,2.22,1.06,3.02,2.67,5.4,2.41,1.46-.16,3.11,1.42,4.66,2.25,3.14,1.68,3.84,5.24,5.93,7.69,3.34,3.9,5.71,8.27,7.21,13.07,1.02,3.25,2.9,6.22,2.55,10-.13,1.39-.24,3.64,1.54,5.13.8.67,2.02,2.15.91,3.73,2.04,3.05.67,6.89,2.42,10.13.88,1.64.54,3.95.68,5.97.24,3.41.39,6.83.67,10.24.06.72.43,1.5.88,2.08,1.71,2.24,2.32,5.13,4.43,7.15.71.68,1.13,1.73,1.47,2.69.81,2.29,1.98,4.65,4.08,5.53,1.93.81.86,2.89,2.6,3.7,1.48.69,2.51,2.44,3.58,3.84.64.84.95,1.92,1.62,3.34,3.16,1.46,7.3,2.54,10.07,5.98.14.17.43.34.64.33,4.55-.36,7.42,2.68,10.68,5.07,1.47,1.08,3.43,1.49,5.5,2.35.43-.16,1.1-2.33,2.26-.36.74,1.26,1.2,2.27,2.89,1.32.33-.19,1.27.13,1.52.5.52.78.94,1.09,1.86.61.4-.21,1.41-.15,1.43-.06.78,3.55,4,1.15,5.84,2.39,2.18,1.48,4.94,2.07,7.29,3.33,1.29.69,2.26,1.99,3.57,3.2.4-.19,1.01-.47,1.87-.88.26,1.23.48,2.32.74,3.56.5.03,1.02.19,1.45.06,2.32-.69,3.16-.41,4.69,1.15.73.75,1.8,1.16,2.95,1.87,2.82-4.2,7.26-3.87,11.32-4.47,3.14-.47,6.3-1.22,9.48-.14,1.92.66,3.87,1.25,6.15,1.99.03.27.18.86.16,1.45-.09,1.98,1.09,2.63,2.79,3,5.55,1.18,11.03,2.77,16.63,3.54,3.38.47,6.15,1.85,9.06,3.44.14,1.64.28,3.32.44,5.33-3.42,1.64-6.94,3.32-9.92,4.75-1.09,3.23-1.68,6.17-3.05,8.68-1.28,2.34-4.2,2.69-6.58,3.57-.57.21-1.19.33-1.73.61-1.39.7-1.09,4.14-3.97,2.42-1.18,2.12-3.39.75-5.06,1.43-1.58.65-3.6.69-5.34.42-2.56-.39-5.05-.44-7.48-2.43-3.31-2.71-7.2-4.67-10.06-8.07-1.26-1.5-3.09-2.52-4.69-3.77.65-1.2,1.08-1.98,1.53-2.81,1.35,1.81,2.65.62,4.19.1,2.36,1.61,5.12,3.04,7.28,5.1,1.6,1.52,3.06,2.8,5.14,3.73,1.38.62,2.47.86,3.91.83,1.36-.03,2.74.48,4.06.74,3.8-4.6,9.55-3.39,14.5-4.65.18-1.41.35-2.75.54-4.24-1.76,0-3.28-.17-4.76.03-4.26.58-4.39.55-5.67-3.54-.11-.35-.21-.69-.48-1.57,5.71-2,11.84-1.99,17.36-4.33,0,0,0-.39-.09-.41-4.12-.84-8.3-1.42-12.35-2.53-3.15-.86-6.62-1.71-7.57-5.58-1.45,0-2.78.03-4.12,0-1.77-.05-3.54-.16-5.31-.23-.72-.03-1.45.01-2.16-.06-3.84-.41-7.44.35-11.05,1.69-1.97.73-4.11,2.29-6.37.51-5.07,1.06-8.26-3.12-12.43-4.59-3.22-1.14-5.92-4.05-9.16-4.75-3.55-.77-6.6-3.67-10.56-2.63-4.6-2-10.08-1.91-13.9-5.78-.18-.18-.34-.52-.53-.54-4.14-.49-7.25-3.12-10.68-5.1-2.97-1.71-5.99-3.33-8.94-5.07-.64-.37-1.18-1.01-1.59-1.64-2.02-3.1-3.72-6.45-6.04-9.3-2.69-3.29-4.36-7.01-5.96-10.84-.13-.31-.42-.56-.8-1.04-1.48,1.34-2.14,2.71-2.18,4.68-.12,5.87-1.05,11.65-2.44,17.36-.47,1.92-.58,3.93-.87,5.9-.13.89.06,2.1-.45,2.6-2.23,2.22-1.16,4.27.15,6.25,2.05,3.1,4.11,6.22,6.46,9.09.98,1.2,2.63,1.98,4.13,2.6,1.89.78,3.92,1.19,5.89,1.76.37.11.77.41,1.09.33,4.09-.94,8.14.31,12.17.14,1.98-.09,3.44-.09,4.77,1.66,1.59-1.24,3.17-1.52,4.96-.66.89.43,2,.47,3.01.53,3.04.18,5.94.65,8.58,2.39,1.05.69,2.25-.65,3.75.03,2.25,1.02,4.86,1.29,7.34,1.76,1.51.28,3.06.48,4.59.45,1.43-.03,2.24,2.62,3.98.85,1.85.84,3.84,1.47,5.51,2.58,2.76,1.82,5.21.98,8.13-.57.83,1.69,1.65,3.36,2.39,4.84-.84,3.12-3.17,2.58-5.09,2.37-6.35-.68-12.67-1.55-18.73-3.77-1.27-.46-2.76-.31-4.15-.5-1.64-.23-3.39-.25-4.89-.87-2.18-.89-4.32-1.45-6.66-1.23-.38.04-.93.18-1.14-.01-2.59-2.39-5.91-1.05-8.82-1.76-.25-.06-.56-.32-.71-.25-7.1,3.63-15.01,1.65-22.87,3.37-1.1,7.59-.03,15.58-2.01,23.18-1.32-.13-2.61-.59-3.63-.24-.63.21-.85,1.64-1.58,2.46.7-4.25-1.35-8.44-.28-12.48.77-2.93.26-5.54.18-8.35-.11-3.82-1.18-7.31-1.93-10.91-.17-.83-1.19-1.82-2.03-2.1-2.98-1-2.95-4.19-4.67-6.08-.21-.23.4-1.21.73-2.11-2.71-.15-3.52,1.18-3.73,3.23-.26,2.54-.25,5.17-.96,7.59-1.26,4.26-2.97,8.39-4.5,12.58,1.24.59,1.66,1.27,1.98,3.24.04.22.2.51.39.6.9.46,1.93.73,2.72,1.32.63.48-.57,1.57,1.28,2.33,2.41.99,1.95,7.68-.26,9.45-.48.38-1.94.33-2.28-.08-1.44-1.76-3.02-3.57-3.81-5.64-.89-2.32-2.46-3.81-4.1-5.45-1.25-1.24-2.1-1.03-3.25,0-2,1.79-4,3.6-6.18,5.16-.76.55-2.03.38-2.48.45-3.53,3.23-6.75,6.3-10.14,9.18-.61.52-1.91.24-3,.33-.69,2.29-1.97,4.31-4.88,4.81-.4.07-.71.74-1.05,1.14-1.13,1.35-1.94,3.14-4.34,2.16-.59-.24-2.51-.28-1.19,1.56-.96.61-1.92,1.23-3.26,2.08.92-3.66.2-4.53-3.04-4.28v-2.89c.73.2,1.39.37,2.19.59.67-1.09,1.61-2.18,2.04-3.43.86-2.49,2.45-2.3,4.54-1.42.18-1.22.01-2.58.6-3.38.72-.97,2.13-1.4,3.14-2.2,2.3-1.84,4.49-3.83,6.81-5.64,3.83-2.98,7.57-6.13,11.66-8.73,3.98-2.54,6.71-6.23,10.01-9.39,2.25-2.15,3.56-4.53,3.4-7.66,1.71-1.05.48-2.24.38-3.53-.2-2.44-1.17-5.21,1.33-7.2-.34,1.28-1.16,2.59.75,3.68l-.75-3.67Zm-99.35-153.32c-.92.21-1.83.42-2.75.63.42.71.83,1.43,1.25,2.14-1.24.5-2.74.69-3.19,2.24-.59,2.05-1.08,4.13-1.62,6.2-.65,1.1-2.02,2.37-1.8,3.27.5,2.1.08,3.65-1.15,5.25-.24.32.07,1.07.15,1.76,2.94-1.21,4.06-3.17,3.9-6.03-.07-1.33.19-2.68.3-4.02-.47-.08-.95-.16-1.4-.24,1.44-.55,2.05-1.53,2.4-3.11.41-1.86,1.5-3.57,2.25-5.36.52-.94,1.03-1.89,1.55-2.82.88-.21,1.76-.41,3.26-.76-2.45-1.79-2.63-.1-3.15.87Zm26.56-35.8c1.37.2,2.84.92,4.05-.94-1.64-.48-3.1-1.16-3.93,1.04-.71.12-1.42.23-2.5.41.86.77,1.42,1.27,2.39,2.13v-2.63Zm72.49-47.01c0,.5-.11,1.04.04,1.5.08.25.56.44.89.53.16.04.58-.3.57-.36-.14-.41-.3-.85-.59-1.15-.22-.24-.64-.29-.97-.43-2.31-.91-3.2,1.18-4.95,2.08,2.99,1.56,3.54-1.27,5.02-2.17Zm-59.37,62.55c2.4-1.05,4.8-2.1,7.53-3.29-.19-.64-.53-1.78-.97-3.23-1.65.75-3.01,1.3-4.31,1.96-1.27.65-2.49,1.41-3.79,2.16.65,1.01,1.12,1.75,1.6,2.48q-2.05.01-1.32,2.22c.53-.97.89-1.64,1.25-2.3Zm-58.98,109.52c.4,2.91,1.86,1.43,3.62.73-.92-1.06-1.66-1.92-2.4-2.77-.6-1.38-1.42-2.7-1.77-4.14-.97-4.1-1.68-8.25-2.63-12.36-1.11-4.82-1.37-9.57.74-14.23-.68-.3-1.15-.5-1.66-.72-2.1,2.65-.99,6.37-3.06,9.01-.2.26.31.99.27,1.48-.12,1.53-.27,3.06-.58,4.56-.09.45-1.12.91-1.04,1.16.87,2.95,1.5,6.02,3.37,8.58,2,2.74,3.92,5.51,5.15,8.71Zm49.27-93.53c-1.03-1.28-2.06-2.56-3.09-3.84-.29.13-.59.25-.88.38.17,1.49.33,2.98.52,4.7,1.42-.54,2.49-.94,3.55-1.35,1.62,1.8,3.24,3.6,4.92,5.48-.82,1.08-1.67,2.18-2.47,3.23-.94-.34-1.71-.62-2.55-.93-.56,1.74-.96,3.24-1.51,4.69-.68,1.78-.38,3.35.93,4.62,1.36,1.32,2.79,1.23,4.56.35,2.31-1.15,4.59-.63,6.58,1.18,3.6,3.28,7.52,5.92,12.7,5.9,1.6,0,3.24-.9,3.33-2.46.14-2.46.37-5.03-.2-7.37-.69-2.83.13-5.86-1.52-8.59-.48-.79.34-2.37.59-3.75-1.29-1.09-2.5-2.41-1.29-4.49.17-.3.31-.85.15-1.08-1.67-2.52-1.81-5.46-2.37-8.29-.29-1.47-1.34-2.61-2.67-1.84-1.57.91-3.59,2.38-3.85,3.88-.39,2.26-1.72,3.27-3.24,4.79-1.09-.54-2.63-.79-3.17-1.66-1.22-1.97-2.25-.73-3.58-.45.21,1.76.52,3.28.51,4.8,0,.53-.73,1.38-1.27,1.5-1.51.35-3.1.4-4.69.6Zm-17.88,179.84c2.33.4,2.36.44,3.5-.75,3.93-4.12,8.33-7.75,12.32-11.83,4.16-4.25,9.06-7.89,14.04-11.18,4.57-3.02,8.16-6.82,11.32-11.14,1.7-2.32,1.59-2.56-.79-4.67.51-2.31.8-4.76,1.61-7.02,2.06-5.7,4.19-11.34,5.68-17.25.43-1.68-.52-3.69.27-4.35,1.87-1.55,1.12-3.63,1.75-5.36.44-1.2.48-2.52,1.18-3.81,1.66-3.06,1.15-4.33-1.86-6.6-.29-.22-.45-.62-.72-1.03.69-.3,1.33-.58,2.03-.89-2.16-.52-3.67-1.64-5.26-3.07-2.34-2.09-5.1-4-8.02-5.08-3.17-1.16-6.72-1.28-10.32-1.89.05,5.7-1.64,10.93-4.02,16.32-2.49-1.25-4.57-2.29-6.47-3.24-3.04.76-5.06,3.29-8.52,3.27-2.24-.02-3.98-.29-5.69-1.59-1.36-1.03-2.78-1.98-4.68-3.32-.34,1.81-.57,2.98-.8,4.18,1.95.16,3.11,1.17,2.76,2.76-.54,2.48.29,5.28-1.79,7.58-1.29.19-2.96-1.77-4.1.74-2.54-2.35-4.8-4.44-7.34-6.8.08-.05-.32.2-.73.43-.53.3-1.04.65-1.61.86-1.87.68-2.77,1.83-2.32,3.64.58,2.34,2.06,4.47,1.5,7.05,2.29,2.63,2.13,5.97,2.77,9.11.28,1.37-.42,3.61,2.13,3.99.26.04.43,1.08.55,1.68.15.71-.02,1.57.32,2.14,2.22,3.7,2.3,8.12,4.36,11.96,1.63,3.04,2.21,6.74,2.78,10.23.42,2.52.99,5.72-.14,7.64-1.9,3.2-.94,4.98,1.25,7.01.75.7,1.4,1.5,2.09,2.26,1.93,2.12,2.4,5.47.94,8Zm135.41-220.08c.67,2.06,1.54,3.54,4.06,3.38,1.19-.07,3.02.35,3.56,1.18,1.69,2.66,3.96,1.08,5.93,1.13.68.02,1.86-1.16,2.02-1.96.72-3.49,1.58-7.01.54-10.61-.17-.6-.22-1.31-.09-1.9,1.1-4.72.08-9.28-1.01-13.83-.38-1.59-.94-2.97-2.92-3.05-3.19-.14-5.15-2.01-6.18-4.84-.6-1.64-1.75-1.89-3.24-2.15-3.26-.57-6.22-.27-8.79,2.01,1.77,3.57-2.06,4.68-3.06,7.01.35,2.43.34,4.98,1.14,7.23.94,2.61.03,4.11-1.83,5.6-1.99-2.53-4.44-.96-6.89-1.31.23,2.46.9,4.35,1.82,6.38,1.52,3.36,5.91,4.05,6.68,7.86,3.24.94,1.44,3.14,1.2,5.44h-6.86c-.21.84-.48,1.86-.77,2.99-2.73-1.13-4.36.48-5.15,2.3-.85,1.95-2.1,1.85-4.26,1.55,1.12,3.06,2.08,5.69,3.18,8.68,1.19-.41,2.13-.66,3.02-1.05,3.04-1.31,5.97-3,9.12-3.89,2.11-.6,4.41-.11,5.77-2.59.26-.47,2.11-.18,3.2-.06.62.07,1.19.5,1.5.64.12-1.23.22-2.27.35-3.58-1.46-.93-3.44-1.94-5.09-3.35-.97-.82-2.25-2.82-1.92-3.35,1.31-2.05,1.48-5.18,4.98-5.87Zm-84.09,124.35c.93-3.04,1.34-6.38,2.92-9.01,2.09-3.47,2.64-7.05,2.93-10.89.18-2.41.44-4.96,1.36-7.14,1.01-2.4.84-4.65.54-7.02-.29-2.26-1.62-3.78-3.73-4.49-2.53-.86-5.09-1.62-7.67-2.31-1.42-.38-2.56.13-3.03,1.64-.58,1.9-1.48,3.79-1.6,5.73-.19,3.1-.87,5.91-2.74,8.11.45,1.2,1.15,2.15,1.1,3.05-.22,4.06-.74,8.11-.97,12.17-.07,1.17.21,2.53.8,3.51.62,1.03,1.72,1.88,2.78,2.53,2.3,1.42,4.71,2.67,7.3,4.11ZM32.79,64.3c1.68-2.41,2.63-4.65,2.87-6.24.29-1.9.07-4.3,1.14-5.56,2.15-2.51.72-6.47,3.83-8.38.09-.06.06-.55-.08-.72-1.15-1.47,0-2.93.34-4.15.49-1.69.08-3.02-.37-4.47-.6-1.93-1.19-3.86-1.88-5.75-.21-.57-.75-1.01-1.44-1.9-1.22,3.17-2.22,5.83-3.29,8.47-.17.41-.61.8-1.03,1.01-3.52,1.79-3.21,5.57-4.4,8.55-.2.5-.04,1.53.33,1.82,3.16,2.47.91,6.14,2.1,9.1.76,1.88,1.31,4.15.31,6.38-.14.31.97,1.17,1.55,1.84Zm151.48,110.93c.16,1.35.23,2.42.44,3.47.84,4.32,3.14,8.39,2.26,13.03-.06.31.15.73.33,1.03,1.92,3.11.93,6.44-.02,9.36-.92,2.83-3.1,5.25-4.66,7.88-.5.85-.81,1.82-1.11,2.51,1.71,1.28,3.12,2.34,4.43,3.32,1.13-1.19,1.97-2.53,3.18-3.25,2.35-1.41,2.94-1.87,2.21-4.38-.74-2.56-.73-4.97-.25-7.55.32-1.72-.17-3.57-.08-5.36.18-3.45.45-6.85,1.81-10.17,1.13-2.76,1.48-5.83,2.21-8.92-3.5-.32-6.74-.61-10.73-.97ZM40.95,9.09c-.2,2.21-.65,4.63-.52,7.01.07,1.2.92,2.74,1.91,3.44,2.43,1.73,2.77,4.13,3,6.73.21,2.38.52,4.75.77,7,3.2-.67,6.1-1.28,9.04-1.9-.68-1.36-1.3-2.6-1.97-3.95-.34.11-.67.31-1.02.33-1.04.06-2.09.05-3.14.06.05-.93-.09-1.93.19-2.78.62-1.86,1.46-3.64,2.32-5.71-.71-1.03-1.98-2.17-2.34-3.54-.69-2.59-2.86-4.08-4.04-6.29-.8-1.49-2.38-1.19-4.21-.4Zm112.3,187.71c1.51-2.32,1.94-3.81,1.59-5.76-.65-3.53-1.9-6.88-3.27-10.18-1.62-3.91-2.65-7.92-2.95-12.15-.2-2.9-.73-5.77-1.19-9.26-.78.88-1.23,1.16-1.22,1.41.12,2.49-.87,4.7-1.46,7.03-.83,3.3-1.15,6.8.87,10.04.57.92.53,2.2.84,3.3,1.53,5.48,2.81,11.07,6.79,15.57Zm5.92-43.29c2.76.52,2.05-2.76,4.15-4.37,3.59,5.23.69,11.01,1.68,17.08,1.9-3.34,1.58-6.57,3.63-8.93.61-.7.19-2.52-.12-3.74-.61-2.4-1.59-4.71-2.16-7.12-.26-1.09-.89-1.05-1.58-1.5-1.42-.92-4.25-.16-3.8-3.45-.97.48-1.53.75-2.06,1.02.97,5.5-2.87,9.59-3.45,14.83,1.26.88.27,2.58.35,4.19.07,1.33-1.14,3.24,1.15,4.34.73-4.08,1.41-7.91,2.2-12.35Zm20.4,43.74c.55-1.06,1.07-1.58.98-1.96-.84-3.68.81-7.9-2.4-11.09-.41-.41-.62-1.18-.65-1.79-.2-4.02-1.01-7.92-1.9-11.83-.48-2.09-.5-4.39-.18-6.52.51-3.42.7-3.39-2.32-5.84-.5,13.36.45,26.29,6.47,39.03ZM63.51,54.87c.09-2.5.63-4.82-1.65-7.75-.9,4.4-6.08,5.56-5.27,10.45,3.56-.43,5.3,1.77,6.54,7.68,2.12-1.71,4.19-3.04,4.45-5.87.26-2.78-1.64-3.74-4.07-4.5Zm62.28,120.8c-.88-1.98,2.06-4.82-1.28-6.85-.92.45-2.31.69-2.86,1.5-1.5,2.22-3.82,3.82-4.81,6.37-1.06,2.73-2.28,5.47-2.84,8.32-.36,1.86-.17,4.12,1.98,5.71-.01-3.15,1.18-6.07,2.78-8.3.98-1.36,1.52-3.04,2.58-5.27.81-.27,2.43-.81,4.43-1.47Zm9.86,43.74c-.78-3.21,2.43-5.82.52-9-.21-.35.23-1.12.43-1.68.1-.27.35-.49.53-.74-2.76-.79-.76-4.98-3.92-5.49.22-2.69-2.58-3.88-2.7-6.62-3.19,3.57-3.03,4.87-.02,7.31.82.66,1.32,2.1,1.4,3.22.2,2.86-.28,5.81.25,8.58.29,1.53.5,4.01,3.51,4.42Zm-1.35-45.57c-.33.09-.65.19-.98.28-.04.46-.27,1.02-.08,1.36,1.74,3.17,2.29,6.5,1.79,10.07-.1.69.2,1.64.66,2.17,2.58,3.01,1.22,7.93,5.05,10.35.37.23.09,1.31.4,1.83,1.11,1.86.71,4.64,3.6,5.7-.24-6.08-4.17-10.72-5.49-16.11-1.31-5.4-3.74-10.3-4.95-15.66Zm27.43,46.56c.85-4.03,2.26-7.27,1.93-10.32-.26-2.4.94-3.5,1.71-4.78-.85-1.48-1.55-2.71-2.33-4.08-1.36,1.75-2.93,3.1-3.52,4.78-.35,1,.07,2.3-.66,3.54-.55.94-.45,2.34-.44,3.53.02,2.47.83,4.67,3.33,7.33ZM26.23,31.73c1-1.72,2.01-3.09,2.63-4.63.65-1.62.93-3.39,1.49-5.52-3.06,1.03-4.39-1.33-6.05-2.8-4.9,3.83-3.74,8.84,1.94,12.95Zm147.02,196.83c2.13-4.55,3.91-8.36,5.97-12.75-2.77.93-4.58.81-4.68-2.2-.01-.41-.85-.8-1.66-1.52-3.04,5.51-1.62,10.53.37,16.47Zm8.1-121.72c-2.25-1.22-4.49-.9-6.5,1.2-1.77,1.85-3.48,3.76-5.13,5.72-.8.96-1.6,2.03-2.02,3.19-.52,1.44-.65,3.02-.95,4.57,1.89-1.12,2.56-3.29,4.39-4.6,2.46-1.77,2.28-6.18,6.64-6.58,1.3-.12,2.41-2.3,3.56-3.5Zm-30.04,114.51c-1.84,4.49-1.84,7.82.08,9.84.22-1.33.42-2.53.6-3.62,1.37-.49,2.52-.91,3.88-1.4-1.63-1.72-3.07-3.23-4.57-4.81Zm4.63-117.97c.77.35,1.52.68,2.26,1.02,1.24-2.52,2.35-4.8,3.65-7.44-2.19.49-3.91.88-5.72,1.28q1.4,2.32-.19,5.13Zm-20.76,56.2c-.58,2.99-1.07,5.57-1.57,8.15.28.08.55.15.83.23,1.13-2.2,1.98-4.53,2.32-7.01.05-.34-.92-.82-1.57-1.36Zm136.04-90.45q.56,4.72,2.29,6.4v-6.6c-.72.06-1.41.12-2.29.2Zm-84.97,32.03c-4.2-3.06-5.47-3.21-7.17-1.17,2.42.4,4.79.78,7.17,1.17Zm53.13-26.9v6.65c1.8-2.27,2.2-4.52,0-6.65Zm-88.99,41.52c-.19-.04-.38-.09-.56-.13-.38,1.32-.76,2.63-1.22,4.18.79.3,1.52.57,2.65.99-.34-1.99-.6-3.52-.87-5.04Zm-4.97,14.42c-1.63,2.54-1.61,2.53.34,2.91.85.17,1.65.62,2.47.94,1.18-3.17-2.6-1.79-2.8-3.86Zm16.96,5.01c.97-1.1,1.95-2.2,3.12-3.52q-3.58.52-3.12,3.52Zm113.37-76.39c.16.22.32.43.48.65q3.75-1.77,4.88-3.81c-2.02,1.19-3.69,2.18-5.36,3.16Zm-104.9,36.07c1.27-1.04,2.14-1.75,3.26-2.67-1.72-.15-3.21-.87-4.08.8-.17.33.45,1.07.82,1.87Zm-12.27,76.6c-.3-1.45-.53-2.57-.86-4.16-1.04.77-1.75,1.3-2.73,2.01,1.39.83,2.34,1.4,3.59,2.15Zm-20.28-59.95c1,1.1,1.56,1.71,2.6,2.86.35-1.62.58-2.7.99-4.56-1.62.77-2.44,1.16-3.59,1.71Zm23.66,29.31c1.52-3.11,1.39-3.49-1.08-3.71.34,1.18.68,2.34,1.08,3.71Zm-36.39,21.13c.15,1.83.24,2.96.34,4.09.37-1.21,2.69-2.45-.34-4.09Zm18.6-53.25c.27-1.43.45-2.37.63-3.31-1.07.83-2.96,1.46-.63,3.31Zm100.93-26.07c.07,1.04.14,2.08.21,3.12.28,0,.56-.01.83-.02.32-1.05,1.23-2.08-1.04-3.1Zm-108.35,33.28c.09.44.17.88.26,1.31.84-.26,1.68-.53,2.52-.79-.06-.29-.12-.57-.18-.86-.87.11-1.74.22-2.61.34Zm135.95-53.5c.11.72.23,1.44.39,2.48,1.55-1.12,1.57-1.87-.39-2.48Zm-99.26,143.25c-.22.03-.44.05-.66.08.05.7.1,1.4.15,2.11.22-.02.45-.05.67-.07-.05-.7-.11-1.41-.16-2.11Zm85.16-171.53l.31.81c1.27-.53,2.55-1.05,3.82-1.58-.09-.22-.17-.45-.26-.67-1.29.48-2.58.96-3.87,1.44Zm-112.49,91.22c1.5.46,2.37.22,2.21-1.94-1.01.88-1.61,1.41-2.21,1.94Zm228.1,200.46c-.74-.42-1.21-.9-1.51-.81-.37.11-.59.7-.87,1.08.37.24.73.67,1.1.67.33,0,.66-.46,1.28-.95Zm-245.58-133.11l-.64.9c.74.34,1.49.69,2.23,1.03.13-.25.27-.5.4-.74-.66-.4-1.33-.79-1.99-1.19Zm104.34-111.63c.21-.27.42-.54.63-.81-.6-.45-1.19-.9-1.79-1.36-.17.19-.33.39-.5.58l1.66,1.59Zm1.22-11.77c.12-.28.25-.55.37-.83-.62-.17-1.24-.36-1.87-.48-.06-.01-.21.42-.31.65.61.22,1.21.44,1.82.66Zm6.5,1.18c-.27.01-.54.03-.81.04v1.66c.32-.03.65-.07.97-.1-.06-.53-.11-1.07-.17-1.6Zm-106.82,102.26c.25-.05.51-.11.76-.16-.12-.61-.24-1.22-.35-1.83-.28.06-.56.12-.84.17.14.6.28,1.21.43,1.81Zm54.63-70.94c-.28.18-.56.37-.84.55.51.74,1.02,1.49,1.53,2.23.2-.12.39-.23.59-.35-.43-.81-.85-1.62-1.28-2.43Zm-33.87,4.04c-.65,2-.05,2.53,2.15,1.96-.96-.88-1.56-1.42-2.15-1.96Zm127.42-69.99c-.1.34-.2.68-.3,1.02.59.12,1.17.26,1.77.34.04,0,.24-.63.2-.65-.54-.27-1.11-.48-1.67-.71Z"/><path class="cls-1" d="m389.34,273.61c-1.03-2.94-2.04-5.69-2.95-8.48-.18-.56-.24-1.41.06-1.83,1.28-1.8.43-3.6-.33-4.98-1.65-3-1.23-5.98-.73-9.03.31-1.88.74-3.46-.32-5.56-1.08-2.13-.73-5.05-.77-7.63-.06-4.65-.65-9.23-1.33-13.81-.09-.64-.23-1.29-.23-1.93.02-2.66,1.56-5.33-.08-7.97,1.06-4.55-.63-8.78-1.53-13.11-.88-4.26-1.6-8.55-2.62-12.77-.62-2.56-1.76-4.98-2.52-7.51-1.73-5.8-3.52-11.59-4.98-17.46-.83-3.33-1.06-6.81-1.55-10.22-.07-.51-.05-1.06-.21-1.54-1.22-3.58-2.45-7.16-3.72-10.72-.62-1.75.06-3.68,1.58-4.16,1.89-.59,2.55.83,3.09,2.11,2.48,5.89,5.28,11.75,6.17,18.09.36,2.57,1.04,4.96,2.02,7.64,3.82.66,7.54-.28,11.04-2.8,3.51-2.53,7.26-4.72,10.87-7.12.59-.39.96-1.1,1.49-1.6.69-.65,1.41-1.26,2.15-1.85.37-.29,1.09-.4,1.17-.72.5-1.84,2.08-2.09,3.5-2.69,1.69-.72,3-2.04,4.46-3.14,4.1-3.12,8.51-5.89,12.94-8.47,4.69-2.73,9.32-5.56,14-8.31,1.75-1.02,3.36-2.18,5.83-.62-.72-2.4-.19-3.54,1.61-4.5,3.64-1.95,7.09-4.27,10.63-6.42.54-.33,1.34-.97,1.66-.79,1.76.97,1.89.35,1.56-1.25-.06-.28.6-.78,1-1.08,3.81-2.88,7.78-5.54,10.94-9.2.41-.47,1.02-.8,1.59-1.09,1.66-.82,3.51-1.3,4.27-3.35.18-.48.97-.86,1.55-1.06,2.52-.85,4.74-1.95,5.39-4.86.05-.21.32-.55.48-.54,3.24.18,4.44-4.81,8.23-3.27.07.03.31-.61.57-.79,1.33-.88,2.69-1.71,4.01-2.55.79,1.54,1.42,2.77,2.22,4.32-1.24,1.99-2.84,3.87-5.78,4.89-2.71.94-4.82,3.59-7.52,4.57-2.4.88-2.9,3.25-4.75,4.31-1.94,1.11-3.34,2.7-4.83,4.3-1.61,1.74-3.58,3.16-5.42,4.67-1.78,1.46-3.59,2.88-5.44,4.26-.7.52-1.52.91-2.31,1.3-.55.27-1.33.28-1.7.69-5.05,5.66-11.82,8.69-18.35,12.09-.64.33-1.21.85-1.7,1.38-1.5,1.59-3.08,2.9-5.5,2.35-.26-.06-.74.13-.87.35-1.64,2.77-4.44,4.22-6.93,5.95-2.5,1.74-5.32,2.99-7.9,4.61-1.84,1.15-3.44,2.68-5.28,3.84-2.66,1.68-5.59,2.98-8.12,4.83-2.15,1.57-3.95,3.65-5.83,5.58-4.01,4.09-8,8.2-11.95,12.35-1.05,1.1-2.32,2.21-2.81,3.56-1.88,5.1-3.93,10.06-1.61,15.86,1.44,3.6,2.2,7.6,2.64,11.62.2,1.81-.67,4.06.97,5.74.3.3.34.98.29,1.47-.14,1.42-1.07,3.49-.46,4.13,1.68,1.74-.43,3.03,0,4.51.35,1.2.42,2.5.46,3.76.02.85.08,2.03-.41,2.48-1.13,1.03-.51,1.97-.12,2.79,1.49,3.1,1.33,6.26,1.26,9.61-.04,1.75.83,3.76.79,5.75-.01.47.28,1.25.1,1.37-2.54,1.61-.6,3.58-.19,5.12.59,2.19,1.6,4.16.23,6.4-.25.41-.05,1.25.19,1.78,1.61,3.56.86,11.78-1.44,14.73-.37.48-.95.8-1.92,1.59Z"/><path class="cls-1" d="m485.88,47.18c1.85,2.16,5.24,2.56,5.47,6.04-2.09,2.29-7.3-.27-7.24,5.32-1.03-.54-1.62-.85-2.06-1.08-1.21,1.16-2.93,2.07-3.38,3.41-.74,2.18-2.92,2.01-3.93,3.15-2.96,3.38-7.93,4.04-10.34,8.1-.58.98-2.01,1.56-3.16,2.06-1.01.43-2.3.29-2.36,1.93,0,.18-1.05.38-1.62.47-1.2.19-2.42.32-3.69.48.27.91.44,1.48.72,2.38-2.92-.91-4.04,1.54-5.85,2.69-.6.38-1.36,1.25-1.76,1.11-2.55-.92-3.62,1.14-5.26,2.22-1.47.97-3.22,1.52-4.87,2.2-2.47,1.02-5.11,1.72-6.96,3.86-.24.28-.55.73-.82.72-2.66-.07-4.88,1.35-7.3,2.05-4.63,1.34-9.38,2.26-13.96,3.72-5.87,1.88-11.65,4.08-16.89,7.44-.11.07-.24.1-.37.12-3.52.45-6.52,2.42-9.96,3.46.24,1.29.48,2.59.71,3.83-1.59,1.49-1.65.07-1.98-.96-.35.17-.79.24-1,.5-1.75,2.09-3.88,2.79-6.39,1.86-1.3-.48-2.45-.91-3.33.61-.06.1-.23.24-.3.22-1.77-.58-3.25-.65-5.04.56-1.26.84-3.37.76-4.77-.91-.25-.3-1.2-.05-1.82.02-2.2.27-4.39,1.47-6.6-.16-.45-.33-1.35-.39-1.88-.18-4.08,1.65-7.79-.2-11.63-1.04-.81-.18-1.74.14-2.61.25-1.75.21-3.5.61-5.25.6-2.21-.01-4.43-.61-6.61-.46-1.41.1-2.77,1.08-4.57,1.84.22-1.41.32-2.1.57-3.67-4.3,4.42-8.87,4.74-13.67,3.37-.62-1.84.55-2.54,1.61-2.77,6.86-1.48,13.58-3.43,20.78-3.47,3.72-.02,7.62-.55,11.43-1.16,4.57-.74,9.38-1.58,14.15-.56.78.17,1.71-.29,2.56-.52.36-.1.86-.6,1-.5,3.3,2.33,6.53-.31,9.8-.16,3.44.16,6.92-.05,10.34-.45,1.68-.19,3.27-1.14,4.88-1.79,3.09-1.25,6.18-2.49,9.25-3.8,2.91-1.25,5.72-2.81,8.7-3.82,4.62-1.57,8.83-4.09,13.5-5.51.25-.07.51-.28.73-.24,4.61.97,7.94-2.63,12.08-3.48,1.87-.38,3.48-2.32,5.1-3.68,4.01-3.38,8.91-5.26,13.27-8,4.73-2.97,10.12-4.82,14.39-8.55.46-.4,1.15-.52,1.65-.88,1.72-1.26,3.45-2.52,5.1-3.87,3.81-3.12,7.32-6.62,11.87-8.74.92-.43,1.73-1.13,2.54-1.77,1.39-1.1,2.52-2.48,4.73-1.78,1.77.56,1.5-1.54,2.32-2.67Z"/><path class="cls-1" d="m173.09,290.55c.13,1.97.24,3.7.38,5.86-4.66-.06-9.45-.73-14.37-1.93-.11-1.33-.56-2.57,1.49-2.73,1.48-.12,2.94-.54,4.43-.67,2.63-.23,5.27-.35,8.08-.53Z"/></g></svg>