<svg width="199" height="150" viewBox="0 0 199 150" fill="none" xmlns="http://www.w3.org/2000/svg">
<g clip-path="url(#clip0_1136_909)">
<path d="M108.305 123.121C108.612 123.258 108.858 123.373 109.096 123.48C111.916 124.77 113.353 126.947 113.56 130.047C113.791 133.461 112.331 136.111 110.041 138.448C108.804 139.716 107.375 140.732 105.839 141.602C102.419 143.557 98.839 145.161 95.1894 146.65C93.2686 147.429 91.3554 148.246 89.327 148.727C88.4741 148.926 87.6136 149.155 86.7377 149.232C85.685 149.323 84.6401 149.193 83.7104 148.598C83.5337 148.483 83.3262 148.399 83.1188 148.33C81.9202 147.933 81.6436 146.727 82.5579 145.879C82.6962 145.749 82.8499 145.619 82.9498 145.451C83.4799 144.573 84.1945 143.886 85.0704 143.366C86.415 142.572 87.7749 141.801 89.1426 141.052C89.5037 140.854 89.7035 140.648 89.7419 140.235C89.9493 137.646 90.272 135.057 90.3642 132.461C90.4949 128.841 90.6793 125.229 91.0942 121.624C91.3477 119.432 91.655 117.233 91.5936 115.01C91.5859 114.674 91.5167 114.445 91.2171 114.216C89.9724 113.277 89.788 111.803 90.7023 110.543C90.7868 110.428 90.8637 110.283 90.9866 110.207C91.6704 109.756 91.8164 109.069 91.924 108.328C92.0008 107.801 92.1161 107.274 92.3005 106.778C92.7154 105.632 93.5375 104.891 94.7822 104.8C95.9731 104.716 96.826 105.334 97.4253 106.327C97.5098 106.472 97.5943 106.625 97.7019 106.823C98.3396 106.747 98.985 106.625 99.6381 106.602C101.421 106.526 103.211 106.403 104.993 106.457C108.397 106.564 112.562 108.901 112.93 114.14C113.061 116.056 112.439 117.721 111.463 119.31C110.771 120.44 109.918 121.441 109.004 122.388C108.789 122.609 108.574 122.846 108.313 123.121H108.305ZM106.154 130.124C104.932 129.498 102.811 129.024 101.09 128.986C99.9915 128.955 98.8851 128.986 97.7941 128.482C97.6865 131.468 97.5789 134.401 97.4714 137.379C97.8709 137.188 98.2935 137.012 98.693 136.799C100.253 135.943 101.82 135.095 103.357 134.194C104.24 133.667 104.978 132.942 105.608 132.125C106.046 131.552 106.392 130.941 106.161 130.131L106.154 130.124ZM98.3627 121.677C98.6777 121.517 98.8928 121.418 99.1003 121.303C101.528 119.944 103.365 117.928 105.147 115.866C105.401 115.575 105.593 115.224 105.777 114.888C106.284 113.956 106.023 113.223 105.016 112.864C104.609 112.719 104.164 112.643 103.733 112.635C102.32 112.635 100.898 112.666 99.4844 112.704C99.2001 112.704 98.9235 112.788 98.6162 112.834C98.6469 114.353 98.7315 115.804 98.693 117.256C98.6546 118.699 98.4856 120.142 98.3627 121.693V121.677Z" fill="#CD661A"/>
<path d="M126.069 107.496C128.689 106.556 131.386 106.419 134.075 106.533C138.547 106.724 141.521 110.092 142.105 113.086C142.466 114.942 142.266 116.706 141.267 118.363C139.807 120.784 137.902 122.77 135.489 124.266C134.098 125.129 132.708 125.992 131.325 126.855C131.102 126.993 130.887 127.146 130.641 127.306C131.486 128.505 132.454 129.49 133.599 130.3C137.587 133.125 141.943 135.042 146.815 135.73C148.751 136.004 150.687 136.234 152.623 136.493C153.422 136.6 154.221 136.722 155.013 136.875C156.442 137.158 157.487 137.982 158.209 139.227C158.578 139.869 158.455 140.541 157.932 141.098C156.788 142.32 155.358 142.855 153.714 143.053C151.547 143.313 149.419 143.023 147.291 142.717C144.333 142.297 141.421 141.694 138.601 140.701C138.002 140.495 137.402 140.274 136.826 140.006C134.037 138.685 131.379 137.127 128.951 135.225C128.09 134.553 127.352 133.736 126.507 132.95C126.492 133.102 126.454 133.278 126.461 133.446C126.484 134.668 126.384 135.875 126.054 137.058C125.862 137.746 125.555 138.38 125.032 138.884C124.195 139.701 123.111 139.876 122.066 139.349C121.39 139.013 120.883 138.494 120.522 137.837C120.069 137.013 119.83 136.127 119.715 135.203C119.431 132.973 119.531 130.727 119.661 128.497C119.869 125 120.153 121.509 120.345 118.012C120.445 116.24 120.376 114.461 120.453 112.689C120.514 111.329 120.653 109.978 120.806 108.626C120.852 108.229 121.006 107.816 121.198 107.457C122.105 105.808 124.333 105.556 125.624 106.938C125.77 107.098 125.9 107.274 126.077 107.488L126.069 107.496ZM127.206 120.799C127.337 120.738 127.445 120.692 127.545 120.631C129.074 119.677 130.603 118.722 132.124 117.76C133.43 116.935 134.352 115.736 135.289 114.552C135.535 114.239 135.497 113.934 135.274 113.62C134.79 112.948 134.137 112.521 133.322 112.483C131.809 112.421 130.295 112.421 128.782 112.421C128.444 112.421 128.098 112.475 127.767 112.551C127.076 112.704 127.099 112.712 127.107 113.422C127.137 115.408 127.153 117.401 127.183 119.386C127.183 119.837 127.199 120.288 127.214 120.807L127.206 120.799Z" fill="#CD661A"/>
<path d="M59.0774 123.022C58.2246 122.915 57.4255 122.838 56.6341 122.724C55.4048 122.548 54.1677 122.388 52.9384 122.166C51.7398 121.945 50.9407 120.96 50.9868 119.86C51.0329 118.737 51.8704 117.775 53.0767 117.691C55.0513 117.546 57.0183 117.347 59.0083 117.5C60.0302 117.577 61.0597 117.599 62.0816 117.569C63.8104 117.523 65.2165 118.569 65.4546 120.265C65.5929 121.273 65.5545 122.304 65.6314 123.32C65.785 125.389 65.1934 127.367 64.9399 129.383C64.6402 131.774 64.4712 134.172 64.1946 136.562C64.0102 138.128 63.7259 139.686 63.4877 141.244C63.4185 141.725 63.4109 142.213 63.3033 142.687C62.9191 144.298 61.4516 145.368 59.8458 145.245C58.1938 145.123 56.8646 143.825 56.8031 142.145C56.7647 141.205 56.9184 140.258 56.9875 139.311C57.0029 139.098 57.0336 138.891 57.0567 138.67C56.1424 138.937 55.2972 139.296 54.4213 139.426C51.2096 139.899 48.1132 139.709 45.4471 137.563C44.0026 136.402 42.9116 134.935 42.0433 133.309C41.1982 131.736 40.5989 130.063 40.1455 128.345C39.7921 127.016 39.7844 125.649 39.8152 124.282C39.8997 121.189 40.2377 118.126 41.1213 115.14C41.2058 114.858 41.2904 114.583 41.4056 114.316C43.5877 109.229 46.6226 104.815 51.371 101.73C53.384 100.424 55.5277 99.7442 57.9633 99.9962C59.1082 100.118 60.2607 100.18 61.3363 100.607C63.9256 101.631 65.6083 103.525 66.5687 106.091C66.7916 106.694 66.83 107.328 66.6917 107.962C66.3459 109.596 64.6172 110.337 63.2341 109.413C62.7347 109.077 62.3275 108.603 61.8895 108.183C61.344 107.664 60.8139 107.122 60.2607 106.61C59.5845 105.976 58.7086 105.953 57.8558 105.915C56.7263 105.861 55.689 106.129 54.7517 106.793C52.5696 108.351 50.5719 110.085 49.2657 112.483C49.0583 112.865 48.8278 113.239 48.5819 113.605C47.3218 115.492 46.6303 117.577 46.4382 119.814C46.2923 121.555 46.2462 123.304 46.1693 125.053C46.1232 126.061 46.346 127.031 46.6918 127.978C47.2066 129.376 47.8136 130.72 48.7894 131.881C49.527 132.759 50.4182 133.179 51.5784 133.24C53.1228 133.324 54.5442 132.965 55.7044 132.026C56.9261 131.041 57.9172 129.735 58.3091 128.222C58.7394 126.542 58.8316 124.778 59.0774 123.006V123.022Z" fill="#CD661A"/>
<path d="M181.758 123.8C181.666 125.007 181.558 126.221 181.474 127.436C181.328 129.566 181.174 131.705 181.074 133.843C181.028 134.736 181.136 135.645 181.136 136.539C181.136 138.02 180.306 139.258 179.023 139.762C176.81 140.625 174.505 139.105 174.428 136.669C174.382 135.141 174.397 133.599 174.52 132.079C174.82 128.421 175.158 124.763 175.573 121.12C175.873 118.439 176.311 115.774 176.718 113.109C176.787 112.635 176.956 112.154 177.194 111.742C178.162 110.054 180.352 109.977 181.658 111.421C182.926 112.811 183.787 114.422 184.701 116.026C185.377 117.21 186.107 118.363 186.822 119.524C188.12 121.639 189.426 123.755 190.74 125.862C190.955 126.206 191.201 126.527 191.432 126.855C191.485 126.84 191.539 126.832 191.593 126.817C191.739 125.228 191.985 123.632 192.023 122.044C192.085 119.249 192.015 116.454 192.023 113.658C192.023 112.223 192.069 110.787 192.1 109.359C192.138 107.64 193.014 106.419 194.505 105.999C196.264 105.502 198.116 106.587 198.5 108.358C198.585 108.763 198.631 109.176 198.631 109.588C198.631 110.535 198.592 111.482 198.585 112.429C198.585 114.735 198.554 117.049 198.585 119.356C198.623 121.845 198.423 124.304 198.116 126.771C197.962 128.024 198.024 129.299 197.916 130.551C197.793 131.98 197.617 133.408 197.409 134.82C197.332 135.34 197.171 135.867 196.948 136.348C195.942 138.509 193.253 139.135 191.393 137.631C190.948 137.272 190.571 136.798 190.233 136.333C189.027 134.683 187.82 133.026 186.66 131.346C185.723 129.986 184.832 128.589 183.956 127.184C183.31 126.153 182.719 125.091 182.096 124.045C182.035 123.945 181.966 123.854 181.896 123.762C181.85 123.777 181.812 123.793 181.766 123.808L181.758 123.8Z" fill="#CD661A"/>
<path d="M161.113 125.404C158.078 125.206 155.158 124.969 152.254 124.137C151.831 125.229 151.439 126.245 151.055 127.26C150.825 127.871 150.633 128.505 150.379 129.108C150.01 130.01 149.296 130.506 148.489 130.46C147.644 130.414 146.952 129.849 146.676 128.902C146.33 127.718 146.246 126.504 146.514 125.298C147.198 122.266 147.821 119.203 149.165 116.37C150.64 113.262 152.323 110.276 154.705 107.732C155.35 107.045 156.042 106.465 156.979 106.205C157.97 105.938 158.915 106.007 159.83 106.465C162.081 107.595 163.748 109.229 164.555 111.681C165.677 115.102 166.676 118.554 167.39 122.082C167.951 124.824 168.566 127.558 168.942 130.315C169.349 133.255 169.91 136.165 170.348 139.098C170.448 139.77 170.479 140.457 170.433 141.129C170.302 142.87 168.881 144.199 167.144 144.268C165.339 144.336 163.771 143.168 163.541 141.404C163.08 137.86 162.319 134.363 161.981 130.796C161.812 129.017 161.405 127.253 161.098 125.389L161.113 125.404ZM154.09 118.745C155.174 118.867 156.096 118.997 157.018 119.073C157.932 119.15 158.854 119.165 159.791 119.203C159.661 117.897 158.508 112.788 158.216 112.284C156.672 114.323 155.289 116.416 154.098 118.745H154.09Z" fill="#CD661A"/>
<path d="M82.32 112.773C82.5045 115.843 82.1894 118.89 81.8514 121.937C81.6746 123.533 81.5748 125.137 81.4134 126.733C81.2367 128.475 81.0216 130.208 80.8525 131.949C80.7987 132.507 80.8525 133.064 80.8372 133.622C80.8141 134.905 80.7987 136.196 80.7373 137.479C80.6989 138.349 80.3762 139.143 79.8076 139.816C78.778 141.03 77.4795 141.473 75.9351 141.068C74.4907 140.686 73.4534 139.418 73.2921 137.891C73.2536 137.555 73.269 137.211 73.2767 136.868C73.2997 135.875 73.3689 134.874 73.3612 133.882C73.3382 131.713 73.5917 129.567 73.8914 127.421C74.1526 125.542 74.3293 123.656 74.5368 121.769C74.7289 120.082 74.9286 118.394 75.1053 116.698C75.1899 115.874 75.2129 115.049 75.2513 114.224C75.3282 112.208 75.3666 110.192 75.4818 108.176C75.5202 107.481 75.6509 106.77 75.8506 106.106C76.2502 104.8 77.3258 104.013 78.6167 103.983C79.8998 103.952 80.9831 104.701 81.4902 105.976C81.8898 106.984 81.9666 108.061 82.0665 109.123C82.1818 110.329 82.2432 111.551 82.3277 112.758L82.32 112.773Z" fill="#CD661A"/>
<path d="M7.63755 19.2276C7.54535 20.4342 7.43779 21.6485 7.35327 22.8628C7.20728 24.9935 7.05362 27.1318 6.95373 29.2702C6.90763 30.1637 7.0152 31.0725 7.0152 31.9661C7.0152 33.4476 6.18539 34.6848 4.90227 35.1889C2.68945 36.0518 0.384429 34.5321 0.307595 32.0959C0.261495 30.5685 0.276862 29.0258 0.399796 27.5061C0.699448 23.8479 1.03752 20.1898 1.45242 16.547C1.75207 13.8664 2.19003 11.2011 2.59725 8.53582C2.6664 8.06232 2.83543 7.5812 3.07362 7.1688C4.04173 5.48103 6.23149 5.40466 7.53767 6.84805C8.80543 8.23798 9.66597 9.84938 10.5803 11.4531C11.2564 12.6369 11.9864 13.7901 12.7009 14.9509C13.9994 17.0663 15.3056 19.1818 16.6194 21.2896C16.8346 21.6332 17.0804 21.954 17.3109 22.2824C17.3647 22.2671 17.4185 22.2595 17.4723 22.2442C17.6183 20.6557 17.8642 19.0596 17.9026 17.4711C17.964 14.6759 17.8949 11.8808 17.9026 9.08568C17.9026 7.64993 17.9487 6.21418 17.9794 4.78606C18.0178 3.06774 18.8937 1.84583 20.3843 1.42579C22.1438 0.92939 23.9955 2.01384 24.3797 3.78562C24.4642 4.19038 24.5103 4.60277 24.5103 5.01517C24.5103 5.96216 24.4719 6.90914 24.4642 7.85613C24.4642 10.1625 24.4335 12.4765 24.4642 14.7829C24.5026 17.2725 24.3028 19.7316 23.9955 22.1984C23.8418 23.4508 23.9033 24.7262 23.7957 25.9787C23.6728 27.4068 23.4961 28.8349 23.2886 30.2477C23.2118 30.767 23.0504 31.294 22.8276 31.7751C21.8211 33.9364 19.1319 34.5626 17.2725 33.0581C16.8269 32.6992 16.4504 32.2257 16.1123 31.7599C14.906 30.1103 13.6998 28.453 12.5396 26.7729C11.6022 25.4135 10.7109 24.016 9.835 22.6108C9.1896 21.5798 8.59798 20.5182 7.97562 19.472C7.91416 19.3727 7.84501 19.281 7.77585 19.1894C7.72975 19.2047 7.69134 19.2199 7.64524 19.2352L7.63755 19.2276Z" fill="#CD661A"/>
<path d="M45.4556 26.8949C45.1406 26.8949 44.8948 26.8949 44.6566 26.9102C42.9739 26.9942 41.2912 27.1011 39.6009 27.1469C38.7788 27.1698 37.949 27.0858 37.0731 27.0476C36.7504 28.0023 36.3892 29.0256 36.0589 30.0566C35.6977 31.164 35.3981 32.2942 35.0216 33.4016C34.1687 35.8989 31.057 36.548 29.3666 34.6006C28.606 33.7224 28.3908 32.6761 28.6828 31.5916C29.0977 30.0719 29.6279 28.5827 30.1042 27.0706C30.3194 26.3756 30.5345 25.6806 30.7266 24.978C31.0646 23.7103 31.3566 22.4349 31.7254 21.1748C32.3401 19.0746 32.9317 16.9668 33.654 14.9049C34.4607 12.6138 35.3904 10.3685 36.3124 8.11558C37.0423 6.3209 38.1718 4.75532 39.2705 3.17446C40.085 2.006 41.6139 1.43323 43.1429 2.16638C46.8924 3.96107 49.1437 6.87076 50.035 10.8725C50.7188 13.935 51.2873 17.0127 51.6715 20.1362C52.1863 24.2831 52.7933 28.4223 53.3926 32.5615C53.7768 35.2345 54.184 37.8998 54.6143 40.5651C54.7602 41.451 54.9984 42.3216 55.1905 43.1998C55.3442 43.8948 55.398 44.5974 55.2289 45.3C54.8678 46.835 53.5616 47.9195 51.9865 48.0035C50.3423 48.0875 48.8978 47.1863 48.4214 45.6437C48.0757 44.5287 47.8068 43.3831 47.63 42.2376C47.0154 38.0754 46.4545 33.9056 45.8782 29.7435C45.7476 28.8347 45.6093 27.9183 45.4556 26.9025V26.8949ZM42.5897 9.17712C42.413 9.46733 42.2978 9.62007 42.2286 9.79572C41.952 10.4449 41.66 11.0864 41.4142 11.7431C40.277 14.7674 39.3473 17.8604 38.5867 20.9992C38.5483 21.1519 38.556 21.3046 38.5483 21.4116C40.6228 21.1366 42.6435 20.8617 44.7104 20.5868C44.7104 20.35 44.7104 20.1362 44.695 19.9223C44.6258 17.8069 44.2724 15.722 43.8652 13.6448C43.65 12.5527 43.4195 11.4606 43.1429 10.3761C43.0507 9.99428 42.8126 9.65062 42.5897 9.17712Z" fill="#CD661A"/>
<path d="M90.1653 32.271C89.6582 32.2633 89.1434 32.2099 88.644 32.2481C86.3543 32.4314 84.0724 32.6375 81.6751 32.8437C81.5215 33.4547 81.2987 34.142 81.1834 34.837C80.9375 36.3262 80.7608 37.8231 80.5226 39.3046C80.2768 40.8397 80.077 42.3747 79.5468 43.8563C79.155 44.9483 78.4558 45.7502 77.2034 46.0786C75.0905 46.6361 72.9545 45.0247 73.1619 43.0162C73.1773 42.8405 73.2004 42.6573 73.2618 42.4816C73.961 40.4273 74.1454 38.3042 74.4451 36.1887C74.5757 35.2799 74.7447 34.3711 74.9522 33.47C75.782 29.8653 76.6886 26.2836 77.457 22.6713C78.0639 19.8303 78.6786 16.9894 79.5699 14.2095C79.7005 13.8048 79.8311 13.3847 80.0463 13.0105C80.5073 12.201 81.2141 11.7046 82.2668 11.697C82.528 11.697 82.7969 11.6282 83.0428 11.5442C84.3029 11.086 85.4938 11.2082 86.6079 11.8879C87.7681 12.5905 88.6824 13.5146 89.3893 14.6143C90.1038 15.7369 90.7953 16.8748 91.556 17.9669C92.5932 19.4561 93.2079 21.1057 93.9916 22.7018C95.997 26.7724 97.1418 31.0872 98.3558 35.3792C99.0396 37.7925 99.6236 40.2211 99.9309 42.7031C99.9847 43.1231 100.015 43.5508 100.015 43.9785C100.015 45.7502 98.5479 47.186 96.6501 47.2776C94.7984 47.3693 93.1541 46.1015 92.9851 44.3603C92.77 42.0463 92.2321 39.7934 91.6559 37.5405C91.241 35.9062 90.7569 34.2795 90.2959 32.6528C90.2652 32.5459 90.2191 32.4466 90.1576 32.271H90.1653ZM84.3874 18.7459C83.8649 21.7014 83.3578 24.5653 82.843 27.475C84.6486 27.1466 86.4004 26.8334 88.1676 26.5127C87.1303 23.8474 86.1546 21.1974 84.3874 18.7535V18.7459Z" fill="#CD661A"/>
<path d="M149.673 9.27656C149.504 11.5142 149.343 13.6373 149.174 15.8749C149.711 15.8825 150.142 15.9131 150.572 15.8902C153.453 15.7603 156.334 15.6229 159.223 15.4701C160.161 15.4167 161.029 15.5771 161.782 16.1575C162.842 16.9823 163.28 18.082 162.973 19.3879C162.658 20.6938 161.782 21.4804 160.453 21.7248C160.099 21.7936 159.73 21.7783 159.362 21.7859C159.016 21.7859 158.678 21.7706 158.332 21.7706C156.081 21.8012 153.83 21.847 151.578 21.8547C150.633 21.8547 149.681 21.7859 148.759 21.7477C148.713 21.7936 148.682 21.8088 148.682 21.8241C148.505 24.1457 148.059 26.4521 148.098 28.7967C148.106 29.3083 148.305 29.6291 148.689 29.9651C149.473 30.6525 150.411 30.8128 151.394 30.9427C154.483 31.3321 157.587 31.3932 160.691 31.2252C161.49 31.1794 162.289 31.0419 163.088 30.9274C164.233 30.7517 165.286 30.9274 166.177 31.714C167.99 33.3254 167.583 36.2045 165.401 37.2737C164.517 37.709 163.565 37.7548 162.619 37.8618C158.663 38.2971 154.713 38.1367 150.772 37.5715C150.142 37.4799 149.512 37.3959 148.889 37.2966C148.651 37.2584 148.397 37.2279 148.175 37.1439C145.224 36.0442 142.773 34.4022 141.759 31.2405C141.329 29.8964 141.398 28.4912 141.505 27.1165C141.644 25.3982 141.913 23.6875 142.089 21.9768C142.512 17.9369 143.042 13.9122 143.703 9.91043C143.757 9.5744 143.818 9.23837 143.918 8.91762C144.087 8.3754 144.156 7.86372 144.01 7.28331C143.78 6.34396 144.379 5.32061 145.363 4.84711C145.754 4.66383 146.185 4.54927 146.615 4.45763C148.428 4.06814 150.234 3.64811 152.062 3.35027C153.607 3.10588 155.167 2.96078 156.726 2.88441C159.462 2.74695 162.205 2.70112 164.94 2.62475C165.447 2.60948 165.977 2.60948 166.469 2.72403C167.952 3.07534 168.835 4.35071 168.735 5.87811C168.643 7.28331 167.498 8.44413 166.031 8.60451C165.693 8.64269 165.347 8.64269 165.001 8.65033C161.283 8.7267 157.564 8.77252 153.845 8.89471C152.485 8.94053 151.125 9.14673 149.658 9.2842L149.673 9.27656Z" fill="#CD661A"/>
<path d="M63.0959 8.1081C62.243 8.06991 61.4516 8.13865 60.6602 8.28375C59.3617 8.5205 58.0709 8.78015 56.7648 8.97108C56.2884 9.03981 55.789 9.00163 55.3049 8.94817C53.6991 8.75724 52.4774 7.53533 52.3698 6.05375C52.2623 4.54163 53.3149 3.09824 54.913 2.74694C57.5561 2.16653 60.1762 1.44102 62.9038 1.24246C64.6325 1.11263 66.3383 0.753693 68.0593 0.494036C70.2875 0.150372 72.5234 -0.00236717 74.7823 0.272564C75.8196 0.402393 76.8799 0.356571 77.9248 0.387119C79.2925 0.43294 80.6601 0.417666 82.0278 0.524584C83.6413 0.654413 84.8552 1.43338 85.4238 3.0066C86.2459 5.29769 84.3405 7.8179 81.9125 7.5506C79.838 7.32149 77.7635 7.37495 75.689 7.31385C75.0051 7.29094 74.3213 7.25276 73.6452 7.1382C72.339 6.92437 71.0635 7.1382 69.7343 7.24512C69.7036 7.39786 69.6575 7.53533 69.6421 7.67279C69.2964 10.6894 69.0582 13.7213 68.9045 16.7532C68.7739 19.2734 68.5127 21.7936 68.3283 24.3138C68.1439 26.834 67.9902 29.3618 68.1823 31.8896C68.2361 32.5922 68.2284 33.3025 68.19 34.0051C68.0824 35.9449 66.5995 37.3959 64.694 37.457C62.8884 37.5181 61.2826 36.1205 61.0674 34.2113C60.9599 33.2948 61.0214 32.3631 60.9906 31.4467C60.8369 27.6129 61.2826 23.825 61.7359 20.0371C61.9741 18.0362 62.0432 16.0124 62.2661 14.0115C62.4658 12.2015 62.7655 10.4068 63.0267 8.59687C63.0498 8.4594 63.0651 8.32193 63.1036 8.10046L63.0959 8.1081Z" fill="#CD661A"/>
<path d="M109.197 27.8039C110.334 27.6893 111.325 27.6206 112.316 27.4831C113.86 27.2617 115.397 26.9867 116.942 26.7347C118.978 26.4063 120.783 27.6664 121.144 29.6749C121.482 31.5231 120.23 33.3101 118.271 33.692C117.049 33.9287 115.812 34.112 114.575 34.2571C112.37 34.5244 110.165 34.8528 107.929 34.807C107.322 34.7917 106.707 34.7535 106.108 34.6619C104.395 34.4099 102.243 32.1951 102.289 30.0339C102.328 27.9184 102.259 25.803 102.328 23.6875C102.374 22.2594 102.558 20.8313 102.689 19.4032C102.965 16.3026 103.227 13.202 103.519 10.109C103.642 8.78018 103.803 7.45134 104.01 6.13015C104.11 5.51155 104.31 4.90059 104.541 4.32018C104.894 3.41138 105.578 2.86152 106.584 2.80042C107.629 2.73169 108.382 3.21282 108.859 4.09871C109.366 5.03042 109.658 6.0385 109.727 7.0924C109.796 8.2074 109.819 9.33004 109.781 10.445C109.681 13.6526 109.535 16.8601 109.419 20.0676C109.335 22.3511 109.258 24.6345 109.174 26.918C109.166 27.1776 109.181 27.4449 109.189 27.8192L109.197 27.8039Z" fill="#CD661A"/>
<path d="M135.374 9.05555C135.427 12.0798 135.12 15.0735 134.667 18.0595C134.283 20.6027 133.983 23.161 133.645 25.7194C133.476 26.9719 133.268 28.2167 133.145 29.4768C132.923 31.5999 132.777 33.7382 132.554 35.8613C132.392 37.3734 131.578 38.4503 130.126 38.9467C127.759 39.7562 125.401 38.0379 125.385 35.4871C125.385 34.6623 125.524 33.8452 125.608 33.0204C125.808 31.0118 125.931 28.9957 126.23 27.0024C126.884 22.657 127.398 18.2886 128.228 13.9661C128.635 11.843 128.781 9.68178 129.043 7.52815C129.165 6.48952 129.265 5.4509 129.427 4.4199C129.504 3.94641 129.65 3.46528 129.872 3.04525C130.364 2.11354 131.179 1.59422 132.239 1.57895C133.299 1.56368 134.114 2.06772 134.659 2.97652C135.066 3.65621 135.258 4.4199 135.297 5.19888C135.366 6.48189 135.358 7.77254 135.389 9.06319L135.374 9.05555Z" fill="#CD661A"/>
<path d="M98.8937 95.7806C100.423 90.9311 101.913 86.0664 103.419 81.2016C103.511 80.9038 103.581 80.5907 103.627 80.2775C103.911 78.2614 102.482 76.5507 100.438 76.4667C100.015 76.4514 99.5852 76.4514 99.1703 76.5278C97.1419 76.9096 95.0981 77.2457 93.0928 77.7268C91.2257 78.1774 89.3509 78.5363 87.4301 78.353C86.17 78.2308 84.9176 77.9712 83.6806 77.7115C83.0506 77.5817 83.0736 77.49 83.0352 76.818C82.9968 76.1688 83.2042 75.6343 83.6191 75.1531C84.8331 73.7632 86.2929 72.6788 87.868 71.7394C88.1062 71.5943 88.4136 71.5103 88.6902 71.4874C90.465 71.3117 92.2399 71.2888 93.9763 71.8234C95.3133 72.2358 96.6886 72.5107 97.9794 73.0988C99.0628 73.5952 100.215 73.2057 100.784 72.3045C101.368 71.3805 101.153 70.1891 100.223 69.3949C99.9079 69.1199 99.5468 68.8908 99.1703 68.6846C98.2867 68.2111 97.3801 67.7605 96.4811 67.31C95.3517 66.7372 94.3528 66.0193 93.5999 64.996C93.4001 64.721 93.1542 64.4079 93.1312 64.0948C93.0851 63.2547 93.1004 62.407 93.1926 61.5746C93.2541 61.0018 93.4078 60.9254 93.9917 60.9178C95.1596 60.9025 96.3275 60.8873 97.4953 60.9025C99.0551 60.9255 100.553 61.2615 101.944 61.9564C103.15 62.5598 103.995 63.4838 104.149 64.8967C104.165 65.0265 104.195 65.1563 104.226 65.2862C104.541 66.5234 105.624 67.394 106.877 67.4016C108.16 67.4169 109.343 66.5539 109.597 65.2785C109.873 63.8886 110.065 62.4758 110.25 61.0629C110.35 60.2763 110.327 59.4821 110.411 58.6955C110.603 56.939 110.849 55.1901 111.041 53.4336C111.279 51.1807 111.525 48.9278 111.694 46.6672C111.779 45.5446 111.74 44.4067 111.694 43.2764C111.671 42.8105 111.548 42.3294 111.364 41.9017C110.972 40.9777 110.25 40.4202 109.213 40.4278C108.206 40.4278 107.507 40.97 107.115 41.8636C106.938 42.2683 106.831 42.7189 106.777 43.1542C106.4 45.9188 106.055 48.691 105.686 51.4632C105.448 53.2427 105.179 55.0144 104.941 56.7862C104.841 57.5575 104.795 58.3365 104.718 59.1842C104.533 59.0926 104.441 59.0544 104.357 58.9933C103.089 58.1456 101.683 57.5957 100.208 57.2368C97.8104 56.6487 95.367 56.6869 92.9237 56.748C92.1938 56.7633 91.5177 57.023 90.9491 57.5041C89.9349 58.3747 89.1973 59.4286 88.9898 60.7651C88.7439 62.3841 88.6364 64.0184 89.1128 65.6298C89.1358 65.7138 89.1128 65.8208 89.1128 65.9429C87.8219 65.8971 86.6003 65.9811 85.4939 66.5615C83.1043 67.8064 80.9453 69.3567 79.0321 71.2506C77.0191 73.2439 76.5043 75.6954 76.7502 78.3836C76.9269 80.2852 77.8873 81.7668 79.4547 82.8359C79.9772 83.1872 80.5458 83.5003 81.1374 83.7142C82.7586 84.3175 84.4489 84.7146 86.17 84.8368C88.9591 85.043 91.7405 84.9743 94.445 84.1342C94.8369 84.012 95.2595 83.9586 95.7973 83.844C95.6821 84.2564 95.6206 84.5084 95.5438 84.7604C94.9137 86.769 94.2683 88.7775 93.646 90.7937C92.7701 93.627 92.1323 96.4985 92.0248 99.4769C92.4243 101.669 95.8665 102.967 98.9014 95.7882L98.8937 95.7806Z" fill="#CD661A"/>
</g>
<defs>
<clipPath id="clip0_1136_909">
<rect width="198.339" height="149.127" fill="white" transform="translate(0.28418 0.127441)"/>
</clipPath>
</defs>
</svg>
