<svg width="40" height="59" viewBox="0 0 40 59" fill="none" xmlns="http://www.w3.org/2000/svg">
<g clip-path="url(#clip0_1136_925)">
<path d="M13.397 36.839C8.95635 34.6769 3.91337 38.5935 0.760034 34.2921C0.535639 30.0133 3.3701 28.3154 6.70059 26.6288C9.08626 25.4176 11.1767 23.4933 13.0545 21.5916C14.7788 19.8484 15.452 17.5619 15.204 15.0376C14.9087 12.1059 14.6489 9.14015 14.7788 6.2084C14.8615 4.4086 15.7 2.63144 16.2551 0.695801C18.4754 1.7372 20.0462 2.47296 21.6524 3.22005C22.2311 7.80445 22.8925 12.3888 23.3767 16.9959C23.8963 21.9651 26.4119 24.8856 31.4549 25.9383C34.3484 26.5495 37.0766 27.3645 39.5331 30.1039C37.0529 31.5641 34.8444 33.1262 32.3997 34.2015C30.0849 35.2203 28.4078 36.6013 27.9591 38.9784C27.2741 42.5893 26.4946 46.2342 26.3647 49.879C26.2584 53.1051 26.4355 56.1161 22.7153 57.6782C22.3728 57.8253 22.2311 58.4139 21.9713 58.8441C20.6367 58.6517 19.2903 58.4592 17.6133 58.2215C16.1842 50.9431 14.7434 43.6533 13.4088 36.8277L13.397 36.839ZM17.3298 27.9871C17.1251 30.0095 18.6959 31.5792 22.0421 32.696C23.2468 29.7416 21.6878 28.1909 17.3298 27.9871Z" fill="#CD661A"/>
</g>
<defs>
<clipPath id="clip0_1136_925">
<rect width="38.7731" height="58.1596" fill="white" transform="translate(0.748047 0.695801)"/>
</clipPath>
</defs>
</svg>
