<svg width="80" height="80" viewBox="0 0 80 80" fill="none" xmlns="http://www.w3.org/2000/svg">
<path d="M28.9129 24.1406C28.9129 28.4213 32.0006 36.1406 37.1936 44.0003C42.3866 51.8599 48.2813 57.6845 52.2813 59.3687L5.40415 68.1406C3.01818 68.5617 1.2638 65.9652 2.59713 63.8599L28.9129 24.1406Z" stroke="#F9FDF9" stroke-width="2" stroke-miterlimit="10" stroke-linejoin="round"/>
<path d="M30.1751 20.9825C33.333 18.8772 41.5436 25.8246 48.6313 36.4913C55.719 47.1579 58.8067 57.4035 55.719 59.5088C54.8769 60.0702 53.7541 60 52.3506 59.3685C48.3506 57.6842 42.526 51.8597 37.2629 44C32.0699 36.1404 28.9822 28.4913 28.9822 24.1404C28.912 22.5965 29.333 21.4737 30.1751 20.9825Z" stroke="#F9FDF9" stroke-width="2" stroke-miterlimit="10"/>
<path d="M39.3691 32.9823C39.3691 32.9823 50.5972 23.8595 53.4042 11.9297" stroke="#F9FDF9" stroke-width="2" stroke-miterlimit="10" stroke-linecap="round" stroke-linejoin="round"/>
<path d="M45.6875 45.6138C45.6875 45.6138 61.8278 43.5085 75.8629 51.2278" stroke="#F9FDF9" stroke-width="2" stroke-miterlimit="10" stroke-linecap="round" stroke-linejoin="round"/>
<path d="M43.582 38.5965C43.582 38.5965 68.1434 29.4737 75.8627 10.5264" stroke="#F9FDF9" stroke-width="2" stroke-miterlimit="10" stroke-linecap="round" stroke-linejoin="round"/>
<path d="M19.018 10.0353L20.2812 6.03531C20.4215 5.47391 21.1935 5.47391 21.404 6.03531L22.6671 10.0353C22.7373 10.2458 22.8777 10.3862 23.018 10.3862L27.018 11.6493C27.5794 11.7897 27.5794 12.5616 27.018 12.7722L23.018 14.0353C22.8075 14.1055 22.6671 14.2458 22.6671 14.3862L21.404 18.3862C21.2636 18.9476 20.4917 18.9476 20.2812 18.3862L19.018 14.3862C18.9478 14.1757 18.8075 14.0353 18.6671 14.0353L14.6671 12.7722C14.1057 12.6318 14.1057 11.8599 14.6671 11.6493L18.6671 10.3862C18.8075 10.316 18.9478 10.1757 19.018 10.0353Z" fill="#F9FDF9"/>
<path d="M64.9113 68.7722L65.8236 65.895C65.9639 65.5441 66.4551 65.5441 66.5955 65.895L67.5078 68.7722C67.578 68.9125 67.6481 68.9827 67.7885 69.0529L70.6657 69.9652C71.0165 70.1055 71.0165 70.5967 70.6657 70.7371L67.7885 71.6494C67.6481 71.7196 67.578 71.7897 67.5078 71.9301L66.5955 74.8073C66.4551 75.1581 65.9639 75.1581 65.8236 74.8073L64.9113 71.9301C64.8411 71.7897 64.7709 71.7196 64.6306 71.6494L61.7534 70.7371C61.4025 70.5967 61.4025 70.1055 61.7534 69.9652L64.6306 69.0529C64.7709 68.9827 64.9113 68.9125 64.9113 68.7722Z" fill="#F9FDF9"/>
<path d="M75.5089 30.3159L76.1405 28.2808C76.2106 28.0001 76.6317 28.0001 76.7019 28.2808L77.3334 30.3159C77.3334 30.3861 77.4036 30.4563 77.544 30.5265L79.579 31.158C79.8598 31.2282 79.8598 31.6493 79.579 31.7194L77.544 32.351C77.4738 32.351 77.4036 32.4212 77.3334 32.5615L76.7019 34.5966C76.6317 34.8773 76.2106 34.8773 76.1405 34.5966L75.5089 32.5615C75.5089 32.4914 75.4387 32.4212 75.2983 32.351L73.2633 31.7194C72.9826 31.6493 72.9826 31.2282 73.2633 31.158L75.2983 30.5265C75.4387 30.5265 75.5089 30.4563 75.5089 30.3159Z" fill="#F9FDF9"/>
</svg>
