<svg width="374" height="93" viewBox="0 0 374 93" fill="none" xmlns="http://www.w3.org/2000/svg">
<g id="Grass &#38; Flower">
<g id="grass1">
<path id="Vector 133" d="M305.517 36.0376C304.615 38.7837 304.933 42.1116 305.204 43.4323C311.334 38.4707 312.235 36.9573 312.72 34.1304C313.107 31.8688 312.134 27.9675 311.599 26.2995C310.244 30.233 306.644 32.6049 305.517 36.0376Z" fill="white"/>
<path id="Vector 130 (Stroke)" fill-rule="evenodd" clip-rule="evenodd" d="M300.782 22.2872C301.035 22.3139 301.218 22.5411 301.191 22.7946C300.324 31.0495 303.751 40.5928 308.452 49.2168C313.146 57.8261 319.066 65.4424 323.08 69.8166C323.252 70.0041 323.24 70.2961 323.053 70.4688C322.867 70.6416 322.576 70.6297 322.404 70.4423C318.347 66.021 312.38 58.3444 307.646 49.6602C302.92 40.9908 299.38 31.2402 300.277 22.6977C300.304 22.4442 300.53 22.2604 300.782 22.2872Z" fill="white"/>
<path id="Vector 131" d="M298.796 17.116C298.617 20.0698 300.062 22.176 300.807 22.8599C302.32 20.7931 302.586 17.8278 302.513 16.7984C302.407 15.3176 301.907 14.025 301.095 12.5451C300.511 11.4798 300.01 10.7353 299.754 10.534C299.777 12.7449 299.02 13.4238 298.796 17.116Z" fill="white"/>
<path id="Vector 132" d="M300.001 33.9262C300.708 34.9182 301.969 35.7941 302.474 36.0507C300.949 36.8348 299.382 37.0975 297.533 36.7661C294.677 36.2539 293.831 33.3134 292.72 31.8183C291.389 30.0262 290.086 29.0544 289.071 27.9954C290.006 28.5574 293.286 27.9067 295.645 29.3951C298.004 30.8835 299.117 32.6863 300.001 33.9262Z" fill="white"/>
<path id="Vector 134" d="M305.459 48.6888C306.914 49.563 307.738 49.7983 308.368 50.0826C308.057 50.2499 307.237 51.0331 306.002 50.8573C304.766 50.6816 303.685 49.8904 302.417 48.703C301.403 47.7532 300.104 47.4545 299.581 47.4238C299.854 47.3991 300.667 47.3536 301.73 47.369C303.059 47.3881 304.104 47.8746 305.459 48.6888Z" fill="white"/>
<path id="Vector 135" d="M313.955 50.534C313.046 53.9559 313.778 57.7025 314.257 59.1481C314.451 56.2173 316.74 52.4911 317.464 50.0915C318.55 46.4921 317.924 44.4627 317.674 43.6982C317.405 44.0322 315.092 46.2566 313.955 50.534Z" fill="white"/>
</g>
<g id="grass2">
<path id="Vector 133_2" d="M74.5254 49.7958C75.3725 53.1707 74.7054 57.1383 74.266 58.7003C67.333 52.213 66.3807 50.3181 66.0418 46.8824C65.7707 44.1338 67.2739 39.5345 68.0594 37.5784C69.3487 42.418 73.4666 45.5773 74.5254 49.7958Z" fill="white"/>
<path id="Vector 130 (Stroke)_2" fill-rule="evenodd" clip-rule="evenodd" d="M81.3886 33.7329C81.1022 33.7425 80.8778 33.9835 80.8874 34.2712C81.2203 44.2672 76.2817 55.4345 69.8966 65.3822C63.5217 75.3138 55.7591 83.9466 50.563 88.852C50.3541 89.0491 50.344 89.379 50.5402 89.5887C50.7365 89.7985 51.0649 89.8088 51.2737 89.6116C56.5222 84.6569 64.3418 75.9598 70.7688 65.9471C77.1855 55.9503 82.2684 44.5587 81.9246 34.2364C81.915 33.9487 81.675 33.7232 81.3886 33.7329Z" fill="white"/>
<path id="Vector 131_2" d="M84.2164 27.6644C84.1778 31.2259 82.2621 33.6294 81.3091 34.3859C79.6698 31.7735 79.6054 28.1907 79.7819 26.9613C80.0359 25.1927 80.747 23.6843 81.8485 21.9779C82.6413 20.7496 83.307 19.8992 83.632 19.6797C83.414 22.332 84.2646 23.2125 84.2164 27.6644Z" fill="white"/>
<path id="Vector 132_2" d="M81.3273 47.7401C80.3931 48.8697 78.8043 49.812 78.1753 50.0763C79.939 51.1497 81.7982 51.6008 84.0457 51.3631C87.5192 50.9957 88.7872 47.5388 90.2488 45.8401C92.0007 43.8039 93.6478 42.7501 94.9576 41.5667C93.7868 42.1604 89.9049 41.0951 86.9455 42.6776C83.9862 44.2602 82.495 46.3281 81.3273 47.7401Z" fill="white"/>
<path id="Vector 134_2" d="M73.5067 64.988C71.6853 65.9115 70.6759 66.1227 69.8949 66.4094C70.2543 66.6371 71.1705 67.6484 72.6691 67.5444C74.1677 67.4405 75.5331 66.5842 77.1574 65.2686C78.4569 64.2161 80.0418 63.97 80.6719 63.9785C80.3458 63.9252 79.3742 63.8002 78.0966 63.7265C76.4995 63.6345 75.2029 64.1279 73.5067 64.988Z" fill="white"/>
<path id="Vector 135_2" d="M63.15 66.4678C63.948 70.6546 62.7483 75.0891 62.0487 76.783C62.0678 73.2477 59.6387 68.5762 58.9757 65.6327C57.9814 61.2175 58.9064 58.8354 59.2724 57.9392C59.5672 58.3636 62.1525 61.2343 63.15 66.4678Z" fill="white"/>
</g>
<path id="Vector 238" d="M370.627 30.9745C371.976 36.2493 373.438 39.2918 374 40.1537V91.9966H0V39.2487L5.70795 26.3203L8.82138 69.1133C8.37929 63.037 10.6382 57.0382 14.7894 52.1771C18.9406 47.316 24.7347 45.6698 27.1128 45.4544C22.2351 54.0388 25.0804 60.9253 27.1128 63.942C29.0846 56.8055 36.842 52.7805 39.1773 52.0478C37.7244 60.7357 39.4368 67.6912 42.0313 69.1133L47.9987 58.6413V68.2084L55.912 58.6413L52.9283 69.1133C59.6741 61.5631 69.7489 57.564 73.2944 59.2878C64.0572 66.3208 65.1214 73.8538 66.8081 76.7411C70.3116 72.3454 76.0196 69.1133 81.0789 69.1133C79.133 73.7676 79.4357 76.3532 83.2842 79.0682C84.9447 74.8277 84.5815 68.4669 91.3271 61.7441C89.6408 69.7598 93.7488 72.3885 95.7379 72.3454C97.7098 68.6221 100.84 62.1751 102.224 61.7441C100.356 65.3641 101.445 70.32 102.224 72.3454C103.573 67.4844 105.64 66.0105 106.505 65.8812C105.571 69.5012 106.894 74.0261 107.672 75.8361C108.71 71.699 110.613 70.7509 111.435 70.794C111.227 75.9654 116.018 78.4649 118.44 79.0682C118.613 80.318 118.959 82.0676 118.959 79.0682C118.959 76.0688 120.689 74.2847 121.553 73.7676C120.827 80.1801 129.337 81.266 132.84 81.0075C132.84 78.9389 131.845 76.9566 130.115 74.9311C139.871 77.2065 143.391 78.2063 144.515 81.0075C144.826 75.7327 141.618 71.3112 139.975 69.7598C141.791 69.6736 146.513 70.3545 150.872 73.7676C155.23 77.1807 157.704 81.2229 158.396 82.8175L156.32 75.8361L162.936 82.8175C162.624 80.7489 163.498 77.9047 163.974 76.7411C163.974 80.3611 166.568 82.5589 167.865 83.2053C167.45 81.2402 168.038 79.1975 168.384 78.4218C169.837 82.7657 172.016 83.507 172.925 83.3346C173.132 80.8523 175.26 79.3699 176.297 78.9389C177.439 83.5932 180.146 83.4639 181.357 82.8175C184.885 79.5078 181.876 73.4228 179.93 70.794C187.61 72.8626 190.221 78.4649 190.567 81.0075L192.254 70.794L196.664 79.9732V73.7676L200.297 78.9389C201.957 74.1813 206.61 69.8029 208.729 68.2084C207.795 72.5523 210.156 76.3102 211.454 77.6461C213.425 70.7165 217.983 67.0879 220.015 66.1398C219.15 66.8724 217.472 69.4236 217.68 73.7676C217.939 79.1975 227.798 79.5854 229.225 73.7676C230.367 69.1133 228.75 63.9851 227.798 62.0027C236.724 66.0364 240.252 72.9057 240.901 75.8361L241.939 63.942L246.998 75.8361L248.036 66.1398L251.669 75.8361C250.32 68.0791 255.69 63.037 258.544 61.4856C257.817 69.2426 263.517 72.9057 266.457 73.7676C264.589 66.8379 269.657 63.037 272.424 62.0027C270.971 69.0358 278.305 72.7764 282.154 73.7676L284.099 61.4856L288.251 71.1819L289.159 62.7784L292.402 70.1476C292.091 65.5968 294.694 62.4768 296.034 61.4856C295.619 65.0021 297.159 67.3465 297.98 68.0791C298.188 65.5968 299.797 62.9939 300.575 62.0027C300.446 62.3906 300.264 63.9678 300.575 67.1741C300.887 70.3803 304.683 69.1133 306.543 68.0791C310.071 64.1488 306.889 57.9087 304.856 55.2799C312.64 56.9348 316.748 63.2094 317.829 66.1398C320.839 59.6239 317.959 53.8578 316.143 51.7893C323.096 52.6167 331.493 58.5982 334.823 61.4856C334.615 57.9691 336.293 54.5042 337.158 53.2114C337.054 56.0039 338.844 58.0811 339.752 58.7706C339.752 54.8404 342.866 49.8931 344.423 47.9108C343.817 49.5053 342.814 53.3665 343.644 56.0556C344.475 58.7448 348.055 57.1761 349.742 56.0556C351.194 53.47 350.347 47.3074 349.742 44.5494C353.581 48.0659 354.022 52.3926 353.763 54.1164C355.008 52.6684 356.271 50.5826 356.747 49.7207C357.162 45.2734 355.882 37.1802 355.19 33.6895L360.639 44.5494L361.417 38.2144C363.233 42.3515 366.554 49.7207 365.309 46.1008C364.063 42.4808 364.011 35.8011 364.141 32.9138C364.764 36.5338 368.725 40.9725 370.627 42.7394V30.9745Z" fill="white"/>
<g id="grass3">
<path id="Vector 141" d="M164.375 44.4169C163.115 46.5578 163.325 52.0885 163.587 54.5862C165.425 52.1777 166.842 49.3022 167.001 47.3607C167.263 44.1493 165.95 41.7408 164.375 44.4169Z" fill="white"/>
<path id="Vector 140" d="M165.684 55.8631C164.843 56.4792 163.582 57.1467 163.056 57.4034C163.582 57.5746 165.001 57.9169 166.472 57.9169C168.311 57.9169 169.888 56.6332 169.362 55.6063C168.837 54.5794 166.735 55.0929 165.684 55.8631Z" fill="white"/>
<path id="Vector 138" d="M160.013 60.4886C161.042 63.0462 161.128 65.4617 161.042 66.3498C160.013 65.2841 158.727 64.4849 157.44 61.8207C156.154 59.1566 158.727 57.2917 160.013 60.4886Z" fill="white"/>
<path id="Vector 142" d="M165.213 63.6993C163.035 64.5775 161.522 65.964 161.038 66.5475C162.315 66.559 163.589 66.891 165.99 66.111C168.391 65.331 167.936 62.6016 165.213 63.6993Z" fill="white"/>
<path id="Vector 139" d="M161.898 54.1212C162.858 55.6077 163.18 57.1149 163.221 57.6827C162.426 57.1333 161.49 56.7812 160.349 55.2577C159.208 53.7343 160.698 52.2631 161.898 54.1212Z" fill="white"/>
<path id="Vector 137" d="M158.116 68.1625C158.533 70.0909 158.637 72.7157 158.637 73.7871C157.769 73.5193 155.722 72.6086 154.474 71.1087C152.912 69.2338 152.912 65.2162 154.734 64.9484C156.555 64.6805 157.596 65.7519 158.116 68.1625Z" fill="white"/>
<path id="Vector 143" d="M162.898 72.2075C161.447 72.6663 159.655 73.6099 158.94 74.0243C159.463 74.5188 160.882 75.5782 162.377 75.8594C164.246 76.2109 166.926 74.6568 166.383 73.2971C165.839 71.9373 164.712 71.634 162.898 72.2075Z" fill="white"/>
<path id="Vector 136 (Stroke)" fill-rule="evenodd" clip-rule="evenodd" d="M163.4 53.6328C162.867 57.103 161.535 64.5851 158.603 73.6711C156.266 80.9146 151.955 88.6006 150.094 91.5328L150.827 92.0025C152.71 89.0368 157.062 81.281 159.431 73.9406C162.381 64.7967 163.723 57.266 164.26 53.7659L163.4 53.6328Z" fill="white"/>
</g>
<g id="grass7">
<path id="Vector 141_2" d="M22.8834 1.36746C21.3865 3.91036 21.636 10.4795 21.9478 13.4462C24.1309 10.5854 25.8135 7.17004 26.002 4.86396C26.314 1.04962 24.7546 -1.81115 22.8834 1.36746Z" fill="white"/>
<path id="Vector 140_2" d="M24.4379 14.9606C23.4392 15.6925 21.9413 16.4853 21.3171 16.7903C21.9413 16.9935 23.6265 17.4001 25.3741 17.4001C27.5587 17.4001 29.4312 15.8754 28.807 14.6557C28.1829 13.436 25.6862 14.0458 24.4379 14.9606Z" fill="white"/>
<path id="Vector 138_2" d="M17.7029 20.4575C18.9252 23.4954 19.0271 26.3644 18.9252 27.4192C17.7029 26.1535 16.175 25.2041 14.6471 22.0397C13.1191 18.8753 16.175 16.6603 17.7029 20.4575Z" fill="white"/>
<path id="Vector 142_2" d="M23.8809 24.2723C21.2935 25.3154 19.497 26.9623 18.9221 27.6553C20.4385 27.6689 21.9515 28.0633 24.8032 27.1368C27.6549 26.2103 27.115 22.9684 23.8809 24.2723Z" fill="white"/>
<path id="Vector 139_2" d="M19.9419 12.8939C21.0819 14.6595 21.4648 16.4497 21.5138 17.1241C20.5688 16.4715 19.4572 16.0533 18.1019 14.2438C16.7465 12.4343 18.5169 10.6869 19.9419 12.8939Z" fill="white"/>
<path id="Vector 137_2" d="M15.4502 29.5704C15.9447 31.8609 16.0684 34.9786 16.0684 36.2511C15.0382 35.933 12.6069 34.8513 11.1234 33.0698C9.2691 30.8429 9.2691 26.0709 11.4325 25.7528C13.5959 25.4347 14.8321 26.7072 15.4502 29.5704Z" fill="white"/>
<path id="Vector 143_2" d="M21.1308 34.3745C19.4071 34.9195 17.2787 36.0402 16.4299 36.5324C17.0505 37.1198 18.7356 38.3782 20.5119 38.7121C22.7322 39.1296 25.915 37.2837 25.2696 35.6687C24.6243 34.0536 23.2855 33.6933 21.1308 34.3745Z" fill="white"/>
<path id="Vector 136 (Stroke)_2" fill-rule="evenodd" clip-rule="evenodd" d="M21.7233 12.3125C21.0909 16.4342 19.5083 25.3211 16.026 36.113C13.2499 44.7162 8.12959 53.8453 5.91922 57.3278L6.79431 57.8883C9.03018 54.3655 14.1998 45.1533 17.0132 36.4344C20.5178 25.5735 22.1111 16.6286 22.749 12.4713L21.7233 12.3125Z" fill="white"/>
</g>
<g id="grass4">
<path id="Vector 152" d="M271.203 36.9601C270.681 37.7296 270.387 38.8672 270.336 39.2985C269.376 38.4062 268.778 37.3467 268.529 35.9289C268.145 33.7378 270.021 32.357 270.796 31.1651C271.725 29.7364 272.077 28.5437 272.566 27.5347C272.411 28.3555 273.736 30.5462 273.293 32.6349C272.85 34.7236 271.855 35.9982 271.203 36.9601Z" fill="white"/>
<path id="Vector 153" d="M272.269 46.9711C271.123 49.3389 271.135 52.1856 271.284 53.313C271.836 51.1989 274.036 48.812 274.902 47.1643C276.202 44.6927 276.027 43.117 275.951 42.5213C275.707 42.7258 273.7 44.0115 272.269 46.9711Z" fill="white"/>
<path id="Vector 154" d="M270.194 56.1982C272.124 57.979 273.152 60.6316 273.425 61.7353C272.14 59.9719 269.222 58.5619 267.814 57.3482C265.703 55.5277 265.29 53.9975 265.143 53.4152C265.445 53.5155 267.781 53.9724 270.194 56.1982Z" fill="white"/>
<path id="Vector 151 (Stroke)" fill-rule="evenodd" clip-rule="evenodd" d="M269.833 35.6632C270.119 35.6533 270.359 35.8785 270.369 36.1662C270.848 50.1183 272.741 57.8273 274.585 65.3358C275.163 67.6904 275.737 70.0253 276.26 72.5268C276.319 72.8085 276.139 73.0848 275.859 73.1441C275.579 73.2033 275.303 73.0229 275.244 72.7412C274.729 70.279 274.161 67.9664 273.586 65.6245C271.737 58.0992 269.815 50.2712 269.332 36.2021C269.322 35.9144 269.546 35.6732 269.833 35.6632Z" fill="white"/>
</g>
<g id="grass8">
<path id="Vector 152_2" d="M197.83 52.337C198.353 53.1066 198.647 54.2441 198.697 54.6755C199.657 53.7832 200.256 52.7237 200.504 51.3059C200.889 49.1148 199.013 47.734 198.237 46.5421C197.308 45.1134 196.956 43.9206 196.467 42.9117C196.623 43.7324 195.298 45.9231 195.741 48.0118C196.184 50.1006 197.178 51.3752 197.83 52.337Z" fill="white"/>
<path id="Vector 153_2" d="M196.765 62.3481C197.91 64.7159 197.898 67.5626 197.749 68.69C197.197 66.5758 194.997 64.189 194.131 62.5412C192.832 60.0697 193.006 58.4939 193.082 57.8982C193.327 58.1028 195.333 59.3884 196.765 62.3481Z" fill="white"/>
<path id="Vector 154_2" d="M198.841 71.5772C196.91 73.3579 195.882 76.0105 195.609 77.1142C196.894 75.3508 199.812 73.9408 201.22 72.7271C203.331 70.9066 203.745 69.3764 203.891 68.7941C203.589 68.8944 201.253 69.3513 198.841 71.5772Z" fill="white"/>
<path id="Vector 151 (Stroke)_2" fill-rule="evenodd" clip-rule="evenodd" d="M199.201 51.0402C198.914 51.0303 198.674 51.2555 198.664 51.5432C198.185 65.4952 196.292 73.2042 194.448 80.7127C193.87 83.0673 193.297 85.4022 192.773 87.9037C192.714 88.1854 192.894 88.4618 193.174 88.521C193.455 88.5802 193.73 88.3999 193.789 88.1181C194.304 85.6559 194.872 83.3434 195.447 81.0015C197.296 73.4761 199.219 65.6482 199.701 51.5791C199.711 51.2914 199.487 51.0501 199.201 51.0402Z" fill="white"/>
</g>
<g id="grass10">
<path id="Vector 146" d="M344.97 15.8624C345.346 15.318 345.175 13.76 341.489 11.8838C337.803 10.0075 335.159 8.86835 334.297 8.5333C334.408 8.05866 335.202 7.25176 337.486 7.82133C339.771 8.39091 342.9 9.97121 344.178 10.6902L345.283 11.4859C344.685 9.26622 343.29 4.52533 342.49 3.31916C341.489 1.81146 341.155 1.26701 341.489 1.05761C341.822 0.848202 344.929 3.27728 345.679 4.97345C346.132 5.99598 346.423 7.14613 346.575 7.91675C346.319 6.31755 346.047 3.88957 346.471 3.50762C346.955 3.07207 347.84 3.99623 348.222 4.51276C348.556 3.87059 349.008 3.09685 349.539 2.5638C350.264 1.83474 351.268 1.55682 351.413 1.59172C352.089 2.23081 352.071 3.46178 352.104 4.34965C352.327 4.08441 352.869 3.922 353.954 3.53587C355.028 3.1533 355.77 2.94322 356.131 3.53587C356.675 4.42916 356.917 4.87248 357.27 6.12517C357.562 6.11121 358.237 6.19218 358.604 6.62773C358.971 7.06329 359.16 7.77247 359.208 8.07262C359.639 7.91906 361.212 8.43715 362.179 8.7608C363.285 9.13048 363.329 9.59733 363.329 10.3404C363.329 11.2913 363.329 11.3125 363.065 12.3444C363.656 12.6167 364.599 13.3496 363.649 14.1034C362.698 14.8573 361.39 15.2552 360.855 15.3599C362.468 15.5902 366.013 16.3231 367.297 17.412C368.581 18.5009 368.166 18.3962 367.797 18.2077C366.088 17.5656 362.169 16.365 360.167 16.7C360.633 17.0072 361.572 17.8308 361.606 18.6684C361.648 19.7154 360.605 19.8201 359.605 19.8201C358.804 19.8201 357.381 19.5828 356.769 19.4642C357.923 20.8811 360.167 24.2092 359.917 26.186C359.605 28.657 360.147 28.5941 359.208 28.4476C358.27 28.301 359.479 26.3535 356.769 23.0868C354.601 20.4735 350.835 18.7452 349.223 18.2077L344.97 15.8624Z" fill="white"/>
<path id="Vector 144 (Stroke)" fill-rule="evenodd" clip-rule="evenodd" d="M343.172 39.0605C341.856 28.8307 344.416 20.8489 345.895 18.0898L346.67 18.5088C345.279 21.1036 342.752 28.8991 344.044 38.9473C345.342 49.041 348.442 58.2859 349.823 61.6306L349.01 61.9691C347.605 58.5656 344.481 49.2447 343.172 39.0605Z" fill="white"/>
<path id="Vector 145" d="M343.611 16.1888C345.457 16.0355 346.097 17.6014 346.186 18.4036C346.468 18.3539 347.257 18.2588 348.164 18.2758C349.07 18.2928 349.53 18.865 349.647 19.1489C349.778 18.0927 348.878 17.4311 348.411 17.2323C348.685 16.9484 349.144 16.2612 348.781 15.7842C348.419 15.3072 347.6 15.5145 347.237 15.6777C346.928 15.2518 346.289 15.0176 345.939 15.0176C345.659 15.0176 345.369 15.5287 345.259 15.7842C344.699 15.5798 343.927 15.9688 343.611 16.1888Z" fill="white"/>
<path id="Vector 147" d="M348.862 44.5001C347.231 48.3417 346.698 51.8013 346.636 53.0509C348.3 50.9869 351.462 47.3223 353.314 45.6164C355.166 43.9104 360.45 38.4767 357.954 37.7395C355.457 37.0024 350.901 39.6982 348.862 44.5001Z" fill="white"/>
<path id="Vector 150" d="M344.96 36.3223C343.972 38.6514 343.649 40.749 343.611 41.5067C344.62 40.2553 346.537 38.0334 347.659 36.9991C348.781 35.9648 351.984 32.6703 350.471 32.2234C348.958 31.7765 346.196 33.4109 344.96 36.3223Z" fill="white"/>
<path id="Vector 148" d="M339.125 39.7108C341.575 41.5927 343.507 44.8112 345.062 47.3402C344.791 47.1424 343.937 46.5518 342.687 45.7719C341.125 44.7971 328.98 42.3175 326.563 40.8129C324.147 39.3082 325.334 37.7611 327.48 36.8286C329.626 35.8962 334.75 36.3503 339.125 39.7108Z" fill="white"/>
<path id="Vector 149" d="M340.468 29.1654C341.812 30.8505 342.585 33.3588 343.218 35.336C343.068 35.1567 342.589 34.6138 341.873 33.8766C340.979 32.9552 333.187 29.26 331.803 27.837C330.419 26.4139 331.477 25.5582 333.08 25.279C334.683 24.9998 338.069 26.1563 340.468 29.1654Z" fill="white"/>
</g>
<g id="grass6">
<path id="Vector 146_2" d="M127.102 44.0713C127.012 43.4571 127.8 42.2193 131.674 42.1815C135.547 42.1436 138.241 42.2906 139.104 42.3688C139.207 41.9235 138.874 40.9141 136.718 40.4388C134.562 39.9635 131.28 39.9854 129.908 40.0557L128.65 40.2631C130.071 38.6473 133.205 35.246 134.377 34.5667C135.841 33.7175 136.347 33.3993 136.153 33.084C135.96 32.7688 132.344 33.5132 131.012 34.6252C130.209 35.2955 129.488 36.1403 129.041 36.7245C129.918 35.4876 131.151 33.5607 130.953 33.0627C130.727 32.4947 129.6 32.9017 129.065 33.1762C129.051 32.4973 128.991 31.6584 128.766 30.9889C128.458 30.0732 127.73 29.4208 127.592 29.3892C126.761 29.6444 126.266 30.6862 125.871 31.4184C125.794 31.1027 125.405 30.7397 124.653 29.9624C123.909 29.1922 123.372 28.706 122.824 29.0533C121.997 29.5766 121.61 29.8482 120.795 30.7537C120.556 30.6201 119.955 30.4062 119.466 30.619C118.978 30.8318 118.526 31.3488 118.361 31.5807C118.062 31.2718 116.526 31.0507 115.579 30.9186C114.497 30.7678 114.267 31.1418 113.96 31.7662C113.567 32.5653 113.558 32.5831 113.352 33.5602C112.743 33.5424 111.647 33.7643 112.134 34.7947C112.621 35.825 113.555 36.7054 113.961 37.0167C112.511 36.5372 109.229 35.6729 107.699 36.0518C106.17 36.4306 106.562 36.5161 106.95 36.5115C108.652 36.6856 112.442 37.313 113.985 38.4302C113.467 38.4938 112.336 38.7937 111.962 39.4837C111.493 40.3461 112.326 40.8693 113.167 41.287C113.839 41.6213 115.134 42.016 115.697 42.1716C114.141 42.8807 110.878 44.7403 110.27 46.5058C109.51 48.7128 109.081 48.4337 109.93 48.7022C110.779 48.9707 110.569 46.8294 114.198 45.2158C117.101 43.9249 120.981 44.0451 122.558 44.2666L127.102 44.0713Z" fill="white"/>
<path id="Vector 144 (Stroke)_2" fill-rule="evenodd" clip-rule="evenodd" d="M119.095 64.3706C124.445 56.3065 125.602 48.51 125.5 45.5533L124.48 45.5887C124.574 48.329 123.478 55.9144 118.245 63.8016C112.984 71.7331 106.559 78.2011 104.021 80.4305L104.693 81.203C107.287 78.9249 113.775 72.3902 119.095 64.3706Z" fill="white"/>
<path id="Vector 145_2" d="M128.107 44.9139C126.62 44.0145 125.434 45.0632 125.027 45.7C124.811 45.5407 124.187 45.1311 123.418 44.767C122.65 44.403 122.026 44.6917 121.811 44.8815C122.137 43.9389 123.168 43.7591 123.642 43.787C123.529 43.4337 123.428 42.6648 123.93 42.4153C124.432 42.1658 125.034 42.6817 125.272 42.9708C125.708 42.7419 126.342 42.8117 126.636 42.9579C126.871 43.0748 126.903 43.6253 126.89 43.8859C127.445 43.948 127.933 44.5971 128.107 44.9139Z" fill="white"/>
<path id="Vector 147_2" d="M111.982 66.5129C111.763 70.4221 110.779 73.5516 110.315 74.6277C109.77 72.1984 108.629 67.7987 107.779 65.5921C106.929 63.3854 104.737 56.613 107.14 57.036C109.543 57.4589 112.256 61.6265 111.982 66.5129Z" fill="white"/>
<path id="Vector 150_2" d="M118.644 61.2686C118.511 63.6386 117.914 65.536 117.632 66.1884C117.303 64.7157 116.611 62.0484 116.096 60.7107C115.581 59.3731 114.253 55.2675 115.71 55.5237C117.166 55.7798 118.81 58.3062 118.644 61.2686Z" fill="white"/>
<path id="Vector 148_2" d="M122.145 66.5507C119.307 67.1093 116.352 69.0073 113.999 70.483C114.308 70.4299 115.27 70.2902 116.643 70.1567C118.36 69.9898 129.591 72.9769 132.244 72.7214C134.898 72.4659 134.54 70.6701 133.123 68.9907C131.705 67.3113 127.211 65.5533 122.145 66.5507Z" fill="white"/>
<path id="Vector 149_2" d="M125.38 57.1302C123.554 57.9852 121.866 59.7701 120.516 61.1673C120.717 61.0794 121.344 60.8233 122.25 60.5025C123.383 60.1016 131.46 60.2499 133.211 59.6317C134.963 59.0136 134.428 57.8531 133.197 56.9492C131.965 56.0453 128.642 55.6035 125.38 57.1302Z" fill="white"/>
</g>
<g id="grass5">
<path id="Vector 156" d="M238.299 43.8041C239.032 43.4171 240.543 42.489 241.149 41.8697C242.06 40.8084 242.294 39.9014 242.297 39.5806C242.55 39.4016 243.102 38.9199 243.289 38.4252C243.523 37.8068 243.88 36.6984 243.87 36.0179C243.862 35.4736 243.63 34.7402 243.515 34.4415C243.59 34.3825 243.762 34.2228 243.846 34.0563C243.95 33.8482 243.859 31.5309 243.739 30.9789C243.619 30.4268 243.134 29.2607 242.013 28.6627C241.116 28.1842 240.224 28.3813 239.89 28.5397L239.276 27.7838C238.106 27.0692 237.464 27.5576 236.584 28.0637C235.879 28.4685 235.555 29.0883 235.481 29.3475C235.418 29.3923 235.181 29.49 234.736 29.523C234.181 29.5642 233.935 30.0232 233.423 30.1013C232.91 30.1794 232.037 30.2442 231.426 30.6101C230.814 30.976 230.489 31.4409 230.434 31.7656C230.389 32.0253 230.645 32.4711 230.779 32.6616C230.054 32.9291 228.66 33.9006 228.884 35.6471C229.108 37.3935 230.326 38.4385 230.907 38.7427C230.783 39.2327 231.097 39.7036 231.269 39.8778L231.23 39.8672C230.576 39.6923 229.866 39.5024 229.328 39.5322C227.97 39.6074 226.239 40.3712 226.923 40.4407C227.606 40.5102 229.234 40.9504 229.753 40.952C230.271 40.9536 230.711 40.9611 231.447 41.7479C232.183 42.5348 233.639 43.3484 234.388 43.7737C235.137 44.1989 236.783 44.6052 238.299 43.8041Z" fill="white"/>
<path id="Vector 151 (Stroke)_3" fill-rule="evenodd" clip-rule="evenodd" d="M236.479 39.7378C236.733 39.708 236.963 39.8903 236.993 40.1451C238.78 55.4612 241.793 63.6663 244.727 71.6541C245.647 74.1583 246.558 76.6411 247.422 79.3149C247.501 79.559 247.368 79.821 247.125 79.9001C246.882 79.9793 246.621 79.8457 246.542 79.6017C245.691 76.9667 244.787 74.5058 243.872 72.0142C240.932 64.0098 237.875 55.6878 236.074 40.2533C236.044 39.9985 236.226 39.7677 236.479 39.7378Z" fill="white"/>
<path id="Vector 157" d="M241.004 40.7039C240.077 41.3138 238.91 42.9621 238.442 43.71C239.483 43.2996 241.691 42.2202 242.199 41.1857C242.834 39.8925 242.604 40.4513 243.67 39.8856C244.735 39.3198 246.642 37.3373 245.969 37.7388C245.297 38.1403 244.12 38.2806 243.384 38.9307C242.649 39.5807 242.163 39.9416 241.004 40.7039Z" fill="white"/>
<path id="Vector 154_3" d="M240.172 53.1419C239.386 55.3134 239.654 57.7973 239.887 58.7678C240.177 56.8719 241.881 54.5874 242.488 53.0699C243.399 50.7937 243.104 49.4342 242.983 48.9212C242.789 49.122 241.154 50.4276 240.172 53.1419Z" fill="white"/>
<path id="Vector 158" d="M238.33 59.7565C240.176 61.1345 241.314 63.3561 241.652 64.2946C240.37 62.8728 237.695 61.9085 236.357 60.9777C234.349 59.5814 233.85 58.2835 233.669 57.7885C233.942 57.8485 236.022 58.0339 238.33 59.7565Z" fill="white"/>
<path id="Vector 159" d="M244.683 68.8239C244.149 70.3012 244.331 71.9911 244.489 72.6514C244.687 71.3616 245.846 69.8073 246.259 68.7749C246.879 67.2263 246.678 66.3013 246.596 65.9523C246.464 66.089 245.351 66.9772 244.683 68.8239Z" fill="white"/>
</g>
<g id="grass9">
<path id="Vector 156_2" d="M44.4938 33.8406C43.672 33.4064 41.9762 32.3648 41.2961 31.6699C40.2736 30.4789 40.0112 29.4612 40.0078 29.1013C39.7241 28.9004 39.1044 28.3598 38.8945 27.8046C38.6322 27.1107 38.2312 25.8669 38.2426 25.1034C38.2517 24.4925 38.5122 23.6695 38.6412 23.3344C38.5566 23.2681 38.3639 23.089 38.2701 22.9021C38.153 22.6686 38.2547 20.0683 38.3898 19.4488C38.5248 18.8293 39.0687 17.5207 40.3266 16.8496C41.333 16.3128 42.3343 16.5339 42.7092 16.7116L43.3982 15.8634C44.7106 15.0615 45.4312 15.6096 46.419 16.1775C47.2093 16.6318 47.5729 17.3272 47.656 17.6182C47.7269 17.6684 47.9934 17.7781 48.492 17.8151C49.1153 17.8613 49.3908 18.3763 49.9663 18.464C50.5417 18.5517 51.5212 18.6243 52.2072 19.0349C52.8932 19.4455 53.2577 19.9672 53.3205 20.3315C53.3707 20.623 53.0832 21.1233 52.9332 21.337C53.7467 21.6372 55.3108 22.7274 55.0593 24.6872C54.8078 26.647 53.4414 27.8196 52.7896 28.1609C52.9282 28.7108 52.5761 29.2392 52.3826 29.4347L52.4271 29.4228C53.1607 29.2265 53.9573 29.0134 54.5606 29.0468C56.0849 29.1313 58.0268 29.9883 57.2601 30.0663C56.4934 30.1444 54.6666 30.6383 54.0845 30.6401C53.5025 30.6419 53.0095 30.6503 52.1836 31.5333C51.3577 32.4163 49.7239 33.3293 48.8831 33.8065C48.0422 34.2837 46.1954 34.7396 44.4938 33.8406Z" fill="white"/>
<path id="Vector 151 (Stroke)_4" fill-rule="evenodd" clip-rule="evenodd" d="M46.5348 29.2763C46.2502 29.2428 45.9924 29.4474 45.959 29.7333C43.9534 46.9202 40.5719 56.1276 37.2799 65.0912C36.2479 67.9012 35.2247 70.6873 34.2555 73.6878C34.167 73.9616 34.3163 74.2556 34.5889 74.3444C34.8615 74.4333 35.1541 74.2833 35.2426 74.0095C36.1978 71.0526 37.2121 68.2912 38.2391 65.4952C41.5384 56.5131 44.9686 47.1745 46.9898 29.8546C47.0231 29.5687 46.8194 29.3098 46.5348 29.2763Z" fill="white"/>
<path id="Vector 157_2" d="M41.4588 30.361C42.4992 31.0454 43.8084 32.895 44.3329 33.7343C43.1653 33.2738 40.6875 32.0626 40.1177 30.9016C39.4054 29.4505 39.6627 30.0776 38.4673 29.4427C37.2719 28.8078 35.1321 26.5831 35.8866 27.0337C36.6412 27.4843 37.962 27.6417 38.7872 28.3712C39.6124 29.1006 40.1583 29.5056 41.4588 30.361Z" fill="white"/>
<path id="Vector 154_4" d="M42.3929 44.318C43.2743 46.7548 42.9736 49.542 42.7131 50.6311C42.3871 48.5036 40.4748 45.94 39.7936 44.2372C38.7719 41.683 39.1028 40.1574 39.2381 39.5817C39.4566 39.8071 41.2911 41.2721 42.3929 44.318Z" fill="white"/>
<path id="Vector 158_2" d="M44.4581 51.7399C42.3865 53.2863 41.1094 55.7792 40.7298 56.8323C42.1683 55.2368 45.1699 54.1548 46.672 53.1102C48.9252 51.5434 49.4853 50.0869 49.688 49.5315C49.3821 49.5988 47.0476 49.8069 44.4581 51.7399Z" fill="white"/>
<path id="Vector 159_2" d="M37.3298 61.9164C37.9295 63.5743 37.7249 65.4706 37.5476 66.2115C37.3258 64.7641 36.0248 63.02 35.5614 61.8615C34.8663 60.1237 35.0914 59.0858 35.1834 58.6941C35.3321 58.8474 36.5802 59.8442 37.3298 61.9164Z" fill="white"/>
</g>
</g>
</svg>
