<svg width="80" height="80" viewBox="0 0 80 80" fill="none" xmlns="http://www.w3.org/2000/svg">
<path d="M27.2643 75.5992C41.0868 75.5992 52.2922 64.3723 52.2922 50.5232C52.2922 36.6742 41.0868 25.4473 27.2643 25.4473C13.4417 25.4473 2.23633 36.6742 2.23633 50.5232C2.23633 64.3723 13.4417 75.5992 27.2643 75.5992Z" stroke="#F9FDF9" stroke-width="2" stroke-miterlimit="10"/>
<path d="M52.735 75.1509C66.5575 75.1509 77.7629 63.9241 77.7629 50.075C77.7629 36.2259 66.5575 24.999 52.735 24.999C38.9124 24.999 27.707 36.2259 27.707 50.075C27.707 63.9241 38.9124 75.1509 52.735 75.1509Z" stroke="#F9FDF9" stroke-width="2" stroke-miterlimit="10"/>
<path d="M31.284 2.6096C28.1555 1.26625 25.027 4.40075 24.5801 4.84853C24.1332 4.40075 21.0047 1.26625 17.4292 2.6096C13.4069 4.40075 13.8538 7.98303 16.0885 10.6697C18.77 13.3564 22.3455 16.9387 23.6862 18.2821C23.6862 18.2821 24.1332 18.7299 24.5801 18.7299C25.027 18.7299 25.027 18.7299 25.4739 18.2821C26.8147 16.9387 30.3901 13.8042 33.5186 10.6697C35.3063 7.98303 35.3063 4.40075 31.284 2.6096Z" fill="#F9FDF9"/>
<path d="M60.7806 2.61031C57.6521 1.26695 54.0767 4.40145 54.0767 4.84923C53.6298 4.40145 50.5013 0.819167 47.3728 2.61031C43.3504 4.40145 43.3504 7.98373 45.5851 10.6704C48.2666 13.8049 51.842 16.9394 53.6297 18.2828C53.6297 18.2828 54.0767 18.7306 54.5236 18.7306C54.9705 18.7306 54.9705 18.7306 55.4175 18.2828C56.7582 16.9394 60.3337 13.8049 63.4621 10.6704C64.356 7.98373 64.8029 4.40145 60.7806 2.61031Z" fill="#F9FDF9"/>
</svg>
