<svg width="34" height="46" viewBox="0 0 34 46" fill="none" xmlns="http://www.w3.org/2000/svg">
<g id="Group">
<path id="Vector" fill-rule="evenodd" clip-rule="evenodd" d="M2.45906 6.745C2.82406 6.1075 3.52906 5.12 4.40906 4.31C5.31656 3.47375 6.21906 3 6.99906 3H15.7491V10.5H10.7491C10.086 10.5 9.45014 10.7634 8.9813 11.2322C8.51245 11.7011 8.24906 12.337 8.24906 13V16.75H6.99906C5.34146 16.75 3.75175 17.4085 2.57965 18.5806C1.40754 19.7527 0.749063 21.3424 0.749063 23V43C0.749063 43.663 1.01246 44.2989 1.4813 44.7678C1.95014 45.2366 2.58602 45.5 3.24906 45.5H30.7491C31.4121 45.5 32.048 45.2366 32.5168 44.7678C32.9857 44.2989 33.2491 43.663 33.2491 43V23C33.2491 21.3424 32.5906 19.7527 31.4185 18.5806C30.2464 17.4085 28.6567 16.75 26.9991 16.75H25.7491V13C25.7491 12.337 25.4857 11.7011 25.0168 11.2322C24.548 10.7634 23.9121 10.5 23.2491 10.5H18.2491V3H28.2491V0.5H6.99906C5.27906 0.5 3.78656 1.48375 2.71406 2.47125C1.61406 3.48375 0.757812 4.68375 0.289062 5.505L2.45906 6.745ZM9.49906 29.25H15.7491V23H18.2491V29.25H24.4991V31.75H18.2491V38H15.7491V31.75H9.49906V29.25Z" fill="#052293"/>
</g>
</svg>
