<svg width="461" height="243" viewBox="0 0 461 243" fill="none" xmlns="http://www.w3.org/2000/svg">
<g clip-path="url(#clip0_1_133173)">
<g clip-path="url(#clip1_1_133173)">
<path d="M139.099 90.664H69.356C68.1135 90.664 67.082 88.9996 67.082 86.9094V67.0525C67.082 65.001 68.0901 63.2979 69.356 63.2979H139.075C140.318 63.2979 141.349 64.9623 141.349 67.0525V86.9094C141.349 88.9996 140.341 90.664 139.099 90.664Z" fill="#66393C"/>
<path d="M139.099 120.237H69.356C68.1135 120.237 67.082 118.572 67.082 116.482V96.6252C67.082 94.5737 68.0901 92.8706 69.356 92.8706H139.075C140.318 92.8706 141.349 94.535 141.349 96.6252V116.482C141.349 118.534 140.341 120.237 139.099 120.237Z" fill="#66393C"/>
<path d="M139.099 149.964H69.356C68.1135 149.964 67.082 148.3 67.082 146.21V126.353C67.082 124.301 68.0901 122.598 69.356 122.598H139.075C140.318 122.598 141.349 124.263 141.349 126.353V146.21C141.349 148.3 140.341 149.964 139.099 149.964Z" fill="#66393C"/>
<path d="M139.099 179.652H69.356C68.1135 179.652 67.082 177.988 67.082 175.898V156.041C67.082 153.989 68.0901 152.286 69.356 152.286H139.075C140.318 152.286 141.349 153.951 141.349 156.041V175.898C141.349 177.949 140.341 179.652 139.099 179.652Z" fill="#66393C"/>
<path d="M84.3831 27.9194H44.6005C43.6393 27.9194 42.8657 26.642 42.8657 25.055V3.41757C42.8657 1.83057 43.6393 0.553223 44.6005 0.553223H84.4065C85.3677 0.553223 86.1413 1.83057 86.1413 3.41757V25.055C86.1179 26.642 85.3443 27.9194 84.3831 27.9194Z" fill="#66393C"/>
<path d="M84.3831 58.4985H44.6005C43.6393 58.4985 42.8657 57.2212 42.8657 55.6341V33.9967C42.8657 32.4097 43.6393 31.1323 44.6005 31.1323H84.4065C85.3677 31.1323 86.1413 32.4097 86.1413 33.9967V55.6341C86.1179 57.2212 85.3443 58.4985 84.3831 58.4985Z" fill="#66393C"/>
<path d="M163.854 27.9194H124.072C123.111 27.9194 122.337 26.642 122.337 25.055V3.41757C122.337 1.83057 123.111 0.553223 124.072 0.553223H163.878C164.839 0.553223 165.613 1.83057 165.613 3.41757V25.055C165.589 26.642 164.815 27.9194 163.854 27.9194Z" fill="#66393C"/>
<path d="M163.854 58.4985H124.072C123.111 58.4985 122.337 57.2212 122.337 55.6341V33.9967C122.337 32.4097 123.111 31.1323 124.072 31.1323H163.878C164.839 31.1323 165.613 32.4097 165.613 33.9967V55.6341C165.589 57.2212 164.815 58.4985 163.854 58.4985Z" fill="#66393C"/>
<path d="M84.3831 211.393H44.6005C43.6393 211.393 42.8657 210.115 42.8657 208.528V186.891C42.8657 185.304 43.6393 184.026 44.6005 184.026H84.4065C85.3677 184.026 86.1413 185.304 86.1413 186.891V208.528C86.1179 210.115 85.3443 211.393 84.3831 211.393Z" fill="#66393C"/>
<path d="M84.3831 241.972H44.6005C43.6393 241.972 42.8657 240.694 42.8657 239.107V217.47C42.8657 215.883 43.6393 214.605 44.6005 214.605H84.4065C85.3677 214.605 86.1413 215.883 86.1413 217.47V239.107C86.1179 240.694 85.3443 241.972 84.3831 241.972Z" fill="#66393C"/>
<path d="M163.854 211.393H124.072C123.111 211.393 122.337 210.115 122.337 208.528V186.891C122.337 185.304 123.111 184.026 124.072 184.026H163.878C164.839 184.026 165.613 185.304 165.613 186.891V208.528C165.589 210.115 164.815 211.393 163.854 211.393Z" fill="#66393C"/>
<path d="M163.854 241.972H124.072C123.111 241.972 122.337 240.694 122.337 239.107V217.47C122.337 215.883 123.111 214.605 124.072 214.605H163.878C164.839 214.605 165.613 215.883 165.613 217.47V239.107C165.589 240.694 164.815 241.972 163.854 241.972Z" fill="#66393C"/>
</g>
<g clip-path="url(#clip2_1_133173)">
<path d="M394.12 90.664H324.377C323.135 90.664 322.104 88.9996 322.104 86.9094V67.0525C322.104 65.001 323.112 63.2979 324.377 63.2979H394.097C395.339 63.2979 396.371 64.9623 396.371 67.0525V86.9094C396.371 88.9996 395.363 90.664 394.12 90.664Z" fill="#66393C"/>
<path d="M394.12 120.237H324.377C323.135 120.237 322.104 118.572 322.104 116.482V96.6252C322.104 94.5737 323.112 92.8706 324.377 92.8706H394.097C395.339 92.8706 396.371 94.535 396.371 96.6252V116.482C396.371 118.534 395.363 120.237 394.12 120.237Z" fill="#66393C"/>
<path d="M394.12 149.964H324.377C323.135 149.964 322.104 148.3 322.104 146.21V126.353C322.104 124.301 323.112 122.598 324.377 122.598H394.097C395.339 122.598 396.371 124.263 396.371 126.353V146.21C396.371 148.3 395.363 149.964 394.12 149.964Z" fill="#66393C"/>
<path d="M394.12 179.652H324.377C323.135 179.652 322.104 177.988 322.104 175.898V156.041C322.104 153.989 323.112 152.286 324.377 152.286H394.097C395.339 152.286 396.371 153.951 396.371 156.041V175.898C396.371 177.949 395.363 179.652 394.12 179.652Z" fill="#66393C"/>
<path d="M339.404 27.9194H299.621C298.66 27.9194 297.887 26.642 297.887 25.055V3.41757C297.887 1.83057 298.66 0.553223 299.621 0.553223H339.428C340.389 0.553223 341.162 1.83057 341.162 3.41757V25.055C341.139 26.642 340.365 27.9194 339.404 27.9194Z" fill="#66393C"/>
<path d="M339.404 58.4985H299.621C298.66 58.4985 297.887 57.2212 297.887 55.6341V33.9967C297.887 32.4097 298.66 31.1323 299.621 31.1323H339.428C340.389 31.1323 341.162 32.4097 341.162 33.9967V55.6341C341.139 57.2212 340.365 58.4985 339.404 58.4985Z" fill="#66393C"/>
<path d="M418.876 27.9194H379.093C378.132 27.9194 377.358 26.642 377.358 25.055V3.41757C377.358 1.83057 378.132 0.553223 379.093 0.553223H418.899C419.86 0.553223 420.634 1.83057 420.634 3.41757V25.055C420.611 26.642 419.837 27.9194 418.876 27.9194Z" fill="#66393C"/>
<path d="M418.876 58.4985H379.093C378.132 58.4985 377.358 57.2212 377.358 55.6341V33.9967C377.358 32.4097 378.132 31.1323 379.093 31.1323H418.899C419.86 31.1323 420.634 32.4097 420.634 33.9967V55.6341C420.611 57.2212 419.837 58.4985 418.876 58.4985Z" fill="#66393C"/>
<path d="M339.404 211.393H299.621C298.66 211.393 297.887 210.115 297.887 208.528V186.891C297.887 185.304 298.66 184.026 299.621 184.026H339.428C340.389 184.026 341.162 185.304 341.162 186.891V208.528C341.139 210.115 340.365 211.393 339.404 211.393Z" fill="#66393C"/>
<path d="M339.404 241.972H299.621C298.66 241.972 297.887 240.694 297.887 239.107V217.47C297.887 215.883 298.66 214.605 299.621 214.605H339.428C340.389 214.605 341.162 215.883 341.162 217.47V239.107C341.139 240.694 340.365 241.972 339.404 241.972Z" fill="#66393C"/>
<path d="M418.876 211.393H379.093C378.132 211.393 377.358 210.115 377.358 208.528V186.891C377.358 185.304 378.132 184.026 379.093 184.026H418.899C419.86 184.026 420.634 185.304 420.634 186.891V208.528C420.611 210.115 419.837 211.393 418.876 211.393Z" fill="#66393C"/>
<path d="M418.876 241.972H379.093C378.132 241.972 377.358 240.694 377.358 239.107V217.47C377.358 215.883 378.132 214.605 379.093 214.605H418.899C419.86 214.605 420.634 215.883 420.634 217.47V239.107C420.611 240.694 419.837 241.972 418.876 241.972Z" fill="#66393C"/>
</g>
<g clip-path="url(#clip3_1_133173)">
<path d="M17.3885 19.0529H9.32844C8.98301 19.0529 8.71436 18.7837 8.71436 18.4375V10.2838C8.71436 9.93769 8.98301 9.66846 9.32844 9.66846H17.3885C17.7339 9.66846 18.0026 9.93769 18.0026 10.2838V18.4375C18.0026 18.7837 17.7339 19.0529 17.3885 19.0529Z" fill="#66393C"/>
<path d="M8.3304 10.2453H0.270362C-0.0750681 10.2453 -0.34375 9.97608 -0.34375 9.62993V1.47621C-0.34375 1.13006 -0.0750681 0.86084 0.270362 0.86084H8.3304C8.67583 0.86084 8.94448 1.13006 8.94448 1.47621V9.62993C8.94448 9.97608 8.67583 10.2453 8.3304 10.2453Z" fill="#66393C"/>
<path d="M26.3695 10.2453H18.3094C17.964 10.2453 17.6953 9.97608 17.6953 9.62993V1.47621C17.6953 1.13006 17.964 0.86084 18.3094 0.86084H26.3695C26.7149 0.86084 26.9836 1.13006 26.9836 1.47621V9.62993C26.9836 9.97608 26.7149 10.2453 26.3695 10.2453Z" fill="#66393C"/>
<path d="M8.3304 27.8986H0.270362C-0.0750681 27.8986 -0.34375 27.6294 -0.34375 27.2832V19.1295C-0.34375 18.7834 -0.0750681 18.5142 0.270362 18.5142H8.3304C8.67583 18.5142 8.94448 18.7834 8.94448 19.1295V27.2832C8.94448 27.6294 8.67583 27.8986 8.3304 27.8986Z" fill="#66393C"/>
<path d="M26.3695 27.8986H18.3094C17.964 27.8986 17.6953 27.6294 17.6953 27.2832V19.1295C17.6953 18.7834 17.964 18.5142 18.3094 18.5142H26.3695C26.7149 18.5142 26.9836 18.7834 26.9836 19.1295V27.2832C26.9836 27.6294 26.7149 27.8986 26.3695 27.8986Z" fill="#66393C"/>
<path d="M17.3885 49.821H9.32844C8.98301 49.821 8.71436 49.5518 8.71436 49.2056V41.0519C8.71436 40.7057 8.98301 40.4365 9.32844 40.4365H17.3885C17.7339 40.4365 18.0026 40.7057 18.0026 41.0519V49.2056C18.0026 49.5518 17.7339 49.821 17.3885 49.821Z" fill="#66393C"/>
<path d="M8.3304 41.0139H0.270362C-0.0750681 41.0139 -0.34375 40.7446 -0.34375 40.3985V32.2448C-0.34375 31.8986 -0.0750681 31.6294 0.270362 31.6294H8.3304C8.67583 31.6294 8.94448 31.8986 8.94448 32.2448V40.3985C8.94448 40.7446 8.67583 41.0139 8.3304 41.0139Z" fill="#66393C"/>
<path d="M26.3695 41.0139H18.3094C17.964 41.0139 17.6953 40.7446 17.6953 40.3985V32.2448C17.6953 31.8986 17.964 31.6294 18.3094 31.6294H26.3695C26.7149 31.6294 26.9836 31.8986 26.9836 32.2448V40.3985C26.9836 40.7446 26.7149 41.0139 26.3695 41.0139Z" fill="#66393C"/>
<path d="M8.3304 58.6672H0.270362C-0.0750681 58.6672 -0.34375 58.398 -0.34375 58.0518V49.8981C-0.34375 49.5519 -0.0750681 49.2827 0.270362 49.2827H8.3304C8.67583 49.2827 8.94448 49.5519 8.94448 49.8981V58.0518C8.94448 58.398 8.67583 58.6672 8.3304 58.6672Z" fill="#66393C"/>
<path d="M26.3695 58.6672H18.3094C17.964 58.6672 17.6953 58.398 17.6953 58.0518V49.8981C17.6953 49.5519 17.964 49.2827 18.3094 49.2827H26.3695C26.7149 49.2827 26.9836 49.5519 26.9836 49.8981V58.0518C26.9836 58.398 26.7149 58.6672 26.3695 58.6672Z" fill="#66393C"/>
<path d="M17.3885 202.473H9.32844C8.98301 202.473 8.71436 202.204 8.71436 201.858V193.704C8.71436 193.358 8.98301 193.088 9.32844 193.088H17.3885C17.7339 193.088 18.0026 193.358 18.0026 193.704V201.858C18.0026 202.204 17.7339 202.473 17.3885 202.473Z" fill="#66393C"/>
<path d="M8.3304 193.665H0.270362C-0.0750681 193.665 -0.34375 193.396 -0.34375 193.05V184.896C-0.34375 184.55 -0.0750681 184.281 0.270362 184.281H8.3304C8.67583 184.281 8.94448 184.55 8.94448 184.896V193.05C8.94448 193.396 8.67583 193.665 8.3304 193.665Z" fill="#66393C"/>
<path d="M26.3695 193.665H18.3094C17.964 193.665 17.6953 193.396 17.6953 193.05V184.896C17.6953 184.55 17.964 184.281 18.3094 184.281H26.3695C26.7149 184.281 26.9836 184.55 26.9836 184.896V193.05C26.9836 193.396 26.7149 193.665 26.3695 193.665Z" fill="#66393C"/>
<path d="M8.3304 211.358H0.270362C-0.0750681 211.358 -0.34375 211.088 -0.34375 210.742V202.589C-0.34375 202.242 -0.0750681 201.973 0.270362 201.973H8.3304C8.67583 201.973 8.94448 202.242 8.94448 202.589V210.742C8.94448 211.088 8.67583 211.358 8.3304 211.358Z" fill="#66393C"/>
<path d="M26.3695 211.358H18.3094C17.964 211.358 17.6953 211.088 17.6953 210.742V202.589C17.6953 202.242 17.964 201.973 18.3094 201.973H26.3695C26.7149 201.973 26.9836 202.242 26.9836 202.589V210.742C26.9836 211.088 26.7149 211.358 26.3695 211.358Z" fill="#66393C"/>
<path d="M17.3885 233.241H9.32844C8.98301 233.241 8.71436 232.972 8.71436 232.626V224.472C8.71436 224.126 8.98301 223.857 9.32844 223.857H17.3885C17.7339 223.857 18.0026 224.126 18.0026 224.472V232.626C18.0026 232.972 17.7339 233.241 17.3885 233.241Z" fill="#66393C"/>
<path d="M8.3304 224.434H0.270362C-0.0750681 224.434 -0.34375 224.165 -0.34375 223.819V215.665C-0.34375 215.319 -0.0750681 215.05 0.270362 215.05H8.3304C8.67583 215.05 8.94448 215.319 8.94448 215.665V223.819C8.94448 224.165 8.67583 224.434 8.3304 224.434Z" fill="#66393C"/>
<path d="M26.3695 224.434H18.3094C17.964 224.434 17.6953 224.165 17.6953 223.819V215.665C17.6953 215.319 17.964 215.05 18.3094 215.05H26.3695C26.7149 215.05 26.9836 215.319 26.9836 215.665V223.819C26.9836 224.165 26.7149 224.434 26.3695 224.434Z" fill="#66393C"/>
<path d="M8.3304 242.126H0.270362C-0.0750681 242.126 -0.34375 241.856 -0.34375 241.51V233.357C-0.34375 233.01 -0.0750681 232.741 0.270362 232.741H8.3304C8.67583 232.741 8.94448 233.01 8.94448 233.357V241.51C8.94448 241.856 8.67583 242.126 8.3304 242.126Z" fill="#66393C"/>
<path d="M26.3695 242.126H18.3094C17.964 242.126 17.6953 241.856 17.6953 241.51V233.357C17.6953 233.01 17.964 232.741 18.3094 232.741H26.3695C26.7149 232.741 26.9836 233.01 26.9836 233.357V241.51C26.9836 241.856 26.7149 242.126 26.3695 242.126Z" fill="#66393C"/>
<path d="M41.3381 90.0899H17.964C17.0044 90.0899 16.2368 89.3207 16.2368 88.3592V64.6673C16.2368 63.7057 17.0044 62.9365 17.964 62.9365H41.3381C42.2976 62.9365 43.0652 63.7057 43.0652 64.6673V88.3592C43.0652 89.3207 42.2976 90.0899 41.3381 90.0899Z" fill="#66393C"/>
<path d="M41.3381 119.667H17.964C17.0044 119.667 16.2368 118.897 16.2368 117.936V94.2439C16.2368 93.2824 17.0044 92.5132 17.964 92.5132H41.3381C42.2976 92.5132 43.0652 93.2824 43.0652 94.2439V117.936C43.0652 118.859 42.2976 119.667 41.3381 119.667Z" fill="#66393C"/>
<path d="M41.3381 149.012H17.964C17.0044 149.012 16.2368 148.243 16.2368 147.281V123.589C16.2368 122.628 17.0044 121.858 17.964 121.858H41.3381C42.2976 121.858 43.0652 122.628 43.0652 123.589V147.281C43.0652 148.243 42.2976 149.012 41.3381 149.012Z" fill="#66393C"/>
<path d="M41.3381 178.512H17.964C17.0044 178.512 16.2368 177.743 16.2368 176.781V153.089C16.2368 152.128 17.0044 151.358 17.964 151.358H41.3381C42.2976 151.358 43.0652 152.128 43.0652 153.089V176.781C43.0652 177.704 42.2976 178.512 41.3381 178.512Z" fill="#66393C"/>
</g>
<g clip-path="url(#clip4_1_133173)">
<path d="M244.161 27.7447H220.787C219.828 27.7447 219.06 26.9755 219.06 26.014V2.32205C219.06 1.36053 219.828 0.591309 220.787 0.591309H244.161C245.121 0.591309 245.888 1.36053 245.888 2.32205V26.014C245.888 26.937 245.121 27.7447 244.161 27.7447Z" fill="#66393C"/>
<path d="M244.161 58.129H220.787C219.828 58.129 219.06 57.3598 219.06 56.3983V32.7063C219.06 31.7448 219.828 30.9756 220.787 30.9756H244.161C245.121 30.9756 245.888 31.7448 245.888 32.7063V56.3983C245.888 57.3213 245.121 58.129 244.161 58.129Z" fill="#66393C"/>
<path d="M244.161 210.704H220.787C219.828 210.704 219.06 209.935 219.06 208.973V185.281C219.06 184.32 219.828 183.55 220.787 183.55H244.161C245.121 183.55 245.888 184.32 245.888 185.281V208.973C245.888 209.935 245.121 210.704 244.161 210.704Z" fill="#66393C"/>
<path d="M244.161 241.088H220.787C219.828 241.088 219.06 240.318 219.06 239.357V215.665C219.06 214.703 219.828 213.934 220.787 213.934H244.161C245.121 213.934 245.888 214.703 245.888 215.665V239.357C245.888 240.318 245.121 241.088 244.161 241.088Z" fill="#66393C"/>
<path d="M200.637 19.0529H192.577C192.232 19.0529 191.963 18.7837 191.963 18.4375V10.2838C191.963 9.93769 192.232 9.66846 192.577 9.66846H200.637C200.982 9.66846 201.251 9.93769 201.251 10.2838V18.4375C201.251 18.7837 200.982 19.0529 200.637 19.0529Z" fill="#66393C"/>
<path d="M191.579 10.2453H183.519C183.173 10.2453 182.905 9.97608 182.905 9.62993V1.47621C182.905 1.13006 183.173 0.86084 183.519 0.86084H191.579C191.924 0.86084 192.193 1.13006 192.193 1.47621V9.62993C192.193 9.97608 191.924 10.2453 191.579 10.2453Z" fill="#66393C"/>
<path d="M209.618 10.2453H201.558C201.213 10.2453 200.944 9.97608 200.944 9.62993V1.47621C200.944 1.13006 201.213 0.86084 201.558 0.86084H209.618C209.963 0.86084 210.232 1.13006 210.232 1.47621V9.62993C210.232 9.97608 209.963 10.2453 209.618 10.2453Z" fill="#66393C"/>
<path d="M191.579 27.8986H183.519C183.173 27.8986 182.905 27.6294 182.905 27.2832V19.1295C182.905 18.7834 183.173 18.5142 183.519 18.5142H191.579C191.924 18.5142 192.193 18.7834 192.193 19.1295V27.2832C192.193 27.6294 191.924 27.8986 191.579 27.8986Z" fill="#66393C"/>
<path d="M209.618 27.8986H201.558C201.213 27.8986 200.944 27.6294 200.944 27.2832V19.1295C200.944 18.7834 201.213 18.5142 201.558 18.5142H209.618C209.963 18.5142 210.232 18.7834 210.232 19.1295V27.2832C210.232 27.6294 209.963 27.8986 209.618 27.8986Z" fill="#66393C"/>
<path d="M200.637 49.821H192.577C192.232 49.821 191.963 49.5518 191.963 49.2056V41.0519C191.963 40.7057 192.232 40.4365 192.577 40.4365H200.637C200.982 40.4365 201.251 40.7057 201.251 41.0519V49.2056C201.251 49.5518 200.982 49.821 200.637 49.821Z" fill="#66393C"/>
<path d="M191.579 41.0139H183.519C183.173 41.0139 182.905 40.7446 182.905 40.3985V32.2448C182.905 31.8986 183.173 31.6294 183.519 31.6294H191.579C191.924 31.6294 192.193 31.8986 192.193 32.2448V40.3985C192.193 40.7446 191.924 41.0139 191.579 41.0139Z" fill="#66393C"/>
<path d="M209.618 41.0139H201.558C201.213 41.0139 200.944 40.7446 200.944 40.3985V32.2448C200.944 31.8986 201.213 31.6294 201.558 31.6294H209.618C209.963 31.6294 210.232 31.8986 210.232 32.2448V40.3985C210.232 40.7446 209.963 41.0139 209.618 41.0139Z" fill="#66393C"/>
<path d="M191.579 58.6672H183.519C183.173 58.6672 182.905 58.398 182.905 58.0518V49.8981C182.905 49.5519 183.173 49.2827 183.519 49.2827H191.579C191.924 49.2827 192.193 49.5519 192.193 49.8981V58.0518C192.193 58.398 191.924 58.6672 191.579 58.6672Z" fill="#66393C"/>
<path d="M209.618 58.6672H201.558C201.213 58.6672 200.944 58.398 200.944 58.0518V49.8981C200.944 49.5519 201.213 49.2827 201.558 49.2827H209.618C209.963 49.2827 210.232 49.5519 210.232 49.8981V58.0518C210.232 58.398 209.963 58.6672 209.618 58.6672Z" fill="#66393C"/>
<path d="M272.409 19.0529H264.349C264.004 19.0529 263.735 18.7837 263.735 18.4375V10.2838C263.735 9.93769 264.004 9.66846 264.349 9.66846H272.409C272.755 9.66846 273.024 9.93769 273.024 10.2838V18.4375C273.024 18.7837 272.755 19.0529 272.409 19.0529Z" fill="#66393C"/>
<path d="M263.352 10.2453H255.292C254.946 10.2453 254.678 9.97608 254.678 9.62993V1.47621C254.678 1.13006 254.946 0.86084 255.292 0.86084H263.352C263.697 0.86084 263.966 1.13006 263.966 1.47621V9.62993C263.966 9.97608 263.697 10.2453 263.352 10.2453Z" fill="#66393C"/>
<path d="M281.391 10.2453H273.331C272.985 10.2453 272.717 9.97608 272.717 9.62993V1.47621C272.717 1.13006 272.985 0.86084 273.331 0.86084H281.391C281.736 0.86084 282.005 1.13006 282.005 1.47621V9.62993C282.005 9.97608 281.736 10.2453 281.391 10.2453Z" fill="#66393C"/>
<path d="M263.352 27.8986H255.292C254.946 27.8986 254.678 27.6294 254.678 27.2832V19.1295C254.678 18.7834 254.946 18.5142 255.292 18.5142H263.352C263.697 18.5142 263.966 18.7834 263.966 19.1295V27.2832C263.966 27.6294 263.697 27.8986 263.352 27.8986Z" fill="#66393C"/>
<path d="M281.391 27.8986H273.331C272.985 27.8986 272.717 27.6294 272.717 27.2832V19.1295C272.717 18.7834 272.985 18.5142 273.331 18.5142H281.391C281.736 18.5142 282.005 18.7834 282.005 19.1295V27.2832C282.005 27.6294 281.736 27.8986 281.391 27.8986Z" fill="#66393C"/>
<path d="M272.409 49.821H264.349C264.004 49.821 263.735 49.5518 263.735 49.2056V41.0519C263.735 40.7057 264.004 40.4365 264.349 40.4365H272.409C272.755 40.4365 273.024 40.7057 273.024 41.0519V49.2056C273.024 49.5518 272.755 49.821 272.409 49.821Z" fill="#66393C"/>
<path d="M263.352 41.0139H255.292C254.946 41.0139 254.678 40.7446 254.678 40.3985V32.2448C254.678 31.8986 254.946 31.6294 255.292 31.6294H263.352C263.697 31.6294 263.966 31.8986 263.966 32.2448V40.3985C263.966 40.7446 263.697 41.0139 263.352 41.0139Z" fill="#66393C"/>
<path d="M281.391 41.0139H273.331C272.985 41.0139 272.717 40.7446 272.717 40.3985V32.2448C272.717 31.8986 272.985 31.6294 273.331 31.6294H281.391C281.736 31.6294 282.005 31.8986 282.005 32.2448V40.3985C282.005 40.7446 281.736 41.0139 281.391 41.0139Z" fill="#66393C"/>
<path d="M263.352 58.6672H255.292C254.946 58.6672 254.678 58.398 254.678 58.0518V49.8981C254.678 49.5519 254.946 49.2827 255.292 49.2827H263.352C263.697 49.2827 263.966 49.5519 263.966 49.8981V58.0518C263.966 58.398 263.697 58.6672 263.352 58.6672Z" fill="#66393C"/>
<path d="M281.391 58.6672H273.331C272.985 58.6672 272.717 58.398 272.717 58.0518V49.8981C272.717 49.5519 272.985 49.2827 273.331 49.2827H281.391C281.736 49.2827 282.005 49.5519 282.005 49.8981V58.0518C282.005 58.398 281.736 58.6672 281.391 58.6672Z" fill="#66393C"/>
<path d="M200.637 202.473H192.577C192.232 202.473 191.963 202.204 191.963 201.858V193.704C191.963 193.358 192.232 193.088 192.577 193.088H200.637C200.982 193.088 201.251 193.358 201.251 193.704V201.858C201.251 202.204 200.982 202.473 200.637 202.473Z" fill="#66393C"/>
<path d="M191.579 193.665H183.519C183.173 193.665 182.905 193.396 182.905 193.05V184.896C182.905 184.55 183.173 184.281 183.519 184.281H191.579C191.924 184.281 192.193 184.55 192.193 184.896V193.05C192.193 193.396 191.924 193.665 191.579 193.665Z" fill="#66393C"/>
<path d="M209.618 193.665H201.558C201.213 193.665 200.944 193.396 200.944 193.05V184.896C200.944 184.55 201.213 184.281 201.558 184.281H209.618C209.963 184.281 210.232 184.55 210.232 184.896V193.05C210.232 193.396 209.963 193.665 209.618 193.665Z" fill="#66393C"/>
<path d="M191.579 211.358H183.519C183.173 211.358 182.905 211.088 182.905 210.742V202.589C182.905 202.242 183.173 201.973 183.519 201.973H191.579C191.924 201.973 192.193 202.242 192.193 202.589V210.742C192.193 211.088 191.924 211.358 191.579 211.358Z" fill="#66393C"/>
<path d="M209.618 211.358H201.558C201.213 211.358 200.944 211.088 200.944 210.742V202.589C200.944 202.242 201.213 201.973 201.558 201.973H209.618C209.963 201.973 210.232 202.242 210.232 202.589V210.742C210.232 211.088 209.963 211.358 209.618 211.358Z" fill="#66393C"/>
<path d="M200.637 233.241H192.577C192.232 233.241 191.963 232.972 191.963 232.626V224.472C191.963 224.126 192.232 223.857 192.577 223.857H200.637C200.982 223.857 201.251 224.126 201.251 224.472V232.626C201.251 232.972 200.982 233.241 200.637 233.241Z" fill="#66393C"/>
<path d="M191.579 224.434H183.519C183.173 224.434 182.905 224.165 182.905 223.819V215.665C182.905 215.319 183.173 215.05 183.519 215.05H191.579C191.924 215.05 192.193 215.319 192.193 215.665V223.819C192.193 224.165 191.924 224.434 191.579 224.434Z" fill="#66393C"/>
<path d="M209.618 224.434H201.558C201.213 224.434 200.944 224.165 200.944 223.819V215.665C200.944 215.319 201.213 215.05 201.558 215.05H209.618C209.963 215.05 210.232 215.319 210.232 215.665V223.819C210.232 224.165 209.963 224.434 209.618 224.434Z" fill="#66393C"/>
<path d="M191.579 242.126H183.519C183.173 242.126 182.905 241.856 182.905 241.51V233.357C182.905 233.01 183.173 232.741 183.519 232.741H191.579C191.924 232.741 192.193 233.01 192.193 233.357V241.51C192.193 241.856 191.924 242.126 191.579 242.126Z" fill="#66393C"/>
<path d="M209.618 242.126H201.558C201.213 242.126 200.944 241.856 200.944 241.51V233.357C200.944 233.01 201.213 232.741 201.558 232.741H209.618C209.963 232.741 210.232 233.01 210.232 233.357V241.51C210.232 241.856 209.963 242.126 209.618 242.126Z" fill="#66393C"/>
<path d="M272.409 202.473H264.349C264.004 202.473 263.735 202.204 263.735 201.858V193.704C263.735 193.358 264.004 193.088 264.349 193.088H272.409C272.755 193.088 273.024 193.358 273.024 193.704V201.858C273.024 202.204 272.755 202.473 272.409 202.473Z" fill="#66393C"/>
<path d="M263.352 193.665H255.292C254.946 193.665 254.678 193.396 254.678 193.05V184.896C254.678 184.55 254.946 184.281 255.292 184.281H263.352C263.697 184.281 263.966 184.55 263.966 184.896V193.05C263.966 193.396 263.697 193.665 263.352 193.665Z" fill="#66393C"/>
<path d="M281.391 193.665H273.331C272.985 193.665 272.717 193.396 272.717 193.05V184.896C272.717 184.55 272.985 184.281 273.331 184.281H281.391C281.736 184.281 282.005 184.55 282.005 184.896V193.05C282.005 193.396 281.736 193.665 281.391 193.665Z" fill="#66393C"/>
<path d="M263.352 211.358H255.292C254.946 211.358 254.678 211.088 254.678 210.742V202.589C254.678 202.242 254.946 201.973 255.292 201.973H263.352C263.697 201.973 263.966 202.242 263.966 202.589V210.742C263.966 211.088 263.697 211.358 263.352 211.358Z" fill="#66393C"/>
<path d="M281.391 211.358H273.331C272.985 211.358 272.717 211.088 272.717 210.742V202.589C272.717 202.242 272.985 201.973 273.331 201.973H281.391C281.736 201.973 282.005 202.242 282.005 202.589V210.742C282.005 211.088 281.736 211.358 281.391 211.358Z" fill="#66393C"/>
<path d="M272.409 233.241H264.349C264.004 233.241 263.735 232.972 263.735 232.626V224.472C263.735 224.126 264.004 223.857 264.349 223.857H272.409C272.755 223.857 273.024 224.126 273.024 224.472V232.626C273.024 232.972 272.755 233.241 272.409 233.241Z" fill="#66393C"/>
<path d="M263.352 224.434H255.292C254.946 224.434 254.678 224.165 254.678 223.819V215.665C254.678 215.319 254.946 215.05 255.292 215.05H263.352C263.697 215.05 263.966 215.319 263.966 215.665V223.819C263.966 224.165 263.697 224.434 263.352 224.434Z" fill="#66393C"/>
<path d="M281.391 224.434H273.331C272.985 224.434 272.717 224.165 272.717 223.819V215.665C272.717 215.319 272.985 215.05 273.331 215.05H281.391C281.736 215.05 282.005 215.319 282.005 215.665V223.819C282.005 224.165 281.736 224.434 281.391 224.434Z" fill="#66393C"/>
<path d="M263.352 242.126H255.292C254.946 242.126 254.678 241.856 254.678 241.51V233.357C254.678 233.01 254.946 232.741 255.292 232.741H263.352C263.697 232.741 263.966 233.01 263.966 233.357V241.51C263.966 241.856 263.697 242.126 263.352 242.126Z" fill="#66393C"/>
<path d="M281.391 242.126H273.331C272.985 242.126 272.717 241.856 272.717 241.51V233.357C272.717 233.01 272.985 232.741 273.331 232.741H281.391C281.736 232.741 282.005 233.01 282.005 233.357V241.51C282.005 241.856 281.736 242.126 281.391 242.126Z" fill="#66393C"/>
<path d="M236.409 82.1286H228.348C228.003 82.1286 227.734 81.8594 227.734 81.5132V73.3595C227.734 73.0134 228.003 72.7441 228.348 72.7441H236.409C236.754 72.7441 237.023 73.0134 237.023 73.3595V81.5132C237.023 81.8594 236.754 82.1286 236.409 82.1286Z" fill="#66393C"/>
<path d="M227.35 73.321H219.29C218.945 73.321 218.676 73.0518 218.676 72.7056V64.5519C218.676 64.2058 218.945 63.9365 219.29 63.9365H227.35C227.696 63.9365 227.965 64.2058 227.965 64.5519V72.7056C227.965 73.0518 227.696 73.321 227.35 73.321Z" fill="#66393C"/>
<path d="M245.389 73.321H237.329C236.984 73.321 236.715 73.0518 236.715 72.7056V64.5519C236.715 64.2058 236.984 63.9365 237.329 63.9365H245.389C245.735 63.9365 246.004 64.2058 246.004 64.5519V72.7056C246.004 73.0518 245.735 73.321 245.389 73.321Z" fill="#66393C"/>
<path d="M227.35 90.9743H219.29C218.945 90.9743 218.676 90.7051 218.676 90.359V82.2052C218.676 81.8591 218.945 81.5898 219.29 81.5898H227.35C227.696 81.5898 227.965 81.8591 227.965 82.2052V90.359C227.965 90.7051 227.696 90.9743 227.35 90.9743Z" fill="#66393C"/>
<path d="M245.389 90.9743H237.329C236.984 90.9743 236.715 90.7051 236.715 90.359V82.2052C236.715 81.8591 236.984 81.5898 237.329 81.5898H245.389C245.735 81.5898 246.004 81.8591 246.004 82.2052V90.359C246.004 90.7051 245.735 90.9743 245.389 90.9743Z" fill="#66393C"/>
<path d="M236.409 112.897H228.348C228.003 112.897 227.734 112.628 227.734 112.282V104.128C227.734 103.782 228.003 103.513 228.348 103.513H236.409C236.754 103.513 237.023 103.782 237.023 104.128V112.282C237.023 112.628 236.754 112.897 236.409 112.897Z" fill="#66393C"/>
<path d="M227.35 104.09H219.29C218.945 104.09 218.676 103.82 218.676 103.474V95.3205C218.676 94.9743 218.945 94.7051 219.29 94.7051H227.35C227.696 94.7051 227.965 94.9743 227.965 95.3205V103.474C227.965 103.82 227.696 104.09 227.35 104.09Z" fill="#66393C"/>
<path d="M245.389 104.09H237.329C236.984 104.09 236.715 103.82 236.715 103.474V95.3205C236.715 94.9743 236.984 94.7051 237.329 94.7051H245.389C245.735 94.7051 246.004 94.9743 246.004 95.3205V103.474C246.004 103.82 245.735 104.09 245.389 104.09Z" fill="#66393C"/>
<path d="M227.35 121.743H219.29C218.945 121.743 218.676 121.474 218.676 121.127V112.974C218.676 112.628 218.945 112.358 219.29 112.358H227.35C227.696 112.358 227.965 112.628 227.965 112.974V121.127C227.965 121.474 227.696 121.743 227.35 121.743Z" fill="#66393C"/>
<path d="M245.389 121.743H237.329C236.984 121.743 236.715 121.474 236.715 121.127V112.974C236.715 112.628 236.984 112.358 237.329 112.358H245.389C245.735 112.358 246.004 112.628 246.004 112.974V121.127C246.004 121.474 245.735 121.743 245.389 121.743Z" fill="#66393C"/>
<path d="M236.409 141.512H228.348C228.003 141.512 227.734 141.243 227.734 140.897V132.743C227.734 132.397 228.003 132.127 228.348 132.127H236.409C236.754 132.127 237.023 132.397 237.023 132.743V140.897C237.023 141.243 236.754 141.512 236.409 141.512Z" fill="#66393C"/>
<path d="M227.35 132.704H219.29C218.945 132.704 218.676 132.435 218.676 132.089V123.935C218.676 123.589 218.945 123.32 219.29 123.32H227.35C227.696 123.32 227.965 123.589 227.965 123.935V132.089C227.965 132.435 227.696 132.704 227.35 132.704Z" fill="#66393C"/>
<path d="M245.389 132.704H237.329C236.984 132.704 236.715 132.435 236.715 132.089V123.935C236.715 123.589 236.984 123.32 237.329 123.32H245.389C245.735 123.32 246.004 123.589 246.004 123.935V132.089C246.004 132.435 245.735 132.704 245.389 132.704Z" fill="#66393C"/>
<path d="M227.35 150.397H219.29C218.945 150.397 218.676 150.127 218.676 149.781V141.628C218.676 141.281 218.945 141.012 219.29 141.012H227.35C227.696 141.012 227.965 141.281 227.965 141.628V149.781C227.965 150.127 227.696 150.397 227.35 150.397Z" fill="#66393C"/>
<path d="M245.389 150.397H237.329C236.984 150.397 236.715 150.127 236.715 149.781V141.628C236.715 141.281 236.984 141.012 237.329 141.012H245.389C245.735 141.012 246.004 141.281 246.004 141.628V149.781C246.004 150.127 245.735 150.397 245.389 150.397Z" fill="#66393C"/>
<path d="M236.409 170.127H228.348C228.003 170.127 227.734 169.857 227.734 169.511V161.358C227.734 161.011 228.003 160.742 228.348 160.742H236.409C236.754 160.742 237.023 161.011 237.023 161.358V169.511C237.023 169.857 236.754 170.127 236.409 170.127Z" fill="#66393C"/>
<path d="M227.35 161.32H219.29C218.945 161.32 218.676 161.05 218.676 160.704V152.55C218.676 152.204 218.945 151.935 219.29 151.935H227.35C227.696 151.935 227.965 152.204 227.965 152.55V160.704C227.965 161.05 227.696 161.32 227.35 161.32Z" fill="#66393C"/>
<path d="M245.389 161.32H237.329C236.984 161.32 236.715 161.05 236.715 160.704V152.55C236.715 152.204 236.984 151.935 237.329 151.935H245.389C245.735 151.935 246.004 152.204 246.004 152.55V160.704C246.004 161.05 245.735 161.32 245.389 161.32Z" fill="#66393C"/>
<path d="M227.35 179.011H219.29C218.945 179.011 218.676 178.742 218.676 178.396V170.242C218.676 169.896 218.945 169.627 219.29 169.627H227.35C227.696 169.627 227.965 169.896 227.965 170.242V178.396C227.965 178.742 227.696 179.011 227.35 179.011Z" fill="#66393C"/>
<path d="M245.389 179.011H237.329C236.984 179.011 236.715 178.742 236.715 178.396V170.242C236.715 169.896 236.984 169.627 237.329 169.627H245.389C245.735 169.627 246.004 169.896 246.004 170.242V178.396C246.004 178.742 245.735 179.011 245.389 179.011Z" fill="#66393C"/>
<path d="M190.428 90.0899H167.054C166.094 90.0899 165.327 89.3207 165.327 88.3592V64.6673C165.327 63.7057 166.094 62.9365 167.054 62.9365H190.428C191.387 62.9365 192.155 63.7057 192.155 64.6673V88.3592C192.155 89.3207 191.387 90.0899 190.428 90.0899Z" fill="#66393C"/>
<path d="M190.428 119.667H167.054C166.094 119.667 165.327 118.897 165.327 117.936V94.2439C165.327 93.2824 166.094 92.5132 167.054 92.5132H190.428C191.387 92.5132 192.155 93.2824 192.155 94.2439V117.936C192.155 118.859 191.387 119.667 190.428 119.667Z" fill="#66393C"/>
<path d="M190.428 149.012H167.054C166.094 149.012 165.327 148.243 165.327 147.281V123.589C165.327 122.628 166.094 121.858 167.054 121.858H190.428C191.387 121.858 192.155 122.628 192.155 123.589V147.281C192.155 148.243 191.387 149.012 190.428 149.012Z" fill="#66393C"/>
<path d="M190.428 178.512H167.054C166.094 178.512 165.327 177.743 165.327 176.781V153.089C165.327 152.128 166.094 151.358 167.054 151.358H190.428C191.387 151.358 192.155 152.128 192.155 153.089V176.781C192.155 177.704 191.387 178.512 190.428 178.512Z" fill="#66393C"/>
<path d="M296.36 90.0899H272.985C272.026 90.0899 271.258 89.3207 271.258 88.3592V64.6673C271.258 63.7057 272.026 62.9365 272.985 62.9365H296.36C297.319 62.9365 298.087 63.7057 298.087 64.6673V88.3592C298.087 89.3207 297.319 90.0899 296.36 90.0899Z" fill="#66393C"/>
<path d="M296.36 119.667H272.985C272.026 119.667 271.258 118.897 271.258 117.936V94.2439C271.258 93.2824 272.026 92.5132 272.985 92.5132H296.36C297.319 92.5132 298.087 93.2824 298.087 94.2439V117.936C298.087 118.859 297.319 119.667 296.36 119.667Z" fill="#66393C"/>
<path d="M296.36 149.012H272.985C272.026 149.012 271.258 148.243 271.258 147.281V123.589C271.258 122.628 272.026 121.858 272.985 121.858H296.36C297.319 121.858 298.087 122.628 298.087 123.589V147.281C298.087 148.243 297.319 149.012 296.36 149.012Z" fill="#66393C"/>
<path d="M296.36 178.512H272.985C272.026 178.512 271.258 177.743 271.258 176.781V153.089C271.258 152.128 272.026 151.358 272.985 151.358H296.36C297.319 151.358 298.087 152.128 298.087 153.089V176.781C298.087 177.704 297.319 178.512 296.36 178.512Z" fill="#66393C"/>
</g>
<g clip-path="url(#clip5_1_133173)">
<path d="M455.658 19.0529H447.598C447.253 19.0529 446.984 18.7837 446.984 18.4375V10.2838C446.984 9.93769 447.253 9.66846 447.598 9.66846H455.658C456.003 9.66846 456.272 9.93769 456.272 10.2838V18.4375C456.272 18.7837 456.003 19.0529 455.658 19.0529Z" fill="#66393C"/>
<path d="M446.6 10.2453H438.54C438.195 10.2453 437.926 9.97608 437.926 9.62993V1.47621C437.926 1.13006 438.195 0.86084 438.54 0.86084H446.6C446.946 0.86084 447.215 1.13006 447.215 1.47621V9.62993C447.215 9.97608 446.946 10.2453 446.6 10.2453Z" fill="#66393C"/>
<path d="M464.639 10.2453H456.579C456.234 10.2453 455.965 9.97608 455.965 9.62993V1.47621C455.965 1.13006 456.234 0.86084 456.579 0.86084H464.639C464.985 0.86084 465.254 1.13006 465.254 1.47621V9.62993C465.254 9.97608 464.985 10.2453 464.639 10.2453Z" fill="#66393C"/>
<path d="M446.6 27.8986H438.54C438.195 27.8986 437.926 27.6294 437.926 27.2832V19.1295C437.926 18.7834 438.195 18.5142 438.54 18.5142H446.6C446.946 18.5142 447.215 18.7834 447.215 19.1295V27.2832C447.215 27.6294 446.946 27.8986 446.6 27.8986Z" fill="#66393C"/>
<path d="M464.639 27.8986H456.579C456.234 27.8986 455.965 27.6294 455.965 27.2832V19.1295C455.965 18.7834 456.234 18.5142 456.579 18.5142H464.639C464.985 18.5142 465.254 18.7834 465.254 19.1295V27.2832C465.254 27.6294 464.985 27.8986 464.639 27.8986Z" fill="#66393C"/>
<path d="M455.658 49.821H447.598C447.253 49.821 446.984 49.5518 446.984 49.2056V41.0519C446.984 40.7057 447.253 40.4365 447.598 40.4365H455.658C456.003 40.4365 456.272 40.7057 456.272 41.0519V49.2056C456.272 49.5518 456.003 49.821 455.658 49.821Z" fill="#66393C"/>
<path d="M446.6 41.0139H438.54C438.195 41.0139 437.926 40.7446 437.926 40.3985V32.2448C437.926 31.8986 438.195 31.6294 438.54 31.6294H446.6C446.946 31.6294 447.215 31.8986 447.215 32.2448V40.3985C447.215 40.7446 446.946 41.0139 446.6 41.0139Z" fill="#66393C"/>
<path d="M464.639 41.0139H456.579C456.234 41.0139 455.965 40.7446 455.965 40.3985V32.2448C455.965 31.8986 456.234 31.6294 456.579 31.6294H464.639C464.985 31.6294 465.254 31.8986 465.254 32.2448V40.3985C465.254 40.7446 464.985 41.0139 464.639 41.0139Z" fill="#66393C"/>
<path d="M446.6 58.6672H438.54C438.195 58.6672 437.926 58.398 437.926 58.0518V49.8981C437.926 49.5519 438.195 49.2827 438.54 49.2827H446.6C446.946 49.2827 447.215 49.5519 447.215 49.8981V58.0518C447.215 58.398 446.946 58.6672 446.6 58.6672Z" fill="#66393C"/>
<path d="M464.639 58.6672H456.579C456.234 58.6672 455.965 58.398 455.965 58.0518V49.8981C455.965 49.5519 456.234 49.2827 456.579 49.2827H464.639C464.985 49.2827 465.254 49.5519 465.254 49.8981V58.0518C465.254 58.398 464.985 58.6672 464.639 58.6672Z" fill="#66393C"/>
<path d="M455.658 202.473H447.598C447.253 202.473 446.984 202.204 446.984 201.858V193.704C446.984 193.358 447.253 193.088 447.598 193.088H455.658C456.003 193.088 456.272 193.358 456.272 193.704V201.858C456.272 202.204 456.003 202.473 455.658 202.473Z" fill="#66393C"/>
<path d="M446.6 193.665H438.54C438.195 193.665 437.926 193.396 437.926 193.05V184.896C437.926 184.55 438.195 184.281 438.54 184.281H446.6C446.946 184.281 447.215 184.55 447.215 184.896V193.05C447.215 193.396 446.946 193.665 446.6 193.665Z" fill="#66393C"/>
<path d="M464.639 193.665H456.579C456.234 193.665 455.965 193.396 455.965 193.05V184.896C455.965 184.55 456.234 184.281 456.579 184.281H464.639C464.985 184.281 465.254 184.55 465.254 184.896V193.05C465.254 193.396 464.985 193.665 464.639 193.665Z" fill="#66393C"/>
<path d="M446.6 211.358H438.54C438.195 211.358 437.926 211.088 437.926 210.742V202.589C437.926 202.242 438.195 201.973 438.54 201.973H446.6C446.946 201.973 447.215 202.242 447.215 202.589V210.742C447.215 211.088 446.946 211.358 446.6 211.358Z" fill="#66393C"/>
<path d="M464.639 211.358H456.579C456.234 211.358 455.965 211.088 455.965 210.742V202.589C455.965 202.242 456.234 201.973 456.579 201.973H464.639C464.985 201.973 465.254 202.242 465.254 202.589V210.742C465.254 211.088 464.985 211.358 464.639 211.358Z" fill="#66393C"/>
<path d="M455.658 233.241H447.598C447.253 233.241 446.984 232.972 446.984 232.626V224.472C446.984 224.126 447.253 223.857 447.598 223.857H455.658C456.003 223.857 456.272 224.126 456.272 224.472V232.626C456.272 232.972 456.003 233.241 455.658 233.241Z" fill="#66393C"/>
<path d="M446.6 224.434H438.54C438.195 224.434 437.926 224.165 437.926 223.819V215.665C437.926 215.319 438.195 215.05 438.54 215.05H446.6C446.946 215.05 447.215 215.319 447.215 215.665V223.819C447.215 224.165 446.946 224.434 446.6 224.434Z" fill="#66393C"/>
<path d="M464.639 224.434H456.579C456.234 224.434 455.965 224.165 455.965 223.819V215.665C455.965 215.319 456.234 215.05 456.579 215.05H464.639C464.985 215.05 465.254 215.319 465.254 215.665V223.819C465.254 224.165 464.985 224.434 464.639 224.434Z" fill="#66393C"/>
<path d="M446.6 242.126H438.54C438.195 242.126 437.926 241.856 437.926 241.51V233.357C437.926 233.01 438.195 232.741 438.54 232.741H446.6C446.946 232.741 447.215 233.01 447.215 233.357V241.51C447.215 241.856 446.946 242.126 446.6 242.126Z" fill="#66393C"/>
<path d="M464.639 242.126H456.579C456.234 242.126 455.965 241.856 455.965 241.51V233.357C455.965 233.01 456.234 232.741 456.579 232.741H464.639C464.985 232.741 465.254 233.01 465.254 233.357V241.51C465.254 241.856 464.985 242.126 464.639 242.126Z" fill="#66393C"/>
<path d="M445.449 90.0899H422.075C421.115 90.0899 420.348 89.3207 420.348 88.3592V64.6673C420.348 63.7057 421.115 62.9365 422.075 62.9365H445.449C446.408 62.9365 447.176 63.7057 447.176 64.6673V88.3592C447.176 89.3207 446.408 90.0899 445.449 90.0899Z" fill="#66393C"/>
<path d="M445.449 119.667H422.075C421.115 119.667 420.348 118.897 420.348 117.936V94.2439C420.348 93.2824 421.115 92.5132 422.075 92.5132H445.449C446.408 92.5132 447.176 93.2824 447.176 94.2439V117.936C447.176 118.859 446.408 119.667 445.449 119.667Z" fill="#66393C"/>
<path d="M445.449 149.012H422.075C421.115 149.012 420.348 148.243 420.348 147.281V123.589C420.348 122.628 421.115 121.858 422.075 121.858H445.449C446.408 121.858 447.176 122.628 447.176 123.589V147.281C447.176 148.243 446.408 149.012 445.449 149.012Z" fill="#66393C"/>
<path d="M445.449 178.512H422.075C421.115 178.512 420.348 177.743 420.348 176.781V153.089C420.348 152.128 421.115 151.358 422.075 151.358H445.449C446.408 151.358 447.176 152.128 447.176 153.089V176.781C447.176 177.704 446.408 178.512 445.449 178.512Z" fill="#66393C"/>
</g>
</g>
<defs>
<clipPath id="clip0_1_133173">
<rect width="2295.19" height="241.535" fill="white" transform="translate(-977.173 0.553223)"/>
</clipPath>
<clipPath id="clip1_1_133173">
<rect width="122.606" height="241.535" fill="white" transform="translate(42.9121 0.553223)"/>
</clipPath>
<clipPath id="clip2_1_133173">
<rect width="122.606" height="241.535" fill="white" transform="translate(297.934 0.553223)"/>
</clipPath>
<clipPath id="clip3_1_133173">
<rect width="132.415" height="241.535" fill="white" transform="translate(-89.5029 0.553223)"/>
</clipPath>
<clipPath id="clip4_1_133173">
<rect width="132.415" height="241.535" fill="white" transform="translate(165.519 0.553223)"/>
</clipPath>
<clipPath id="clip5_1_133173">
<rect width="132.415" height="241.535" fill="white" transform="translate(420.54 0.553223)"/>
</clipPath>
</defs>
</svg>
